{"glyphs":{"0":{"ha":830,"x_min":49,"x_max":781,"o":"m 415 -14 q 141 114 234 -14 q 49 514 49 241 q 141 914 49 787 q 415 1042 233 1042 q 688 914 596 1042 q 781 514 781 787 q 688 114 781 241 q 415 -14 596 -14 m 415 187 q 488 217 460 187 q 529 318 515 247 q 543 513 543 390 q 529 709 543 638 q 488 811 515 781 q 415 841 460 841 q 342 811 370 841 q 301 709 315 781 q 287 515 287 638 q 301 319 287 390 q 342 217 315 247 q 415 187 370 187 z "},"1":{"ha":486,"x_min":7,"x_max":411,"o":"m 264 1032 l 411 1032 l 411 0 l 170 0 l 170 749 l 7 645 l 7 869 l 264 1032 z "},"2":{"ha":665,"x_min":10,"x_max":636,"o":"m 636 211 l 636 0 l 24 0 l 24 135 l 252 468 q 332 607 307 549 q 356 716 356 666 q 318 809 356 778 q 198 839 280 839 q 100 830 149 839 q 10 805 52 822 l 10 1006 q 115 1032 52 1022 q 235 1042 178 1042 q 502 969 409 1042 q 595 738 595 896 q 567 580 595 660 q 473 407 540 500 l 335 211 l 636 211 z "},"3":{"ha":672,"x_min":17,"x_max":642,"o":"m 447 531 q 593 445 544 509 q 642 285 642 382 q 595 123 642 190 q 459 21 549 56 q 244 -14 370 -14 q 17 17 126 -14 l 17 205 q 128 183 67 191 q 238 176 188 176 q 370 206 328 176 q 412 301 412 237 q 368 396 412 365 q 226 428 324 428 l 106 428 l 106 622 l 213 622 q 383 742 383 622 q 345 825 383 799 q 226 852 308 852 q 123 843 176 852 q 28 818 70 834 l 28 1006 q 136 1032 72 1022 q 260 1042 200 1042 q 523 972 433 1042 q 613 769 613 901 q 569 617 613 679 q 447 531 526 554 z "},"4":{"ha":799,"x_min":20,"x_max":782,"o":"m 782 394 l 782 208 l 667 208 l 667 0 l 453 0 l 453 208 l 20 208 l 20 344 l 329 1028 l 558 1028 l 279 394 l 453 394 l 478 681 l 667 681 l 667 394 l 782 394 z "},"5":{"ha":681,"x_min":37,"x_max":659,"o":"m 299 628 q 503 578 424 615 q 621 475 583 540 q 659 311 659 409 q 557 68 659 150 q 265 -14 454 -14 q 37 19 150 -14 l 37 208 q 149 184 88 193 q 259 176 209 176 q 388 207 347 176 q 428 301 428 238 q 406 375 428 347 q 322 420 383 403 q 150 444 262 437 l 63 449 l 95 1028 l 622 1028 l 622 829 l 310 829 l 299 628 z "},"6":{"ha":787,"x_min":55,"x_max":760,"o":"m 463 625 q 613 592 545 625 q 720 489 680 558 q 760 317 760 420 q 718 139 760 213 q 600 25 676 64 q 424 -14 524 -14 q 153 105 251 -14 q 55 486 55 224 q 179 905 55 769 q 530 1042 303 1042 q 628 1035 581 1042 q 710 1016 676 1029 l 710 823 q 627 841 667 835 q 537 847 586 847 q 358 783 418 847 q 292 574 298 718 q 371 612 326 599 q 463 625 415 625 m 426 169 q 509 204 477 169 q 542 308 542 239 q 508 411 542 377 q 415 444 474 444 q 350 434 382 444 q 292 403 319 424 q 312 261 295 312 q 357 190 329 210 q 426 169 385 169 z "},"7":{"ha":633,"x_min":7,"x_max":594,"o":"m 7 1028 l 594 1028 l 594 892 l 315 0 l 65 0 l 338 817 l 7 817 l 7 1028 z "},"8":{"ha":830,"x_min":41,"x_max":788,"o":"m 626 543 q 751 432 715 494 q 788 281 788 371 q 743 127 788 194 q 615 23 699 60 q 417 -14 531 -14 q 211 21 296 -14 q 84 118 126 56 q 41 261 41 180 q 83 399 41 338 q 206 502 124 461 q 98 613 131 551 q 65 755 65 674 q 107 906 65 842 q 231 1006 149 971 q 424 1042 312 1042 q 603 1009 527 1042 q 721 917 680 977 q 763 777 763 858 q 730 648 763 708 q 626 543 697 588 m 426 869 q 328 840 363 869 q 292 763 292 811 q 307 704 292 728 q 359 658 321 680 q 472 608 397 635 q 537 676 517 640 q 558 760 558 713 q 523 841 558 813 q 426 869 489 869 m 417 159 q 526 188 490 159 q 563 269 563 217 q 546 332 563 307 q 488 380 529 358 q 371 427 447 402 l 356 432 q 289 366 313 406 q 266 282 266 326 q 304 191 266 222 q 417 159 342 159 z "},"9":{"ha":787,"x_min":26,"x_max":732,"o":"m 363 1042 q 634 923 536 1042 q 732 542 732 803 q 608 123 732 259 q 257 -14 483 -14 q 158 -8 206 -14 q 76 12 111 -1 l 76 205 q 160 186 119 192 q 250 181 201 181 q 429 245 369 181 q 494 454 489 310 q 416 416 460 429 q 324 403 372 403 q 174 436 242 403 q 67 539 107 469 q 26 711 26 608 q 69 889 26 815 q 187 1003 111 964 q 363 1042 263 1042 m 245 719 q 279 617 245 651 q 372 583 313 583 q 436 594 405 583 q 494 625 468 604 q 475 767 492 716 q 430 838 458 818 q 360 858 401 858 q 277 824 310 858 q 245 719 245 789 z "},"\u0000":{"ha":0,"x_min":0,"x_max":0,"o":""},"\r":{"ha":303,"x_min":0,"x_max":0,"o":""}," ":{"ha":303,"x_min":0,"x_max":0,"o":""},"A":{"ha":886,"x_min":-2,"x_max":889,"o":"m 652 0 l 590 256 l 294 256 l 232 0 l -2 0 l 263 1028 l 624 1028 l 889 0 l 652 0 m 342 460 l 540 460 l 441 870 l 342 460 z "},"Á":{"ha":886,"x_min":-2,"x_max":889,"o":"m 652 0 l 590 256 l 294 256 l 232 0 l -2 0 l 263 1028 l 624 1028 l 889 0 l 652 0 m 342 460 l 540 460 l 441 870 l 342 460 m 338 1104 l 447 1319 l 693 1319 l 549 1104 l 338 1104 z "},"Ă":{"ha":886,"x_min":-2,"x_max":889,"o":"m 652 0 l 590 256 l 294 256 l 232 0 l -2 0 l 263 1028 l 624 1028 l 889 0 l 652 0 m 342 460 l 540 460 l 441 870 l 342 460 m 444 1106 q 274 1160 337 1106 q 201 1317 210 1215 l 345 1317 q 375 1244 351 1267 q 444 1222 399 1222 q 512 1244 488 1222 q 542 1317 535 1267 l 685 1317 q 614 1160 676 1215 q 444 1106 551 1106 z "},"Ắ":{"ha":886,"x_min":-2,"x_max":889,"o":"m 652 0 l 590 256 l 294 256 l 232 0 l -2 0 l 263 1028 l 624 1028 l 889 0 l 652 0 m 342 460 l 540 460 l 441 870 l 342 460 m 387 1272 l 451 1437 l 599 1437 l 500 1272 l 387 1272 m 443 1106 q 272 1155 335 1106 q 199 1290 209 1203 l 330 1290 q 364 1227 338 1247 q 443 1207 389 1207 q 523 1227 497 1207 q 563 1290 549 1247 l 688 1290 q 614 1155 677 1203 q 443 1106 551 1106 z "},"Ặ":{"ha":886,"x_min":-2,"x_max":889,"o":"m 652 0 l 590 256 l 294 256 l 232 0 l -2 0 l 263 1028 l 624 1028 l 889 0 l 652 0 m 342 460 l 540 460 l 441 870 l 342 460 m 443 -308 q 335 -279 374 -308 q 296 -194 296 -250 q 335 -109 296 -137 q 443 -80 374 -80 q 551 -109 513 -80 q 590 -194 590 -137 q 551 -279 590 -250 q 443 -308 513 -308 m 444 1106 q 274 1160 337 1106 q 201 1317 210 1215 l 345 1317 q 375 1244 351 1267 q 444 1222 399 1222 q 512 1244 488 1222 q 542 1317 535 1267 l 685 1317 q 614 1160 676 1215 q 444 1106 551 1106 z "},"Ằ":{"ha":886,"x_min":-2,"x_max":889,"o":"m 652 0 l 590 256 l 294 256 l 232 0 l -2 0 l 263 1028 l 624 1028 l 889 0 l 652 0 m 342 460 l 540 460 l 441 870 l 342 460 m 387 1272 l 288 1437 l 436 1437 l 500 1272 l 387 1272 m 443 1106 q 272 1155 335 1106 q 199 1290 209 1203 l 324 1290 q 363 1227 337 1247 q 443 1207 389 1207 q 523 1227 498 1207 q 557 1290 548 1247 l 688 1290 q 614 1155 677 1203 q 443 1106 551 1106 z "},"Ẳ":{"ha":886,"x_min":-2,"x_max":889,"o":"m 652 0 l 590 256 l 294 256 l 232 0 l -2 0 l 263 1028 l 624 1028 l 889 0 l 652 0 m 342 460 l 540 460 l 441 870 l 342 460 m 384 1272 q 406 1318 386 1302 q 457 1349 425 1335 q 480 1361 473 1356 q 488 1372 488 1366 q 472 1389 488 1383 q 420 1394 456 1394 q 298 1381 351 1394 l 298 1459 q 365 1470 323 1466 q 441 1474 406 1474 q 574 1454 532 1474 q 617 1389 617 1433 q 602 1353 617 1366 q 558 1324 588 1340 q 519 1300 532 1310 q 502 1272 506 1289 l 384 1272 m 443 1106 q 272 1155 335 1106 q 199 1290 209 1203 l 330 1290 q 364 1227 338 1247 q 443 1207 389 1207 q 523 1227 497 1207 q 563 1290 549 1247 l 688 1290 q 614 1155 677 1203 q 443 1106 551 1106 z "},"Ẵ":{"ha":886,"x_min":-2,"x_max":889,"o":"m 652 0 l 590 256 l 294 256 l 232 0 l -2 0 l 263 1028 l 624 1028 l 889 0 l 652 0 m 342 460 l 540 460 l 441 870 l 342 460 m 543 1323 q 490 1329 515 1323 q 431 1345 464 1335 q 381 1359 401 1354 q 342 1364 361 1364 q 270 1354 301 1364 q 199 1317 238 1344 l 199 1426 q 265 1460 233 1451 q 344 1469 297 1469 q 396 1464 371 1469 q 456 1447 421 1458 q 507 1432 488 1436 q 545 1427 526 1427 q 617 1438 585 1427 q 688 1474 648 1448 l 688 1366 q 623 1332 655 1340 q 543 1323 591 1323 m 443 1106 q 272 1155 335 1106 q 199 1290 209 1203 l 330 1290 q 364 1227 338 1247 q 443 1207 389 1207 q 523 1227 497 1207 q 557 1290 548 1247 l 688 1290 q 614 1155 677 1203 q 443 1106 551 1106 z "},"Â":{"ha":886,"x_min":-2,"x_max":889,"o":"m 652 0 l 590 256 l 294 256 l 232 0 l -2 0 l 263 1028 l 624 1028 l 889 0 l 652 0 m 342 460 l 540 460 l 441 870 l 342 460 m 678 1104 l 517 1104 l 443 1233 l 369 1104 l 209 1104 l 342 1319 l 544 1319 l 678 1104 z "},"Ấ":{"ha":886,"x_min":-2,"x_max":889,"o":"m 652 0 l 590 256 l 294 256 l 232 0 l -2 0 l 263 1028 l 624 1028 l 889 0 l 652 0 m 342 460 l 540 460 l 441 870 l 342 460 m 670 1433 l 818 1433 l 719 1266 l 606 1266 l 670 1433 m 342 1293 l 544 1293 l 678 1104 l 517 1104 l 443 1219 l 369 1104 l 209 1104 l 342 1293 z "},"Ậ":{"ha":886,"x_min":-2,"x_max":889,"o":"m 652 0 l 590 256 l 294 256 l 232 0 l -2 0 l 263 1028 l 624 1028 l 889 0 l 652 0 m 342 460 l 540 460 l 441 870 l 342 460 m 443 -308 q 335 -279 374 -308 q 296 -194 296 -250 q 335 -109 296 -137 q 443 -80 374 -80 q 551 -109 513 -80 q 590 -194 590 -137 q 551 -279 590 -250 q 443 -308 513 -308 m 678 1104 l 517 1104 l 443 1233 l 369 1104 l 209 1104 l 342 1319 l 544 1319 l 678 1104 z "},"Ầ":{"ha":886,"x_min":-2,"x_max":889,"o":"m 652 0 l 590 256 l 294 256 l 232 0 l -2 0 l 263 1028 l 624 1028 l 889 0 l 652 0 m 342 460 l 540 460 l 441 870 l 342 460 m 745 1266 l 632 1266 l 533 1433 l 681 1433 l 745 1266 m 342 1293 l 544 1293 l 678 1104 l 517 1104 l 443 1219 l 369 1104 l 209 1104 l 342 1293 z "},"Ẩ":{"ha":886,"x_min":-2,"x_max":889,"o":"m 652 0 l 590 256 l 294 256 l 232 0 l -2 0 l 263 1028 l 624 1028 l 889 0 l 652 0 m 342 460 l 540 460 l 441 870 l 342 460 m 663 1469 q 796 1449 753 1469 q 838 1384 838 1428 q 823 1348 838 1361 q 780 1319 808 1334 q 741 1294 754 1306 q 724 1266 727 1283 l 606 1266 q 627 1313 608 1297 q 678 1344 647 1329 q 702 1356 694 1351 q 709 1367 709 1360 q 693 1384 709 1378 q 642 1389 678 1389 q 520 1376 578 1389 l 520 1453 q 587 1465 546 1460 q 663 1469 628 1469 m 342 1293 l 544 1293 l 678 1104 l 517 1104 l 443 1219 l 369 1104 l 209 1104 l 342 1293 z "},"Ẫ":{"ha":886,"x_min":-2,"x_max":889,"o":"m 652 0 l 590 256 l 294 256 l 232 0 l -2 0 l 263 1028 l 624 1028 l 889 0 l 652 0 m 342 460 l 540 460 l 441 870 l 342 460 m 541 1427 q 610 1438 579 1427 q 678 1474 640 1448 l 678 1366 q 616 1332 647 1340 q 539 1323 585 1323 q 490 1328 513 1323 q 431 1345 467 1334 q 383 1359 401 1355 q 345 1364 364 1364 q 276 1353 306 1364 q 209 1317 247 1343 l 209 1426 q 272 1460 241 1451 q 348 1469 303 1469 q 398 1464 374 1469 q 456 1447 422 1458 q 502 1432 483 1437 q 541 1427 522 1427 m 342 1293 l 544 1293 l 678 1104 l 517 1104 l 443 1219 l 369 1104 l 209 1104 l 342 1293 z "},"Ȁ":{"ha":886,"x_min":-2,"x_max":889,"o":"m 652 0 l 590 256 l 294 256 l 232 0 l -2 0 l 263 1028 l 624 1028 l 889 0 l 652 0 m 342 460 l 540 460 l 441 870 l 342 460 m 210 1104 l 120 1319 l 313 1319 l 393 1104 l 210 1104 m 494 1104 l 403 1319 l 596 1319 l 676 1104 l 494 1104 z "},"Ä":{"ha":886,"x_min":-2,"x_max":889,"o":"m 652 0 l 590 256 l 294 256 l 232 0 l -2 0 l 263 1028 l 624 1028 l 889 0 l 652 0 m 342 460 l 540 460 l 441 870 l 342 460 m 276 1102 q 180 1132 214 1102 q 146 1215 146 1161 q 180 1300 146 1270 q 276 1329 214 1329 q 373 1300 339 1329 q 407 1215 407 1270 q 373 1132 407 1161 q 276 1102 339 1102 m 610 1102 q 514 1132 548 1102 q 480 1215 480 1161 q 514 1300 480 1270 q 610 1329 548 1329 q 706 1299 672 1329 q 740 1215 740 1269 q 706 1132 740 1161 q 610 1102 672 1102 z "},"Ạ":{"ha":886,"x_min":-2,"x_max":889,"o":"m 652 0 l 590 256 l 294 256 l 232 0 l -2 0 l 263 1028 l 624 1028 l 889 0 l 652 0 m 342 460 l 540 460 l 441 870 l 342 460 m 443 -308 q 335 -279 374 -308 q 296 -194 296 -250 q 335 -109 296 -137 q 443 -80 374 -80 q 551 -109 513 -80 q 590 -194 590 -137 q 551 -279 590 -250 q 443 -308 513 -308 z "},"À":{"ha":886,"x_min":-2,"x_max":889,"o":"m 652 0 l 590 256 l 294 256 l 232 0 l -2 0 l 263 1028 l 624 1028 l 889 0 l 652 0 m 342 460 l 540 460 l 441 870 l 342 460 m 338 1104 l 193 1319 l 440 1319 l 549 1104 l 338 1104 z "},"Ả":{"ha":886,"x_min":-2,"x_max":889,"o":"m 652 0 l 590 256 l 294 256 l 232 0 l -2 0 l 263 1028 l 624 1028 l 889 0 l 652 0 m 342 460 l 540 460 l 441 870 l 342 460 m 384 1104 q 406 1158 386 1140 q 458 1193 426 1177 q 480 1206 473 1201 q 488 1218 488 1212 q 472 1238 488 1231 q 420 1244 456 1244 q 358 1240 391 1244 q 298 1228 326 1235 l 298 1319 q 365 1332 324 1327 q 441 1336 406 1336 q 574 1313 532 1336 q 617 1239 617 1290 q 602 1198 617 1213 q 558 1165 587 1182 q 519 1136 532 1149 q 502 1104 506 1124 l 384 1104 z "},"Ȃ":{"ha":886,"x_min":-2,"x_max":889,"o":"m 652 0 l 590 256 l 294 256 l 232 0 l -2 0 l 263 1028 l 624 1028 l 889 0 l 652 0 m 342 460 l 540 460 l 441 870 l 342 460 m 201 1107 q 273 1264 210 1209 q 443 1318 336 1318 q 613 1264 550 1318 q 685 1107 676 1209 l 542 1107 q 511 1179 535 1157 q 443 1201 488 1201 q 375 1179 399 1201 q 345 1107 351 1157 l 201 1107 z "},"Ā":{"ha":886,"x_min":-2,"x_max":889,"o":"m 652 0 l 590 256 l 294 256 l 232 0 l -2 0 l 263 1028 l 624 1028 l 889 0 l 652 0 m 342 460 l 540 460 l 441 870 l 342 460 m 195 1136 l 195 1289 l 692 1289 l 692 1136 l 195 1136 z "},"Ą":{"ha":886,"x_min":-2,"x_max":907,"o":"m 815 -217 q 907 -197 858 -217 l 907 -292 q 784 -314 848 -314 q 639 -275 688 -314 q 590 -165 590 -235 q 616 -75 590 -115 q 699 0 641 -35 l 652 0 l 590 256 l 294 256 l 232 0 l -2 0 l 263 1028 l 624 1028 l 889 0 q 760 -72 794 -35 q 725 -151 725 -108 q 815 -217 725 -217 m 342 460 l 540 460 l 441 870 l 342 460 z "},"Å":{"ha":886,"x_min":-2,"x_max":889,"o":"m 652 0 l 590 256 l 294 256 l 232 0 l -2 0 l 263 1028 l 624 1028 l 889 0 l 652 0 m 342 460 l 540 460 l 441 870 l 342 460 m 443 1094 q 364 1114 399 1094 q 309 1167 328 1133 q 289 1244 289 1201 q 309 1321 289 1287 q 364 1374 328 1355 q 443 1393 399 1393 q 523 1374 488 1393 q 577 1321 558 1355 q 597 1244 597 1287 q 577 1167 597 1201 q 523 1114 558 1133 q 443 1094 488 1094 m 443 1182 q 486 1199 469 1182 q 503 1244 503 1215 q 486 1288 503 1272 q 443 1305 469 1305 q 400 1288 417 1305 q 384 1244 384 1272 q 400 1199 384 1215 q 443 1182 417 1182 z "},"Ǻ":{"ha":886,"x_min":-2,"x_max":889,"o":"m 652 0 l 590 256 l 294 256 l 232 0 l -2 0 l 263 1028 l 624 1028 l 889 0 l 652 0 m 342 460 l 540 460 l 441 870 l 342 460 m 580 1317 q 597 1244 597 1283 q 577 1167 597 1201 q 523 1114 558 1133 q 443 1094 488 1094 q 364 1114 399 1094 q 309 1167 328 1133 q 289 1244 289 1201 q 309 1321 289 1287 q 364 1374 328 1355 q 443 1393 399 1393 q 468 1392 451 1393 l 537 1478 l 722 1478 l 580 1317 m 443 1182 q 486 1199 469 1182 q 503 1244 503 1215 q 486 1289 503 1272 q 443 1306 469 1306 q 400 1289 417 1306 q 384 1244 384 1272 q 400 1199 384 1215 q 443 1182 417 1182 z "},"Ã":{"ha":886,"x_min":-2,"x_max":889,"o":"m 652 0 l 590 256 l 294 256 l 232 0 l -2 0 l 263 1028 l 624 1028 l 889 0 l 652 0 m 342 460 l 540 460 l 441 870 l 342 460 m 558 1112 q 497 1119 525 1112 q 431 1142 469 1127 q 374 1161 396 1155 q 327 1167 351 1167 q 256 1155 287 1167 q 193 1115 225 1142 l 193 1261 q 252 1301 220 1288 q 329 1314 284 1314 q 389 1306 362 1314 q 456 1284 417 1299 q 512 1264 488 1271 q 560 1258 535 1258 q 631 1270 600 1258 q 694 1310 662 1283 l 694 1163 q 635 1124 667 1136 q 558 1112 603 1112 z "},"Æ":{"ha":1251,"x_min":-2,"x_max":1213,"o":"m 829 206 l 1213 206 l 1213 0 l 611 0 l 594 256 l 299 256 l 235 0 l -2 0 l 265 1028 l 1206 1028 l 1206 822 l 782 822 l 797 628 l 1135 628 l 1135 422 l 813 422 l 829 206 m 349 462 l 579 462 l 554 822 l 438 822 l 349 462 z "},"Ǽ":{"ha":1251,"x_min":-2,"x_max":1213,"o":"m 829 206 l 1213 206 l 1213 0 l 611 0 l 594 256 l 299 256 l 235 0 l -2 0 l 265 1028 l 1206 1028 l 1206 822 l 782 822 l 797 628 l 1135 628 l 1135 422 l 813 422 l 829 206 m 349 462 l 579 462 l 554 822 l 438 822 l 349 462 m 541 1104 l 651 1319 l 897 1319 l 752 1104 l 541 1104 z "},"B":{"ha":848,"x_min":69,"x_max":825,"o":"m 642 530 q 776 450 727 510 q 825 288 825 389 q 709 62 825 137 q 342 -13 592 -13 q 206 -7 283 -13 q 69 9 130 -1 l 69 1008 q 219 1032 138 1024 q 375 1041 300 1041 q 612 1011 519 1041 q 750 917 705 981 q 796 754 796 854 q 755 614 796 674 q 642 530 714 553 m 414 856 q 303 847 363 856 l 303 621 l 408 621 q 504 633 469 621 q 554 670 539 645 q 569 738 569 696 q 533 828 569 801 q 414 856 498 856 m 410 173 q 520 186 479 173 q 580 227 561 199 q 598 301 598 255 q 557 398 598 367 q 428 428 517 428 l 303 428 l 303 178 q 410 173 362 173 z "},"C":{"ha":749,"x_min":42,"x_max":726,"o":"m 522 -14 q 164 111 287 -14 q 42 511 42 237 q 170 910 42 778 q 536 1042 298 1042 q 726 1019 638 1042 l 726 817 q 557 838 640 838 q 410 807 467 838 q 323 705 352 776 q 294 514 294 633 q 322 320 294 391 q 408 220 351 249 q 556 190 465 190 q 726 223 627 190 l 726 20 q 631 -5 687 5 q 522 -14 576 -14 z "},"Ć":{"ha":749,"x_min":42,"x_max":726,"o":"m 522 -14 q 164 111 287 -14 q 42 511 42 237 q 170 910 42 778 q 536 1042 298 1042 q 726 1019 638 1042 l 726 817 q 557 838 640 838 q 410 807 467 838 q 323 705 352 776 q 294 514 294 633 q 322 320 294 391 q 408 220 351 249 q 556 190 465 190 q 726 223 627 190 l 726 20 q 631 -5 687 5 q 522 -14 576 -14 m 363 1104 l 472 1319 l 718 1319 l 574 1104 l 363 1104 z "},"Č":{"ha":749,"x_min":42,"x_max":726,"o":"m 522 -14 q 164 111 287 -14 q 42 511 42 237 q 170 910 42 778 q 536 1042 298 1042 q 726 1019 638 1042 l 726 817 q 557 838 640 838 q 410 807 467 838 q 323 705 352 776 q 294 514 294 633 q 322 320 294 391 q 408 220 351 249 q 556 190 465 190 q 726 223 627 190 l 726 20 q 631 -5 687 5 q 522 -14 576 -14 m 542 1319 l 703 1319 l 569 1104 l 367 1104 l 234 1319 l 394 1319 l 468 1190 l 542 1319 z "},"Ç":{"ha":749,"x_min":42,"x_max":726,"o":"m 557 838 q 410 807 467 838 q 323 705 352 776 q 294 514 294 633 q 322 320 294 391 q 408 220 351 249 q 556 190 465 190 q 726 223 627 190 l 726 20 q 631 -5 687 5 q 522 -14 576 -14 l 512 -14 l 512 -58 q 602 -99 571 -68 q 634 -181 634 -130 q 440 -314 634 -314 q 310 -294 369 -314 l 310 -199 q 368 -214 336 -209 q 426 -219 399 -219 q 486 -208 467 -219 q 505 -172 505 -197 q 424 -122 505 -122 l 395 -122 l 395 -3 q 132 151 222 26 q 42 511 42 276 q 170 910 42 778 q 536 1042 298 1042 q 726 1019 638 1042 l 726 817 q 557 838 640 838 z "},"Ḉ":{"ha":749,"x_min":42,"x_max":726,"o":"m 718 1319 l 574 1104 l 363 1104 l 472 1319 l 718 1319 m 557 838 q 410 807 467 838 q 323 705 352 776 q 294 514 294 633 q 322 320 294 391 q 408 220 351 249 q 556 190 465 190 q 726 223 627 190 l 726 20 q 631 -5 687 5 q 522 -14 576 -14 l 512 -14 l 512 -58 q 602 -99 571 -68 q 634 -181 634 -130 q 440 -314 634 -314 q 310 -294 369 -314 l 310 -199 q 368 -214 336 -209 q 426 -219 399 -219 q 486 -208 467 -219 q 505 -172 505 -197 q 424 -122 505 -122 l 395 -122 l 395 -3 q 132 151 222 26 q 42 511 42 276 q 170 910 42 778 q 536 1042 298 1042 q 726 1019 638 1042 l 726 817 q 557 838 640 838 z "},"Ĉ":{"ha":749,"x_min":42,"x_max":726,"o":"m 522 -14 q 164 111 287 -14 q 42 511 42 237 q 170 910 42 778 q 536 1042 298 1042 q 726 1019 638 1042 l 726 817 q 557 838 640 838 q 410 807 467 838 q 323 705 352 776 q 294 514 294 633 q 322 320 294 391 q 408 220 351 249 q 556 190 465 190 q 726 223 627 190 l 726 20 q 631 -5 687 5 q 522 -14 576 -14 m 703 1104 l 542 1104 l 468 1233 l 394 1104 l 234 1104 l 367 1319 l 569 1319 l 703 1104 z "},"Ċ":{"ha":749,"x_min":42,"x_max":726,"o":"m 522 -14 q 164 111 287 -14 q 42 511 42 237 q 170 910 42 778 q 536 1042 298 1042 q 726 1019 638 1042 l 726 817 q 557 838 640 838 q 410 807 467 838 q 323 705 352 776 q 294 514 294 633 q 322 320 294 391 q 408 220 351 249 q 556 190 465 190 q 726 223 627 190 l 726 20 q 631 -5 687 5 q 522 -14 576 -14 m 468 1102 q 360 1131 399 1102 q 321 1215 321 1159 q 360 1300 321 1272 q 468 1329 399 1329 q 577 1301 538 1329 q 615 1215 615 1272 q 577 1131 615 1159 q 468 1102 538 1102 z "},"D":{"ha":908,"x_min":69,"x_max":867,"o":"m 322 -13 q 69 1 200 -13 l 69 1008 q 357 1041 219 1041 q 741 913 615 1041 q 867 514 867 784 q 807 215 867 331 q 627 42 747 98 q 322 -13 506 -13 m 387 188 q 514 219 464 188 q 591 321 565 249 q 617 514 617 392 q 590 707 617 635 q 512 810 563 779 q 385 841 461 841 q 346 839 367 841 q 310 833 325 837 l 310 191 q 387 188 353 188 z "},"Ǳ":{"ha":1638,"x_min":69,"x_max":1613,"o":"m 322 -13 q 69 1 200 -13 l 69 1008 q 357 1041 219 1041 q 741 913 615 1041 q 867 514 867 784 q 807 215 867 331 q 627 42 747 98 q 322 -13 506 -13 m 387 188 q 514 219 464 188 q 591 321 565 249 q 617 514 617 392 q 590 707 617 635 q 512 810 563 779 q 385 841 461 841 q 346 839 367 841 q 310 833 325 837 l 310 191 q 387 188 353 188 m 1217 213 l 1613 213 l 1613 0 l 905 0 l 905 135 l 1294 815 l 912 815 l 912 1028 l 1606 1028 l 1606 892 l 1217 213 z "},"Ǆ":{"ha":1638,"x_min":69,"x_max":1613,"o":"m 322 -13 q 69 1 200 -13 l 69 1008 q 357 1041 219 1041 q 741 913 615 1041 q 867 514 867 784 q 807 215 867 331 q 627 42 747 98 q 322 -13 506 -13 m 387 188 q 514 219 464 188 q 591 321 565 249 q 617 514 617 392 q 590 707 617 635 q 512 810 563 779 q 385 841 461 841 q 346 839 367 841 q 310 833 325 837 l 310 191 q 387 188 353 188 m 1217 213 l 1613 213 l 1613 0 l 905 0 l 905 135 l 1294 815 l 912 815 l 912 1028 l 1606 1028 l 1606 892 l 1217 213 m 1334 1319 l 1494 1319 l 1360 1104 l 1159 1104 l 1026 1319 l 1185 1319 l 1260 1190 l 1334 1319 z "},"Ð":{"ha":908,"x_min":0,"x_max":867,"o":"m 357 1041 q 741 913 615 1041 q 867 514 867 784 q 807 215 867 331 q 627 42 747 98 q 322 -13 506 -13 q 69 1 200 -13 l 69 449 l 0 449 l 0 610 l 69 610 l 69 1008 q 357 1041 219 1041 m 387 188 q 514 219 464 188 q 591 321 565 249 q 617 514 617 392 q 590 707 617 635 q 512 810 563 779 q 385 841 461 841 q 346 839 367 841 q 310 833 325 837 l 310 610 l 456 610 l 456 449 l 310 449 l 310 191 q 387 188 353 188 z "},"Ď":{"ha":908,"x_min":69,"x_max":867,"o":"m 322 -13 q 69 1 200 -13 l 69 1008 q 357 1041 219 1041 q 741 913 615 1041 q 867 514 867 784 q 807 215 867 331 q 627 42 747 98 q 322 -13 506 -13 m 387 188 q 514 219 464 188 q 591 321 565 249 q 617 514 617 392 q 590 707 617 635 q 512 810 563 779 q 385 841 461 841 q 346 839 367 841 q 310 833 325 837 l 310 191 q 387 188 353 188 m 494 1319 l 654 1319 l 520 1104 l 319 1104 l 185 1319 l 345 1319 l 419 1190 l 494 1319 z "},"Đ":{"ha":908,"x_min":0,"x_max":867,"o":"m 357 1041 q 741 913 615 1041 q 867 514 867 784 q 807 215 867 331 q 627 42 747 98 q 322 -13 506 -13 q 69 1 200 -13 l 69 449 l 0 449 l 0 610 l 69 610 l 69 1008 q 357 1041 219 1041 m 387 188 q 514 219 464 188 q 591 321 565 249 q 617 514 617 392 q 590 707 617 635 q 512 810 563 779 q 385 841 461 841 q 346 839 367 841 q 310 833 325 837 l 310 610 l 456 610 l 456 449 l 310 449 l 310 191 q 387 188 353 188 z "},"Ḍ":{"ha":908,"x_min":69,"x_max":867,"o":"m 322 -13 q 69 1 200 -13 l 69 1008 q 357 1041 219 1041 q 741 913 615 1041 q 867 514 867 784 q 807 215 867 331 q 627 42 747 98 q 322 -13 506 -13 m 387 188 q 514 219 464 188 q 591 321 565 249 q 617 514 617 392 q 590 707 617 635 q 512 810 563 779 q 385 841 461 841 q 346 839 367 841 q 310 833 325 837 l 310 191 q 387 188 353 188 m 431 -308 q 323 -279 362 -308 q 284 -194 284 -250 q 323 -109 284 -137 q 431 -80 362 -80 q 540 -109 501 -80 q 578 -194 578 -137 q 540 -279 578 -250 q 431 -308 501 -308 z "},"Ḏ":{"ha":908,"x_min":69,"x_max":867,"o":"m 322 -13 q 69 1 200 -13 l 69 1008 q 357 1041 219 1041 q 741 913 615 1041 q 867 514 867 784 q 807 215 867 331 q 627 42 747 98 q 322 -13 506 -13 m 387 188 q 514 219 464 188 q 591 321 565 249 q 617 514 617 392 q 590 707 617 635 q 512 810 563 779 q 385 841 461 841 q 346 839 367 841 q 310 833 325 837 l 310 191 q 387 188 353 188 m 183 -263 l 183 -110 l 680 -110 l 680 -263 l 183 -263 z "},"ǲ":{"ha":1503,"x_min":69,"x_max":1483,"o":"m 322 -13 q 69 1 200 -13 l 69 1008 q 357 1041 219 1041 q 741 913 615 1041 q 867 514 867 784 q 807 215 867 331 q 627 42 747 98 q 322 -13 506 -13 m 387 188 q 514 219 464 188 q 591 321 565 249 q 617 514 617 392 q 590 707 617 635 q 512 810 563 779 q 385 841 461 841 q 346 839 367 841 q 310 833 325 837 l 310 191 q 387 188 353 188 m 1202 185 l 1483 185 l 1483 0 l 939 0 l 939 147 l 1213 576 l 946 576 l 946 762 l 1476 762 l 1476 615 l 1202 185 z "},"ǅ":{"ha":1503,"x_min":69,"x_max":1483,"o":"m 322 -13 q 69 1 200 -13 l 69 1008 q 357 1041 219 1041 q 741 913 615 1041 q 867 514 867 784 q 807 215 867 331 q 627 42 747 98 q 322 -13 506 -13 m 387 188 q 514 219 464 188 q 591 321 565 249 q 617 514 617 392 q 590 707 617 635 q 512 810 563 779 q 385 841 461 841 q 346 839 367 841 q 310 833 325 837 l 310 191 q 387 188 353 188 m 1202 185 l 1483 185 l 1483 0 l 939 0 l 939 147 l 1213 576 l 946 576 l 946 762 l 1476 762 l 1476 615 l 1202 185 m 1285 1097 l 1446 1097 l 1312 882 l 1110 882 l 977 1097 l 1137 1097 l 1211 968 l 1285 1097 z "},"E":{"ha":766,"x_min":69,"x_max":728,"o":"m 306 206 l 728 206 l 728 0 l 69 0 l 69 1028 l 721 1028 l 721 822 l 306 822 l 306 628 l 650 628 l 650 422 l 306 422 l 306 206 z "},"É":{"ha":766,"x_min":69,"x_max":728,"o":"m 306 206 l 728 206 l 728 0 l 69 0 l 69 1028 l 721 1028 l 721 822 l 306 822 l 306 628 l 650 628 l 650 422 l 306 422 l 306 206 m 304 1104 l 414 1319 l 660 1319 l 515 1104 l 304 1104 z "},"Ĕ":{"ha":766,"x_min":69,"x_max":728,"o":"m 306 206 l 728 206 l 728 0 l 69 0 l 69 1028 l 721 1028 l 721 822 l 306 822 l 306 628 l 650 628 l 650 422 l 306 422 l 306 206 m 410 1106 q 240 1160 303 1106 q 167 1317 177 1215 l 312 1317 q 342 1244 318 1267 q 410 1222 366 1222 q 478 1244 455 1222 q 508 1317 502 1267 l 652 1317 q 580 1160 643 1215 q 410 1106 517 1106 z "},"Ě":{"ha":766,"x_min":69,"x_max":728,"o":"m 306 206 l 728 206 l 728 0 l 69 0 l 69 1028 l 721 1028 l 721 822 l 306 822 l 306 628 l 650 628 l 650 422 l 306 422 l 306 206 m 484 1319 l 644 1319 l 510 1104 l 309 1104 l 176 1319 l 335 1319 l 410 1190 l 484 1319 z "},"Ḝ":{"ha":766,"x_min":69,"x_max":728,"o":"m 410 1106 q 240 1160 303 1106 q 167 1317 177 1215 l 312 1317 q 342 1244 318 1267 q 410 1222 366 1222 q 478 1244 455 1222 q 508 1317 502 1267 l 652 1317 q 580 1160 643 1215 q 410 1106 517 1106 m 452 0 l 452 -58 q 543 -99 511 -68 q 574 -181 574 -130 q 380 -314 574 -314 q 250 -294 310 -314 l 250 -199 q 308 -214 276 -209 q 367 -219 340 -219 q 426 -208 408 -219 q 445 -172 445 -197 q 365 -122 445 -122 l 335 -122 l 335 0 l 69 0 l 69 1028 l 721 1028 l 721 822 l 306 822 l 306 628 l 650 628 l 650 422 l 306 422 l 306 206 l 728 206 l 728 0 l 452 0 z "},"Ê":{"ha":766,"x_min":69,"x_max":728,"o":"m 306 206 l 728 206 l 728 0 l 69 0 l 69 1028 l 721 1028 l 721 822 l 306 822 l 306 628 l 650 628 l 650 422 l 306 422 l 306 206 m 644 1104 l 484 1104 l 410 1233 l 335 1104 l 176 1104 l 309 1319 l 510 1319 l 644 1104 z "},"Ế":{"ha":766,"x_min":69,"x_max":785,"o":"m 306 206 l 728 206 l 728 0 l 69 0 l 69 1028 l 721 1028 l 721 822 l 306 822 l 306 628 l 650 628 l 650 422 l 306 422 l 306 206 m 637 1433 l 785 1433 l 686 1266 l 573 1266 l 637 1433 m 309 1293 l 510 1293 l 644 1104 l 484 1104 l 410 1219 l 335 1104 l 176 1104 l 309 1293 z "},"Ệ":{"ha":766,"x_min":69,"x_max":728,"o":"m 306 206 l 728 206 l 728 0 l 69 0 l 69 1028 l 721 1028 l 721 822 l 306 822 l 306 628 l 650 628 l 650 422 l 306 422 l 306 206 m 410 -308 q 301 -279 340 -308 q 263 -194 263 -250 q 301 -109 263 -137 q 410 -80 340 -80 q 518 -109 479 -80 q 557 -194 557 -137 q 518 -279 557 -250 q 410 -308 479 -308 m 644 1104 l 484 1104 l 410 1233 l 335 1104 l 176 1104 l 309 1319 l 510 1319 l 644 1104 z "},"Ề":{"ha":766,"x_min":69,"x_max":728,"o":"m 306 206 l 728 206 l 728 0 l 69 0 l 69 1028 l 721 1028 l 721 822 l 306 822 l 306 628 l 650 628 l 650 422 l 306 422 l 306 206 m 712 1266 l 599 1266 l 500 1433 l 648 1433 l 712 1266 m 309 1293 l 510 1293 l 644 1104 l 484 1104 l 410 1219 l 335 1104 l 176 1104 l 309 1293 z "},"Ể":{"ha":766,"x_min":69,"x_max":805,"o":"m 306 206 l 728 206 l 728 0 l 69 0 l 69 1028 l 721 1028 l 721 822 l 306 822 l 306 628 l 650 628 l 650 422 l 306 422 l 306 206 m 629 1469 q 763 1449 720 1469 q 805 1384 805 1428 q 790 1348 805 1361 q 747 1319 775 1334 q 707 1294 721 1306 q 691 1266 694 1283 l 573 1266 q 594 1313 575 1297 q 645 1344 613 1329 q 668 1356 661 1351 q 676 1367 676 1360 q 660 1384 676 1378 q 609 1389 644 1389 q 487 1376 545 1389 l 487 1453 q 554 1465 513 1460 q 629 1469 595 1469 m 309 1293 l 510 1293 l 644 1104 l 484 1104 l 410 1219 l 335 1104 l 176 1104 l 309 1293 z "},"Ễ":{"ha":766,"x_min":69,"x_max":728,"o":"m 306 206 l 728 206 l 728 0 l 69 0 l 69 1028 l 721 1028 l 721 822 l 306 822 l 306 628 l 650 628 l 650 422 l 306 422 l 306 206 m 508 1427 q 576 1438 546 1427 q 644 1474 607 1448 l 644 1366 q 582 1332 613 1340 q 506 1323 551 1323 q 456 1328 479 1323 q 397 1345 433 1334 q 349 1359 368 1355 q 312 1364 331 1364 q 243 1353 273 1364 q 176 1317 213 1343 l 176 1426 q 239 1460 208 1451 q 315 1469 269 1469 q 365 1464 341 1469 q 423 1447 389 1458 q 469 1432 449 1437 q 508 1427 489 1427 m 309 1293 l 510 1293 l 644 1104 l 484 1104 l 410 1219 l 335 1104 l 176 1104 l 309 1293 z "},"Ȅ":{"ha":766,"x_min":69,"x_max":728,"o":"m 306 206 l 728 206 l 728 0 l 69 0 l 69 1028 l 721 1028 l 721 822 l 306 822 l 306 628 l 650 628 l 650 422 l 306 422 l 306 206 m 177 1104 l 87 1319 l 280 1319 l 360 1104 l 177 1104 m 460 1104 l 369 1319 l 563 1319 l 642 1104 l 460 1104 z "},"Ë":{"ha":766,"x_min":69,"x_max":728,"o":"m 306 206 l 728 206 l 728 0 l 69 0 l 69 1028 l 721 1028 l 721 822 l 306 822 l 306 628 l 650 628 l 650 422 l 306 422 l 306 206 m 243 1102 q 147 1132 181 1102 q 113 1215 113 1161 q 147 1300 113 1270 q 243 1329 181 1329 q 340 1300 306 1329 q 374 1215 374 1270 q 340 1132 374 1161 q 243 1102 306 1102 m 577 1102 q 481 1132 515 1102 q 447 1215 447 1161 q 481 1300 447 1270 q 577 1329 515 1329 q 673 1299 639 1329 q 707 1215 707 1269 q 673 1132 707 1161 q 577 1102 639 1102 z "},"Ė":{"ha":766,"x_min":69,"x_max":728,"o":"m 306 206 l 728 206 l 728 0 l 69 0 l 69 1028 l 721 1028 l 721 822 l 306 822 l 306 628 l 650 628 l 650 422 l 306 422 l 306 206 m 410 1102 q 301 1131 340 1102 q 263 1215 263 1159 q 301 1300 263 1272 q 410 1329 340 1329 q 518 1301 480 1329 q 557 1215 557 1272 q 518 1131 557 1159 q 410 1102 480 1102 z "},"Ẹ":{"ha":766,"x_min":69,"x_max":728,"o":"m 306 206 l 728 206 l 728 0 l 69 0 l 69 1028 l 721 1028 l 721 822 l 306 822 l 306 628 l 650 628 l 650 422 l 306 422 l 306 206 m 410 -308 q 301 -279 340 -308 q 263 -194 263 -250 q 301 -109 263 -137 q 410 -80 340 -80 q 518 -109 479 -80 q 557 -194 557 -137 q 518 -279 557 -250 q 410 -308 479 -308 z "},"È":{"ha":766,"x_min":69,"x_max":728,"o":"m 306 206 l 728 206 l 728 0 l 69 0 l 69 1028 l 721 1028 l 721 822 l 306 822 l 306 628 l 650 628 l 650 422 l 306 422 l 306 206 m 304 1104 l 160 1319 l 406 1319 l 515 1104 l 304 1104 z "},"Ẻ":{"ha":766,"x_min":69,"x_max":728,"o":"m 306 206 l 728 206 l 728 0 l 69 0 l 69 1028 l 721 1028 l 721 822 l 306 822 l 306 628 l 650 628 l 650 422 l 306 422 l 306 206 m 351 1104 q 373 1158 353 1140 q 424 1193 392 1177 q 447 1206 440 1201 q 454 1218 454 1212 q 438 1238 454 1231 q 387 1244 422 1244 q 325 1240 358 1244 q 265 1228 292 1235 l 265 1319 q 332 1332 290 1327 q 408 1336 373 1336 q 541 1313 499 1336 q 583 1239 583 1290 q 568 1198 583 1213 q 524 1165 553 1182 q 485 1136 499 1149 q 469 1104 472 1124 l 351 1104 z "},"Ȇ":{"ha":766,"x_min":69,"x_max":728,"o":"m 306 206 l 728 206 l 728 0 l 69 0 l 69 1028 l 721 1028 l 721 822 l 306 822 l 306 628 l 650 628 l 650 422 l 306 422 l 306 206 m 167 1107 q 240 1264 177 1209 q 410 1318 303 1318 q 580 1264 517 1318 q 652 1107 643 1209 l 508 1107 q 478 1179 501 1157 q 410 1201 454 1201 q 342 1179 365 1201 q 312 1107 318 1157 l 167 1107 z "},"Ē":{"ha":766,"x_min":69,"x_max":728,"o":"m 306 206 l 728 206 l 728 0 l 69 0 l 69 1028 l 721 1028 l 721 822 l 306 822 l 306 628 l 650 628 l 650 422 l 306 422 l 306 206 m 162 1136 l 162 1289 l 658 1289 l 658 1136 l 162 1136 z "},"Ḗ":{"ha":766,"x_min":69,"x_max":728,"o":"m 306 206 l 728 206 l 728 0 l 69 0 l 69 1028 l 721 1028 l 721 822 l 306 822 l 306 628 l 650 628 l 650 422 l 306 422 l 306 206 m 294 1369 l 403 1531 l 671 1531 l 526 1369 l 294 1369 m 162 1136 l 162 1289 l 658 1289 l 658 1136 l 162 1136 z "},"Ḕ":{"ha":766,"x_min":69,"x_max":728,"o":"m 306 206 l 728 206 l 728 0 l 69 0 l 69 1028 l 721 1028 l 721 822 l 306 822 l 306 628 l 650 628 l 650 422 l 306 422 l 306 206 m 294 1369 l 149 1531 l 417 1531 l 526 1369 l 294 1369 m 162 1136 l 162 1289 l 658 1289 l 658 1136 l 162 1136 z "},"Ę":{"ha":766,"x_min":69,"x_max":728,"o":"m 672 0 q 543 -72 578 -35 q 508 -151 508 -108 q 598 -217 508 -217 q 690 -197 642 -217 l 690 -292 q 567 -314 631 -314 q 422 -275 471 -314 q 374 -165 374 -235 q 399 -75 374 -115 q 483 0 424 -35 l 69 0 l 69 1028 l 721 1028 l 721 822 l 306 822 l 306 628 l 650 628 l 650 422 l 306 422 l 306 206 l 728 206 l 728 0 l 672 0 z "},"Ẽ":{"ha":766,"x_min":69,"x_max":728,"o":"m 306 206 l 728 206 l 728 0 l 69 0 l 69 1028 l 721 1028 l 721 822 l 306 822 l 306 628 l 650 628 l 650 422 l 306 422 l 306 206 m 524 1112 q 464 1119 492 1112 q 397 1142 435 1127 q 340 1161 363 1155 q 294 1167 318 1167 q 223 1155 253 1167 q 160 1115 192 1142 l 160 1261 q 219 1301 187 1288 q 296 1314 251 1314 q 356 1306 328 1314 q 422 1284 383 1299 q 478 1264 455 1271 q 526 1258 502 1258 q 598 1270 567 1258 q 660 1310 628 1283 l 660 1163 q 602 1124 634 1136 q 524 1112 569 1112 z "},"F":{"ha":728,"x_min":69,"x_max":720,"o":"m 720 819 l 310 819 l 310 601 l 653 601 l 653 392 l 310 392 l 310 0 l 69 0 l 69 1028 l 720 1028 l 720 819 z "},"G":{"ha":872,"x_min":42,"x_max":810,"o":"m 810 500 l 810 8 q 579 -13 680 -13 q 176 115 310 -13 q 42 514 42 243 q 177 911 42 781 q 574 1042 313 1042 q 685 1035 635 1042 q 785 1016 735 1029 l 785 813 q 691 832 735 826 q 601 838 647 838 q 425 807 492 838 q 326 704 358 776 q 294 510 294 633 q 323 323 294 394 q 410 221 353 252 q 553 190 467 190 q 587 190 576 190 l 587 500 l 810 500 z "},"Ǵ":{"ha":872,"x_min":42,"x_max":810,"o":"m 810 500 l 810 8 q 579 -13 680 -13 q 176 115 310 -13 q 42 514 42 243 q 177 911 42 781 q 574 1042 313 1042 q 685 1035 635 1042 q 785 1016 735 1029 l 785 813 q 691 832 735 826 q 601 838 647 838 q 425 807 492 838 q 326 704 358 776 q 294 510 294 633 q 323 323 294 394 q 410 221 353 252 q 553 190 467 190 q 587 190 576 190 l 587 500 l 810 500 m 403 1104 l 513 1319 l 758 1319 l 614 1104 l 403 1104 z "},"Ğ":{"ha":872,"x_min":42,"x_max":810,"o":"m 810 500 l 810 8 q 579 -13 680 -13 q 176 115 310 -13 q 42 514 42 243 q 177 911 42 781 q 574 1042 313 1042 q 685 1035 635 1042 q 785 1016 735 1029 l 785 813 q 691 832 735 826 q 601 838 647 838 q 425 807 492 838 q 326 704 358 776 q 294 510 294 633 q 323 323 294 394 q 410 221 353 252 q 553 190 467 190 q 587 190 576 190 l 587 500 l 810 500 m 509 1106 q 339 1160 402 1106 q 266 1317 276 1215 l 410 1317 q 441 1244 417 1267 q 509 1222 465 1222 q 577 1244 553 1222 q 607 1317 601 1267 l 751 1317 q 679 1160 742 1215 q 509 1106 616 1106 z "},"Ǧ":{"ha":872,"x_min":42,"x_max":810,"o":"m 810 500 l 810 8 q 579 -13 680 -13 q 176 115 310 -13 q 42 514 42 243 q 177 911 42 781 q 574 1042 313 1042 q 685 1035 635 1042 q 785 1016 735 1029 l 785 813 q 691 832 735 826 q 601 838 647 838 q 425 807 492 838 q 326 704 358 776 q 294 510 294 633 q 323 323 294 394 q 410 221 353 252 q 553 190 467 190 q 587 190 576 190 l 587 500 l 810 500 m 583 1319 l 743 1319 l 609 1104 l 408 1104 l 274 1319 l 434 1319 l 508 1190 l 583 1319 z "},"Ĝ":{"ha":872,"x_min":42,"x_max":810,"o":"m 810 500 l 810 8 q 579 -13 680 -13 q 176 115 310 -13 q 42 514 42 243 q 177 911 42 781 q 574 1042 313 1042 q 685 1035 635 1042 q 785 1016 735 1029 l 785 813 q 691 832 735 826 q 601 838 647 838 q 425 807 492 838 q 326 704 358 776 q 294 510 294 633 q 323 323 294 394 q 410 221 353 252 q 553 190 467 190 q 587 190 576 190 l 587 500 l 810 500 m 743 1104 l 583 1104 l 508 1233 l 434 1104 l 274 1104 l 408 1319 l 609 1319 l 743 1104 z "},"Ģ":{"ha":872,"x_min":42,"x_max":810,"o":"m 810 500 l 810 8 q 579 -13 680 -13 q 176 115 310 -13 q 42 514 42 243 q 177 911 42 781 q 574 1042 313 1042 q 685 1035 635 1042 q 785 1016 735 1029 l 785 813 q 691 832 735 826 q 601 838 647 838 q 425 807 492 838 q 326 704 358 776 q 294 510 294 633 q 323 323 294 394 q 410 221 353 252 q 553 190 467 190 q 587 190 576 190 l 587 500 l 810 500 m 508 -80 q 639 -192 639 -80 q 623 -275 639 -231 q 582 -352 606 -319 l 432 -352 q 473 -249 465 -290 q 402 -221 425 -243 q 378 -165 378 -199 q 410 -102 378 -124 q 508 -80 442 -80 z "},"Ġ":{"ha":872,"x_min":42,"x_max":810,"o":"m 810 500 l 810 8 q 579 -13 680 -13 q 176 115 310 -13 q 42 514 42 243 q 177 911 42 781 q 574 1042 313 1042 q 685 1035 635 1042 q 785 1016 735 1029 l 785 813 q 691 832 735 826 q 601 838 647 838 q 425 807 492 838 q 326 704 358 776 q 294 510 294 633 q 323 323 294 394 q 410 221 353 252 q 553 190 467 190 q 587 190 576 190 l 587 500 l 810 500 m 508 1102 q 400 1131 439 1102 q 361 1215 361 1159 q 400 1300 361 1272 q 508 1329 439 1329 q 617 1301 578 1329 q 656 1215 656 1272 q 617 1131 656 1159 q 508 1102 578 1102 z "},"Ḡ":{"ha":872,"x_min":42,"x_max":810,"o":"m 810 500 l 810 8 q 579 -13 680 -13 q 176 115 310 -13 q 42 514 42 243 q 177 911 42 781 q 574 1042 313 1042 q 685 1035 635 1042 q 785 1016 735 1029 l 785 813 q 691 832 735 826 q 601 838 647 838 q 425 807 492 838 q 326 704 358 776 q 294 510 294 633 q 323 323 294 394 q 410 221 353 252 q 553 190 467 190 q 587 190 576 190 l 587 500 l 810 500 m 260 1136 l 260 1289 l 757 1289 l 757 1136 l 260 1136 z "},"H":{"ha":935,"x_min":69,"x_max":866,"o":"m 69 0 l 69 1028 l 310 1028 l 310 635 l 625 635 l 625 1028 l 866 1028 l 866 0 l 625 0 l 625 415 l 310 415 l 310 0 l 69 0 z "},"Ħ":{"ha":935,"x_min":0,"x_max":935,"o":"m 935 902 l 935 753 l 866 753 l 866 0 l 625 0 l 625 415 l 310 415 l 310 0 l 69 0 l 69 753 l 0 753 l 0 902 l 69 902 l 69 1028 l 310 1028 l 310 902 l 625 902 l 625 1028 l 866 1028 l 866 902 l 935 902 m 625 635 l 625 753 l 310 753 l 310 635 l 625 635 z "},"Ḫ":{"ha":935,"x_min":69,"x_max":866,"o":"m 69 0 l 69 1028 l 310 1028 l 310 635 l 625 635 l 625 1028 l 866 1028 l 866 0 l 625 0 l 625 415 l 310 415 l 310 0 l 69 0 m 469 -308 q 298 -253 361 -308 q 226 -96 235 -198 l 370 -96 q 400 -168 376 -146 q 469 -191 424 -191 q 537 -168 513 -191 q 567 -96 561 -146 l 710 -96 q 639 -253 701 -198 q 469 -308 576 -308 z "},"Ĥ":{"ha":935,"x_min":69,"x_max":866,"o":"m 69 0 l 69 1028 l 310 1028 l 310 635 l 625 635 l 625 1028 l 866 1028 l 866 0 l 625 0 l 625 415 l 310 415 l 310 0 l 69 0 m 703 1104 l 542 1104 l 468 1233 l 394 1104 l 234 1104 l 367 1319 l 569 1319 l 703 1104 z "},"Ḥ":{"ha":935,"x_min":69,"x_max":866,"o":"m 69 0 l 69 1028 l 310 1028 l 310 635 l 625 635 l 625 1028 l 866 1028 l 866 0 l 625 0 l 625 415 l 310 415 l 310 0 l 69 0 m 468 -308 q 360 -279 399 -308 q 321 -194 321 -250 q 360 -109 321 -137 q 468 -80 399 -80 q 576 -109 538 -80 q 615 -194 615 -137 q 576 -279 615 -250 q 468 -308 538 -308 z "},"I":{"ha":378,"x_min":69,"x_max":310,"o":"m 69 0 l 69 1028 l 310 1028 l 310 0 l 69 0 z "},"Í":{"ha":378,"x_min":69,"x_max":439,"o":"m 69 0 l 69 1028 l 310 1028 l 310 0 l 69 0 m 83 1104 l 193 1319 l 439 1319 l 294 1104 l 83 1104 z "},"Ĭ":{"ha":378,"x_min":-53,"x_max":431,"o":"m 69 0 l 69 1028 l 310 1028 l 310 0 l 69 0 m 190 1106 q 19 1160 83 1106 q -53 1317 -44 1215 l 91 1317 q 121 1244 97 1267 q 190 1222 145 1222 q 258 1244 234 1222 q 288 1317 281 1267 l 431 1317 q 359 1160 422 1215 q 190 1106 297 1106 z "},"Î":{"ha":378,"x_min":-45,"x_max":424,"o":"m 69 0 l 69 1028 l 310 1028 l 310 0 l 69 0 m 424 1104 l 263 1104 l 189 1233 l 115 1104 l -45 1104 l 88 1319 l 290 1319 l 424 1104 z "},"Ȉ":{"ha":378,"x_min":-134,"x_max":422,"o":"m 69 0 l 69 1028 l 310 1028 l 310 0 l 69 0 m -44 1104 l -134 1319 l 59 1319 l 139 1104 l -44 1104 m 240 1104 l 149 1319 l 342 1319 l 422 1104 l 240 1104 z "},"Ï":{"ha":378,"x_min":-108,"x_max":486,"o":"m 69 0 l 69 1028 l 310 1028 l 310 0 l 69 0 m 22 1102 q -74 1132 -40 1102 q -108 1215 -108 1161 q -74 1300 -108 1270 q 22 1329 -40 1329 q 119 1300 85 1329 q 153 1215 153 1270 q 119 1132 153 1161 q 22 1102 85 1102 m 356 1102 q 260 1132 294 1102 q 226 1215 226 1161 q 260 1300 226 1270 q 356 1329 294 1329 q 452 1299 418 1329 q 486 1215 486 1269 q 452 1132 486 1161 q 356 1102 418 1102 z "},"Ḯ":{"ha":378,"x_min":-108,"x_max":486,"o":"m 69 0 l 69 1028 l 310 1028 l 310 0 l 69 0 m 73 1369 l 182 1531 l 450 1531 l 306 1369 l 73 1369 m 22 1102 q -74 1132 -40 1102 q -108 1215 -108 1161 q -74 1300 -108 1270 q 22 1329 -40 1329 q 119 1300 85 1329 q 153 1215 153 1270 q 119 1132 153 1161 q 22 1102 85 1102 m 356 1102 q 260 1132 294 1102 q 226 1215 226 1161 q 260 1300 226 1270 q 356 1329 294 1329 q 452 1299 418 1329 q 486 1215 486 1269 q 452 1132 486 1161 q 356 1102 418 1102 z "},"İ":{"ha":378,"x_min":42,"x_max":336,"o":"m 69 0 l 69 1028 l 310 1028 l 310 0 l 69 0 m 189 1102 q 81 1131 119 1102 q 42 1215 42 1159 q 81 1300 42 1272 q 189 1329 119 1329 q 298 1301 259 1329 q 336 1215 336 1272 q 298 1131 336 1159 q 189 1102 259 1102 z "},"Ị":{"ha":378,"x_min":42,"x_max":336,"o":"m 69 0 l 69 1028 l 310 1028 l 310 0 l 69 0 m 189 -308 q 81 -279 119 -308 q 42 -194 42 -250 q 81 -109 42 -137 q 189 -80 119 -80 q 297 -109 258 -80 q 336 -194 336 -137 q 297 -279 336 -250 q 189 -308 258 -308 z "},"Ì":{"ha":378,"x_min":-61,"x_max":310,"o":"m 69 0 l 69 1028 l 310 1028 l 310 0 l 69 0 m 83 1104 l -61 1319 l 185 1319 l 294 1104 l 83 1104 z "},"Ỉ":{"ha":378,"x_min":44,"x_max":363,"o":"m 69 0 l 69 1028 l 310 1028 l 310 0 l 69 0 m 130 1104 q 152 1158 132 1140 q 203 1193 172 1177 q 226 1206 219 1201 q 233 1218 233 1212 q 217 1238 233 1231 q 166 1244 201 1244 q 104 1240 137 1244 q 44 1228 72 1235 l 44 1319 q 111 1332 69 1327 q 187 1336 152 1336 q 320 1313 278 1336 q 363 1239 363 1290 q 348 1198 363 1213 q 303 1165 333 1182 q 265 1136 278 1149 q 248 1104 251 1124 l 130 1104 z "},"Ȋ":{"ha":378,"x_min":-53,"x_max":431,"o":"m 69 0 l 69 1028 l 310 1028 l 310 0 l 69 0 m -53 1107 q 19 1264 -44 1209 q 189 1318 82 1318 q 359 1264 296 1318 q 431 1107 422 1209 l 288 1107 q 257 1179 281 1157 q 189 1201 233 1201 q 121 1179 144 1201 q 91 1107 97 1157 l -53 1107 z "},"Ī":{"ha":378,"x_min":-59,"x_max":438,"o":"m 69 0 l 69 1028 l 310 1028 l 310 0 l 69 0 m -59 1136 l -59 1289 l 438 1289 l 438 1136 l -59 1136 z "},"Į":{"ha":378,"x_min":11,"x_max":328,"o":"m 235 -217 q 328 -197 279 -217 l 328 -292 q 205 -314 269 -314 q 60 -275 108 -314 q 11 -165 11 -235 q 36 -75 11 -115 q 120 0 62 -35 l 69 0 l 69 1028 l 310 1028 l 310 0 q 181 -72 215 -35 q 146 -151 146 -108 q 235 -217 146 -217 z "},"Ĩ":{"ha":378,"x_min":-61,"x_max":440,"o":"m 69 0 l 69 1028 l 310 1028 l 310 0 l 69 0 m 303 1112 q 243 1119 271 1112 q 176 1142 215 1127 q 119 1161 142 1155 q 73 1167 97 1167 q 2 1155 33 1167 q -61 1115 -29 1142 l -61 1261 q -2 1301 -34 1288 q 75 1314 30 1314 q 135 1306 108 1314 q 201 1284 163 1299 q 258 1264 234 1271 q 306 1258 281 1258 q 377 1270 346 1258 q 440 1310 408 1283 l 440 1163 q 381 1124 413 1136 q 303 1112 349 1112 z "},"J":{"ha":378,"x_min":-31,"x_max":310,"o":"m -31 -138 q 47 21 26 -56 q 69 210 69 98 l 69 1028 l 310 1028 l 310 217 q 267 -24 309 85 q 128 -242 226 -133 l -31 -138 z "},"Ĵ":{"ha":378,"x_min":-45,"x_max":424,"o":"m -31 -138 q 47 21 26 -56 q 69 210 69 98 l 69 1028 l 310 1028 l 310 217 q 267 -24 309 85 q 128 -242 226 -133 l -31 -138 m 424 1104 l 263 1104 l 189 1233 l 115 1104 l -45 1104 l 88 1319 l 290 1319 l 424 1104 z "},"K":{"ha":841,"x_min":69,"x_max":886,"o":"m 628 0 l 380 415 l 310 415 l 310 0 l 69 0 l 69 1028 l 310 1028 l 310 635 l 382 635 l 610 1028 l 860 1028 l 572 531 l 886 0 l 628 0 z "},"Ķ":{"ha":841,"x_min":69,"x_max":886,"o":"m 628 0 l 380 415 l 310 415 l 310 0 l 69 0 l 69 1028 l 310 1028 l 310 635 l 382 635 l 610 1028 l 860 1028 l 572 531 l 886 0 l 628 0 m 440 -80 q 571 -192 571 -80 q 555 -275 571 -231 q 514 -352 538 -319 l 364 -352 q 405 -249 397 -290 q 334 -221 357 -243 q 310 -165 310 -199 q 342 -102 310 -124 q 440 -80 374 -80 z "},"L":{"ha":706,"x_min":69,"x_max":703,"o":"m 69 0 l 69 1028 l 310 1028 l 310 213 l 703 213 l 703 0 l 69 0 z "},"Ǉ":{"ha":1083,"x_min":69,"x_max":1015,"o":"m 69 0 l 69 1028 l 310 1028 l 310 213 l 703 213 l 703 0 l 69 0 m 675 -138 q 753 21 731 -56 q 774 210 774 98 l 774 1028 l 1015 1028 l 1015 217 q 973 -24 1015 85 q 833 -242 931 -133 l 675 -138 z "},"Ĺ":{"ha":706,"x_min":69,"x_max":703,"o":"m 69 0 l 69 1028 l 310 1028 l 310 213 l 703 213 l 703 0 l 69 0 m 88 1104 l 198 1319 l 444 1319 l 299 1104 l 88 1104 z "},"Ľ":{"ha":706,"x_min":69,"x_max":703,"o":"m 69 0 l 69 1028 l 310 1028 l 310 213 l 703 213 l 703 0 l 69 0 m 439 792 q 455 943 451 869 q 460 1122 460 1017 l 620 1122 q 570 792 620 915 l 439 792 z "},"Ļ":{"ha":706,"x_min":69,"x_max":703,"o":"m 69 0 l 69 1028 l 310 1028 l 310 213 l 703 213 l 703 0 l 69 0 m 385 -80 q 516 -192 516 -80 q 500 -275 516 -231 q 459 -352 483 -319 l 309 -352 q 350 -249 342 -290 q 279 -221 302 -243 q 256 -165 256 -199 q 288 -102 256 -124 q 385 -80 319 -80 z "},"Ŀ":{"ha":706,"x_min":69,"x_max":703,"o":"m 69 0 l 69 1028 l 310 1028 l 310 213 l 703 213 l 703 0 l 69 0 m 538 478 q 428 513 464 478 q 392 609 392 547 q 428 706 392 672 q 538 740 464 740 q 647 706 611 740 q 683 609 683 672 q 647 513 683 547 q 538 478 611 478 z "},"Ḷ":{"ha":706,"x_min":69,"x_max":703,"o":"m 69 0 l 69 1028 l 310 1028 l 310 213 l 703 213 l 703 0 l 69 0 m 385 -308 q 277 -279 316 -308 q 238 -194 238 -250 q 277 -109 238 -137 q 385 -80 316 -80 q 494 -109 455 -80 q 533 -194 533 -137 q 494 -279 533 -250 q 385 -308 455 -308 z "},"ǈ":{"ha":1065,"x_min":69,"x_max":1032,"o":"m 69 0 l 69 1028 l 310 1028 l 310 213 l 703 213 l 703 0 l 69 0 m 667 -225 q 744 -66 723 -143 q 766 124 766 11 l 766 762 l 1005 762 l 1005 134 q 964 -110 1005 -1 q 825 -329 923 -219 l 667 -225 m 885 855 q 776 889 812 855 q 740 985 740 922 q 776 1082 740 1048 q 885 1116 812 1116 q 995 1082 959 1116 q 1032 985 1032 1048 q 995 889 1032 922 q 885 855 959 855 z "},"Ḻ":{"ha":706,"x_min":69,"x_max":703,"o":"m 69 0 l 69 1028 l 310 1028 l 310 213 l 703 213 l 703 0 l 69 0 m 138 -263 l 138 -110 l 634 -110 l 634 -263 l 138 -263 z "},"Ł":{"ha":728,"x_min":-24,"x_max":726,"o":"m 333 213 l 726 213 l 726 0 l 92 0 l 92 428 l 50 406 l -24 551 l 92 613 l 92 1028 l 333 1028 l 333 740 l 494 824 l 568 678 l 333 554 l 333 213 z "},"M":{"ha":1185,"x_min":72,"x_max":1113,"o":"m 816 1028 l 1113 1028 l 1113 0 l 889 0 l 889 689 l 687 151 l 498 151 l 295 671 l 295 0 l 72 0 l 72 1028 l 368 1028 l 597 421 l 816 1028 z "},"Ṃ":{"ha":1185,"x_min":72,"x_max":1113,"o":"m 816 1028 l 1113 1028 l 1113 0 l 889 0 l 889 689 l 687 151 l 498 151 l 295 671 l 295 0 l 72 0 l 72 1028 l 368 1028 l 597 421 l 816 1028 m 608 -308 q 499 -279 538 -308 q 460 -194 460 -250 q 499 -109 460 -137 q 608 -80 538 -80 q 716 -109 677 -80 q 755 -194 755 -137 q 716 -279 755 -250 q 608 -308 677 -308 z "},"N":{"ha":946,"x_min":69,"x_max":877,"o":"m 652 1028 l 877 1028 l 877 0 l 637 0 l 294 625 l 294 0 l 69 0 l 69 1028 l 309 1028 l 652 403 l 652 1028 z "},"Ǌ":{"ha":1324,"x_min":69,"x_max":1256,"o":"m 652 1028 l 877 1028 l 877 0 l 637 0 l 294 625 l 294 0 l 69 0 l 69 1028 l 309 1028 l 652 403 l 652 1028 m 915 -138 q 993 21 972 -56 q 1015 210 1015 98 l 1015 1028 l 1256 1028 l 1256 217 q 1213 -24 1255 85 q 1074 -242 1172 -133 l 915 -138 z "},"Ń":{"ha":946,"x_min":69,"x_max":877,"o":"m 652 1028 l 877 1028 l 877 0 l 637 0 l 294 625 l 294 0 l 69 0 l 69 1028 l 309 1028 l 652 403 l 652 1028 m 367 1104 l 477 1319 l 723 1319 l 578 1104 l 367 1104 z "},"Ň":{"ha":946,"x_min":69,"x_max":877,"o":"m 652 1028 l 877 1028 l 877 0 l 637 0 l 294 625 l 294 0 l 69 0 l 69 1028 l 309 1028 l 652 403 l 652 1028 m 547 1319 l 708 1319 l 574 1104 l 372 1104 l 239 1319 l 399 1319 l 473 1190 l 547 1319 z "},"Ņ":{"ha":946,"x_min":69,"x_max":877,"o":"m 652 1028 l 877 1028 l 877 0 l 637 0 l 294 625 l 294 0 l 69 0 l 69 1028 l 309 1028 l 652 403 l 652 1028 m 473 -80 q 603 -192 603 -80 q 587 -275 603 -231 q 547 -352 571 -319 l 397 -352 q 438 -249 429 -290 q 366 -221 390 -243 q 343 -165 343 -199 q 375 -102 343 -124 q 473 -80 407 -80 z "},"Ṅ":{"ha":946,"x_min":69,"x_max":877,"o":"m 652 1028 l 877 1028 l 877 0 l 637 0 l 294 625 l 294 0 l 69 0 l 69 1028 l 309 1028 l 652 403 l 652 1028 m 473 1102 q 365 1131 403 1102 q 326 1215 326 1159 q 365 1300 326 1272 q 473 1329 403 1329 q 582 1301 543 1329 q 620 1215 620 1272 q 582 1131 620 1159 q 473 1102 543 1102 z "},"Ṇ":{"ha":946,"x_min":69,"x_max":877,"o":"m 652 1028 l 877 1028 l 877 0 l 637 0 l 294 625 l 294 0 l 69 0 l 69 1028 l 309 1028 l 652 403 l 652 1028 m 473 -308 q 365 -279 403 -308 q 326 -194 326 -250 q 365 -109 326 -137 q 473 -80 403 -80 q 581 -109 542 -80 q 620 -194 620 -137 q 581 -279 620 -250 q 473 -308 542 -308 z "},"Ŋ":{"ha":946,"x_min":69,"x_max":877,"o":"m 877 1028 l 877 158 q 860 -25 877 56 q 803 -181 842 -107 q 698 -329 765 -254 l 540 -225 q 606 -118 582 -169 q 641 -8 630 -67 l 294 625 l 294 0 l 69 0 l 69 1028 l 309 1028 l 652 403 l 652 1028 l 877 1028 z "},"ǋ":{"ha":1306,"x_min":69,"x_max":1272,"o":"m 652 1028 l 877 1028 l 877 0 l 637 0 l 294 625 l 294 0 l 69 0 l 69 1028 l 309 1028 l 652 403 l 652 1028 m 908 -225 q 985 -66 963 -143 q 1006 124 1006 11 l 1006 762 l 1245 762 l 1245 134 q 1204 -110 1245 -1 q 1065 -329 1163 -219 l 908 -225 m 1126 855 q 1016 889 1052 855 q 980 985 980 922 q 1016 1082 980 1048 q 1126 1116 1052 1116 q 1236 1082 1199 1116 q 1272 985 1272 1048 q 1236 889 1272 922 q 1126 855 1199 855 z "},"Ṉ":{"ha":946,"x_min":69,"x_max":877,"o":"m 652 1028 l 877 1028 l 877 0 l 637 0 l 294 625 l 294 0 l 69 0 l 69 1028 l 309 1028 l 652 403 l 652 1028 m 225 -263 l 225 -110 l 722 -110 l 722 -263 l 225 -263 z "},"Ñ":{"ha":946,"x_min":69,"x_max":877,"o":"m 652 1028 l 877 1028 l 877 0 l 637 0 l 294 625 l 294 0 l 69 0 l 69 1028 l 309 1028 l 652 403 l 652 1028 m 588 1112 q 527 1119 555 1112 q 460 1142 499 1127 q 403 1161 426 1155 q 357 1167 381 1167 q 286 1155 317 1167 q 223 1115 255 1142 l 223 1261 q 282 1301 250 1288 q 359 1314 314 1314 q 419 1306 392 1314 q 485 1284 447 1299 q 542 1264 518 1271 q 590 1258 565 1258 q 661 1270 630 1258 q 724 1310 692 1283 l 724 1163 q 665 1124 697 1136 q 588 1112 633 1112 z "},"O":{"ha":947,"x_min":42,"x_max":906,"o":"m 474 -14 q 245 41 342 -14 q 95 214 149 97 q 42 514 42 332 q 95 814 42 696 q 245 986 149 931 q 474 1042 342 1042 q 702 986 606 1042 q 852 814 799 931 q 906 514 906 696 q 852 214 906 332 q 702 41 799 97 q 474 -14 606 -14 m 474 187 q 574 218 534 187 q 636 320 615 249 q 657 509 657 391 q 636 705 657 632 q 574 809 615 778 q 474 841 534 841 q 373 810 413 841 q 311 708 333 779 q 290 519 290 637 q 311 323 290 396 q 373 218 333 250 q 474 187 413 187 z "},"Ó":{"ha":947,"x_min":42,"x_max":906,"o":"m 474 -14 q 245 41 342 -14 q 95 214 149 97 q 42 514 42 332 q 95 814 42 696 q 245 986 149 931 q 474 1042 342 1042 q 702 986 606 1042 q 852 814 799 931 q 906 514 906 696 q 852 214 906 332 q 702 41 799 97 q 474 -14 606 -14 m 474 187 q 574 218 534 187 q 636 320 615 249 q 657 509 657 391 q 636 705 657 632 q 574 809 615 778 q 474 841 534 841 q 373 810 413 841 q 311 708 333 779 q 290 519 290 637 q 311 323 290 396 q 373 218 333 250 q 474 187 413 187 m 368 1104 l 478 1319 l 724 1319 l 579 1104 l 368 1104 z "},"Ŏ":{"ha":947,"x_min":42,"x_max":906,"o":"m 474 -14 q 245 41 342 -14 q 95 214 149 97 q 42 514 42 332 q 95 814 42 696 q 245 986 149 931 q 474 1042 342 1042 q 702 986 606 1042 q 852 814 799 931 q 906 514 906 696 q 852 214 906 332 q 702 41 799 97 q 474 -14 606 -14 m 474 187 q 574 218 534 187 q 636 320 615 249 q 657 509 657 391 q 636 705 657 632 q 574 809 615 778 q 474 841 534 841 q 373 810 413 841 q 311 708 333 779 q 290 519 290 637 q 311 323 290 396 q 373 218 333 250 q 474 187 413 187 m 474 1106 q 304 1160 367 1106 q 231 1317 241 1215 l 376 1317 q 406 1244 382 1267 q 474 1222 430 1222 q 542 1244 519 1222 q 572 1317 566 1267 l 716 1317 q 644 1160 707 1215 q 474 1106 581 1106 z "},"Ô":{"ha":947,"x_min":42,"x_max":906,"o":"m 474 -14 q 245 41 342 -14 q 95 214 149 97 q 42 514 42 332 q 95 814 42 696 q 245 986 149 931 q 474 1042 342 1042 q 702 986 606 1042 q 852 814 799 931 q 906 514 906 696 q 852 214 906 332 q 702 41 799 97 q 474 -14 606 -14 m 474 187 q 574 218 534 187 q 636 320 615 249 q 657 509 657 391 q 636 705 657 632 q 574 809 615 778 q 474 841 534 841 q 373 810 413 841 q 311 708 333 779 q 290 519 290 637 q 311 323 290 396 q 373 218 333 250 q 474 187 413 187 m 708 1104 l 548 1104 l 474 1233 l 399 1104 l 240 1104 l 373 1319 l 574 1319 l 708 1104 z "},"Ố":{"ha":947,"x_min":42,"x_max":906,"o":"m 474 -14 q 245 41 342 -14 q 95 214 149 97 q 42 514 42 332 q 95 814 42 696 q 245 986 149 931 q 474 1042 342 1042 q 702 986 606 1042 q 852 814 799 931 q 906 514 906 696 q 852 214 906 332 q 702 41 799 97 q 474 -14 606 -14 m 474 187 q 574 218 534 187 q 636 320 615 249 q 657 509 657 391 q 636 705 657 632 q 574 809 615 778 q 474 841 534 841 q 373 810 413 841 q 311 708 333 779 q 290 519 290 637 q 311 323 290 396 q 373 218 333 250 q 474 187 413 187 m 701 1433 l 849 1433 l 750 1266 l 637 1266 l 701 1433 m 373 1293 l 574 1293 l 708 1104 l 548 1104 l 474 1219 l 399 1104 l 240 1104 l 373 1293 z "},"Ộ":{"ha":947,"x_min":42,"x_max":906,"o":"m 474 -14 q 245 41 342 -14 q 95 214 149 97 q 42 514 42 332 q 95 814 42 696 q 245 986 149 931 q 474 1042 342 1042 q 702 986 606 1042 q 852 814 799 931 q 906 514 906 696 q 852 214 906 332 q 702 41 799 97 q 474 -14 606 -14 m 474 187 q 574 218 534 187 q 636 320 615 249 q 657 509 657 391 q 636 705 657 632 q 574 809 615 778 q 474 841 534 841 q 373 810 413 841 q 311 708 333 779 q 290 519 290 637 q 311 323 290 396 q 373 218 333 250 q 474 187 413 187 m 474 -308 q 365 -279 404 -308 q 326 -194 326 -250 q 365 -109 326 -137 q 474 -80 404 -80 q 582 -109 543 -80 q 621 -194 621 -137 q 582 -279 621 -250 q 474 -308 543 -308 m 708 1104 l 548 1104 l 474 1233 l 399 1104 l 240 1104 l 373 1319 l 574 1319 l 708 1104 z "},"Ồ":{"ha":947,"x_min":42,"x_max":906,"o":"m 474 -14 q 245 41 342 -14 q 95 214 149 97 q 42 514 42 332 q 95 814 42 696 q 245 986 149 931 q 474 1042 342 1042 q 702 986 606 1042 q 852 814 799 931 q 906 514 906 696 q 852 214 906 332 q 702 41 799 97 q 474 -14 606 -14 m 474 187 q 574 218 534 187 q 636 320 615 249 q 657 509 657 391 q 636 705 657 632 q 574 809 615 778 q 474 841 534 841 q 373 810 413 841 q 311 708 333 779 q 290 519 290 637 q 311 323 290 396 q 373 218 333 250 q 474 187 413 187 m 776 1266 l 663 1266 l 564 1433 l 712 1433 l 776 1266 m 373 1293 l 574 1293 l 708 1104 l 548 1104 l 474 1219 l 399 1104 l 240 1104 l 373 1293 z "},"Ổ":{"ha":947,"x_min":42,"x_max":906,"o":"m 474 -14 q 245 41 342 -14 q 95 214 149 97 q 42 514 42 332 q 95 814 42 696 q 245 986 149 931 q 474 1042 342 1042 q 702 986 606 1042 q 852 814 799 931 q 906 514 906 696 q 852 214 906 332 q 702 41 799 97 q 474 -14 606 -14 m 474 187 q 574 218 534 187 q 636 320 615 249 q 657 509 657 391 q 636 705 657 632 q 574 809 615 778 q 474 841 534 841 q 373 810 413 841 q 311 708 333 779 q 290 519 290 637 q 311 323 290 396 q 373 218 333 250 q 474 187 413 187 m 693 1469 q 826 1449 784 1469 q 869 1384 869 1428 q 854 1348 869 1361 q 810 1319 839 1334 q 771 1294 785 1306 q 755 1266 758 1283 l 637 1266 q 658 1313 639 1297 q 709 1344 677 1329 q 732 1356 725 1351 q 740 1367 740 1360 q 724 1384 740 1378 q 673 1389 708 1389 q 551 1376 609 1389 l 551 1453 q 618 1465 576 1460 q 693 1469 659 1469 m 373 1293 l 574 1293 l 708 1104 l 548 1104 l 474 1219 l 399 1104 l 240 1104 l 373 1293 z "},"Ỗ":{"ha":947,"x_min":42,"x_max":906,"o":"m 474 -14 q 245 41 342 -14 q 95 214 149 97 q 42 514 42 332 q 95 814 42 696 q 245 986 149 931 q 474 1042 342 1042 q 702 986 606 1042 q 852 814 799 931 q 906 514 906 696 q 852 214 906 332 q 702 41 799 97 q 474 -14 606 -14 m 474 187 q 574 218 534 187 q 636 320 615 249 q 657 509 657 391 q 636 705 657 632 q 574 809 615 778 q 474 841 534 841 q 373 810 413 841 q 311 708 333 779 q 290 519 290 637 q 311 323 290 396 q 373 218 333 250 q 474 187 413 187 m 572 1427 q 640 1438 610 1427 q 708 1474 671 1448 l 708 1366 q 646 1332 677 1340 q 569 1323 615 1323 q 520 1328 543 1323 q 461 1345 497 1334 q 413 1359 432 1355 q 376 1364 394 1364 q 307 1353 337 1364 q 240 1317 277 1343 l 240 1426 q 302 1460 272 1451 q 378 1469 333 1469 q 429 1464 405 1469 q 487 1447 453 1458 q 533 1432 513 1437 q 572 1427 553 1427 m 373 1293 l 574 1293 l 708 1104 l 548 1104 l 474 1219 l 399 1104 l 240 1104 l 373 1293 z "},"Ȍ":{"ha":947,"x_min":42,"x_max":906,"o":"m 474 -14 q 245 41 342 -14 q 95 214 149 97 q 42 514 42 332 q 95 814 42 696 q 245 986 149 931 q 474 1042 342 1042 q 702 986 606 1042 q 852 814 799 931 q 906 514 906 696 q 852 214 906 332 q 702 41 799 97 q 474 -14 606 -14 m 474 187 q 574 218 534 187 q 636 320 615 249 q 657 509 657 391 q 636 705 657 632 q 574 809 615 778 q 474 841 534 841 q 373 810 413 841 q 311 708 333 779 q 290 519 290 637 q 311 323 290 396 q 373 218 333 250 q 474 187 413 187 m 241 1104 l 151 1319 l 344 1319 l 424 1104 l 241 1104 m 524 1104 l 433 1319 l 626 1319 l 706 1104 l 524 1104 z "},"Ö":{"ha":947,"x_min":42,"x_max":906,"o":"m 474 -14 q 245 41 342 -14 q 95 214 149 97 q 42 514 42 332 q 95 814 42 696 q 245 986 149 931 q 474 1042 342 1042 q 702 986 606 1042 q 852 814 799 931 q 906 514 906 696 q 852 214 906 332 q 702 41 799 97 q 474 -14 606 -14 m 474 187 q 574 218 534 187 q 636 320 615 249 q 657 509 657 391 q 636 705 657 632 q 574 809 615 778 q 474 841 534 841 q 373 810 413 841 q 311 708 333 779 q 290 519 290 637 q 311 323 290 396 q 373 218 333 250 q 474 187 413 187 m 307 1102 q 210 1132 244 1102 q 176 1215 176 1161 q 210 1300 176 1270 q 307 1329 244 1329 q 403 1300 369 1329 q 438 1215 438 1270 q 403 1132 438 1161 q 307 1102 369 1102 m 641 1102 q 544 1132 578 1102 q 510 1215 510 1161 q 544 1300 510 1270 q 641 1329 578 1329 q 737 1299 703 1329 q 771 1215 771 1269 q 737 1132 771 1161 q 641 1102 703 1102 z "},"Ȫ":{"ha":947,"x_min":42,"x_max":906,"o":"m 474 -14 q 245 41 342 -14 q 95 214 149 97 q 42 514 42 332 q 95 814 42 696 q 245 986 149 931 q 474 1042 342 1042 q 702 986 606 1042 q 852 814 799 931 q 906 514 906 696 q 852 214 906 332 q 702 41 799 97 q 474 -14 606 -14 m 474 187 q 574 218 534 187 q 636 320 615 249 q 657 509 657 391 q 636 705 657 632 q 574 809 615 778 q 474 841 534 841 q 373 810 413 841 q 311 708 333 779 q 290 519 290 637 q 311 323 290 396 q 373 218 333 250 q 474 187 413 187 m 307 1102 q 210 1132 244 1102 q 176 1215 176 1161 q 210 1300 176 1270 q 307 1329 244 1329 q 403 1300 369 1329 q 438 1215 438 1270 q 403 1132 438 1161 q 307 1102 369 1102 m 641 1102 q 544 1132 578 1102 q 510 1215 510 1161 q 544 1300 510 1270 q 641 1329 578 1329 q 737 1299 703 1329 q 771 1215 771 1269 q 737 1132 771 1161 q 641 1102 703 1102 m 226 1401 l 226 1554 l 722 1554 l 722 1401 l 226 1401 z "},"Ȱ":{"ha":947,"x_min":42,"x_max":906,"o":"m 474 -14 q 245 41 342 -14 q 95 214 149 97 q 42 514 42 332 q 95 814 42 696 q 245 986 149 931 q 474 1042 342 1042 q 702 986 606 1042 q 852 814 799 931 q 906 514 906 696 q 852 214 906 332 q 702 41 799 97 q 474 -14 606 -14 m 474 187 q 574 218 534 187 q 636 320 615 249 q 657 509 657 391 q 636 705 657 632 q 574 809 615 778 q 474 841 534 841 q 373 810 413 841 q 311 708 333 779 q 290 519 290 637 q 311 323 290 396 q 373 218 333 250 q 474 187 413 187 m 474 1102 q 365 1131 404 1102 q 326 1215 326 1159 q 365 1300 326 1272 q 474 1329 404 1329 q 582 1301 544 1329 q 621 1215 621 1272 q 582 1131 621 1159 q 474 1102 544 1102 m 226 1401 l 226 1554 l 722 1554 l 722 1401 l 226 1401 z "},"Ọ":{"ha":947,"x_min":42,"x_max":906,"o":"m 474 -14 q 245 41 342 -14 q 95 214 149 97 q 42 514 42 332 q 95 814 42 696 q 245 986 149 931 q 474 1042 342 1042 q 702 986 606 1042 q 852 814 799 931 q 906 514 906 696 q 852 214 906 332 q 702 41 799 97 q 474 -14 606 -14 m 474 187 q 574 218 534 187 q 636 320 615 249 q 657 509 657 391 q 636 705 657 632 q 574 809 615 778 q 474 841 534 841 q 373 810 413 841 q 311 708 333 779 q 290 519 290 637 q 311 323 290 396 q 373 218 333 250 q 474 187 413 187 m 474 -308 q 365 -279 404 -308 q 326 -194 326 -250 q 365 -109 326 -137 q 474 -80 404 -80 q 582 -109 543 -80 q 621 -194 621 -137 q 582 -279 621 -250 q 474 -308 543 -308 z "},"Ò":{"ha":947,"x_min":42,"x_max":906,"o":"m 474 -14 q 245 41 342 -14 q 95 214 149 97 q 42 514 42 332 q 95 814 42 696 q 245 986 149 931 q 474 1042 342 1042 q 702 986 606 1042 q 852 814 799 931 q 906 514 906 696 q 852 214 906 332 q 702 41 799 97 q 474 -14 606 -14 m 474 187 q 574 218 534 187 q 636 320 615 249 q 657 509 657 391 q 636 705 657 632 q 574 809 615 778 q 474 841 534 841 q 373 810 413 841 q 311 708 333 779 q 290 519 290 637 q 311 323 290 396 q 373 218 333 250 q 474 187 413 187 m 368 1104 l 224 1319 l 470 1319 l 579 1104 l 368 1104 z "},"Ỏ":{"ha":947,"x_min":42,"x_max":906,"o":"m 474 -14 q 245 41 342 -14 q 95 214 149 97 q 42 514 42 332 q 95 814 42 696 q 245 986 149 931 q 474 1042 342 1042 q 702 986 606 1042 q 852 814 799 931 q 906 514 906 696 q 852 214 906 332 q 702 41 799 97 q 474 -14 606 -14 m 474 187 q 574 218 534 187 q 636 320 615 249 q 657 509 657 391 q 636 705 657 632 q 574 809 615 778 q 474 841 534 841 q 373 810 413 841 q 311 708 333 779 q 290 519 290 637 q 311 323 290 396 q 373 218 333 250 q 474 187 413 187 m 415 1104 q 436 1158 417 1140 q 488 1193 456 1177 q 511 1206 503 1201 q 518 1218 518 1212 q 502 1238 518 1231 q 451 1244 486 1244 q 389 1240 422 1244 q 328 1228 356 1235 l 328 1319 q 395 1332 354 1327 q 472 1336 437 1336 q 605 1313 563 1336 q 647 1239 647 1290 q 632 1198 647 1213 q 588 1165 617 1182 q 549 1136 563 1149 q 533 1104 536 1124 l 415 1104 z "},"Ơ":{"ha":947,"x_min":42,"x_max":917,"o":"m 917 1122 q 881 990 917 1038 q 778 925 844 942 q 873 758 840 861 q 906 514 906 656 q 791 115 906 244 q 474 -14 677 -14 q 156 115 270 -14 q 42 514 42 244 q 95 814 42 696 q 245 986 149 931 q 474 1042 342 1042 q 524 1039 499 1042 q 570 1034 549 1037 q 608 1029 589 1031 q 645 1027 627 1027 q 723 1052 697 1027 q 749 1136 749 1077 q 738 1233 749 1183 l 903 1233 q 917 1122 917 1189 m 474 187 q 574 218 534 187 q 636 320 615 249 q 657 509 657 391 q 636 705 657 632 q 574 809 615 778 q 474 841 534 841 q 373 810 413 841 q 311 708 333 779 q 290 519 290 637 q 311 323 290 396 q 373 218 333 250 q 474 187 413 187 z "},"Ớ":{"ha":947,"x_min":42,"x_max":917,"o":"m 917 1122 q 881 990 917 1038 q 778 925 844 942 q 873 758 840 861 q 906 514 906 656 q 791 115 906 244 q 474 -14 677 -14 q 156 115 270 -14 q 42 514 42 244 q 95 814 42 696 q 245 986 149 931 q 474 1042 342 1042 q 524 1039 499 1042 q 570 1034 549 1037 q 608 1029 589 1031 q 645 1027 627 1027 q 723 1052 697 1027 q 749 1136 749 1077 q 738 1233 749 1183 l 903 1233 q 917 1122 917 1189 m 474 187 q 574 218 534 187 q 636 320 615 249 q 657 509 657 391 q 636 705 657 632 q 574 809 615 778 q 474 841 534 841 q 373 810 413 841 q 311 708 333 779 q 290 519 290 637 q 311 323 290 396 q 373 218 333 250 q 474 187 413 187 m 368 1104 l 478 1319 l 724 1319 l 579 1104 l 368 1104 z "},"Ợ":{"ha":947,"x_min":42,"x_max":917,"o":"m 917 1122 q 881 990 917 1038 q 778 925 844 942 q 873 758 840 861 q 906 514 906 656 q 791 115 906 244 q 474 -14 677 -14 q 156 115 270 -14 q 42 514 42 244 q 95 814 42 696 q 245 986 149 931 q 474 1042 342 1042 q 524 1039 499 1042 q 570 1034 549 1037 q 608 1029 589 1031 q 645 1027 627 1027 q 723 1052 697 1027 q 749 1136 749 1077 q 738 1233 749 1183 l 903 1233 q 917 1122 917 1189 m 474 187 q 574 218 534 187 q 636 320 615 249 q 657 509 657 391 q 636 705 657 632 q 574 809 615 778 q 474 841 534 841 q 373 810 413 841 q 311 708 333 779 q 290 519 290 637 q 311 323 290 396 q 373 218 333 250 q 474 187 413 187 m 474 -308 q 365 -279 404 -308 q 326 -194 326 -250 q 365 -109 326 -137 q 474 -80 404 -80 q 582 -109 543 -80 q 621 -194 621 -137 q 582 -279 621 -250 q 474 -308 543 -308 z "},"Ờ":{"ha":947,"x_min":42,"x_max":917,"o":"m 917 1122 q 881 990 917 1038 q 778 925 844 942 q 873 758 840 861 q 906 514 906 656 q 791 115 906 244 q 474 -14 677 -14 q 156 115 270 -14 q 42 514 42 244 q 95 814 42 696 q 245 986 149 931 q 474 1042 342 1042 q 524 1039 499 1042 q 570 1034 549 1037 q 608 1029 589 1031 q 645 1027 627 1027 q 723 1052 697 1027 q 749 1136 749 1077 q 738 1233 749 1183 l 903 1233 q 917 1122 917 1189 m 474 187 q 574 218 534 187 q 636 320 615 249 q 657 509 657 391 q 636 705 657 632 q 574 809 615 778 q 474 841 534 841 q 373 810 413 841 q 311 708 333 779 q 290 519 290 637 q 311 323 290 396 q 373 218 333 250 q 474 187 413 187 m 368 1104 l 224 1319 l 470 1319 l 579 1104 l 368 1104 z "},"Ở":{"ha":947,"x_min":42,"x_max":917,"o":"m 917 1122 q 881 990 917 1038 q 778 925 844 942 q 873 758 840 861 q 906 514 906 656 q 791 115 906 244 q 474 -14 677 -14 q 156 115 270 -14 q 42 514 42 244 q 95 814 42 696 q 245 986 149 931 q 474 1042 342 1042 q 524 1039 499 1042 q 570 1034 549 1037 q 608 1029 589 1031 q 645 1027 627 1027 q 723 1052 697 1027 q 749 1136 749 1077 q 738 1233 749 1183 l 903 1233 q 917 1122 917 1189 m 474 187 q 574 218 534 187 q 636 320 615 249 q 657 509 657 391 q 636 705 657 632 q 574 809 615 778 q 474 841 534 841 q 373 810 413 841 q 311 708 333 779 q 290 519 290 637 q 311 323 290 396 q 373 218 333 250 q 474 187 413 187 m 415 1104 q 436 1158 417 1140 q 488 1193 456 1177 q 511 1206 503 1201 q 518 1218 518 1212 q 502 1238 518 1231 q 451 1244 486 1244 q 389 1240 422 1244 q 328 1228 356 1235 l 328 1319 q 395 1332 354 1327 q 472 1336 437 1336 q 605 1313 563 1336 q 647 1239 647 1290 q 632 1198 647 1213 q 588 1165 617 1182 q 549 1136 563 1149 q 533 1104 536 1124 l 415 1104 z "},"Ỡ":{"ha":947,"x_min":42,"x_max":917,"o":"m 578 1112 q 522 1119 548 1112 q 462 1142 497 1127 q 410 1161 431 1155 q 368 1167 390 1167 q 303 1155 331 1167 q 246 1115 276 1142 l 246 1261 q 300 1301 270 1288 q 370 1314 329 1314 q 426 1306 400 1314 q 485 1283 451 1299 q 537 1264 516 1270 q 579 1258 558 1258 q 644 1270 616 1258 q 701 1310 672 1283 l 701 1163 q 648 1124 677 1136 q 578 1112 619 1112 m 917 1122 q 881 990 917 1038 q 778 925 844 942 q 873 758 840 861 q 906 514 906 656 q 791 115 906 244 q 474 -14 677 -14 q 156 115 270 -14 q 42 514 42 244 q 95 814 42 696 q 245 986 149 931 q 474 1042 342 1042 q 524 1039 499 1042 q 570 1034 549 1037 q 608 1029 589 1031 q 645 1027 627 1027 q 723 1052 697 1027 q 749 1136 749 1077 q 738 1233 749 1183 l 903 1233 q 917 1122 917 1189 m 474 187 q 574 218 534 187 q 636 320 615 249 q 657 509 657 391 q 636 705 657 632 q 574 809 615 778 q 474 841 534 841 q 373 810 413 841 q 311 708 333 779 q 290 519 290 637 q 311 323 290 396 q 373 218 333 250 q 474 187 413 187 z "},"Ő":{"ha":947,"x_min":42,"x_max":906,"o":"m 474 -14 q 245 41 342 -14 q 95 214 149 97 q 42 514 42 332 q 95 814 42 696 q 245 986 149 931 q 474 1042 342 1042 q 702 986 606 1042 q 852 814 799 931 q 906 514 906 696 q 852 214 906 332 q 702 41 799 97 q 474 -14 606 -14 m 474 187 q 574 218 534 187 q 636 320 615 249 q 657 509 657 391 q 636 705 657 632 q 574 809 615 778 q 474 841 534 841 q 373 810 413 841 q 311 708 333 779 q 290 519 290 637 q 311 323 290 396 q 373 218 333 250 q 474 187 413 187 m 241 1104 l 322 1319 l 514 1319 l 424 1104 l 241 1104 m 524 1104 l 604 1319 l 797 1319 l 706 1104 l 524 1104 z "},"Ȏ":{"ha":947,"x_min":42,"x_max":906,"o":"m 474 -14 q 245 41 342 -14 q 95 214 149 97 q 42 514 42 332 q 95 814 42 696 q 245 986 149 931 q 474 1042 342 1042 q 702 986 606 1042 q 852 814 799 931 q 906 514 906 696 q 852 214 906 332 q 702 41 799 97 q 474 -14 606 -14 m 474 187 q 574 218 534 187 q 636 320 615 249 q 657 509 657 391 q 636 705 657 632 q 574 809 615 778 q 474 841 534 841 q 373 810 413 841 q 311 708 333 779 q 290 519 290 637 q 311 323 290 396 q 373 218 333 250 q 474 187 413 187 m 231 1107 q 304 1264 241 1209 q 474 1318 367 1318 q 644 1264 581 1318 q 716 1107 707 1209 l 572 1107 q 542 1179 565 1157 q 474 1201 518 1201 q 406 1179 429 1201 q 376 1107 382 1157 l 231 1107 z "},"Ō":{"ha":947,"x_min":42,"x_max":906,"o":"m 474 -14 q 245 41 342 -14 q 95 214 149 97 q 42 514 42 332 q 95 814 42 696 q 245 986 149 931 q 474 1042 342 1042 q 702 986 606 1042 q 852 814 799 931 q 906 514 906 696 q 852 214 906 332 q 702 41 799 97 q 474 -14 606 -14 m 474 187 q 574 218 534 187 q 636 320 615 249 q 657 509 657 391 q 636 705 657 632 q 574 809 615 778 q 474 841 534 841 q 373 810 413 841 q 311 708 333 779 q 290 519 290 637 q 311 323 290 396 q 373 218 333 250 q 474 187 413 187 m 226 1136 l 226 1289 l 722 1289 l 722 1136 l 226 1136 z "},"Ṓ":{"ha":947,"x_min":42,"x_max":906,"o":"m 474 -14 q 245 41 342 -14 q 95 214 149 97 q 42 514 42 332 q 95 814 42 696 q 245 986 149 931 q 474 1042 342 1042 q 702 986 606 1042 q 852 814 799 931 q 906 514 906 696 q 852 214 906 332 q 702 41 799 97 q 474 -14 606 -14 m 474 187 q 574 218 534 187 q 636 320 615 249 q 657 509 657 391 q 636 705 657 632 q 574 809 615 778 q 474 841 534 841 q 373 810 413 841 q 311 708 333 779 q 290 519 290 637 q 311 323 290 396 q 373 218 333 250 q 474 187 413 187 m 358 1369 l 467 1531 l 735 1531 l 590 1369 l 358 1369 m 226 1136 l 226 1289 l 722 1289 l 722 1136 l 226 1136 z "},"Ṑ":{"ha":947,"x_min":42,"x_max":906,"o":"m 474 -14 q 245 41 342 -14 q 95 214 149 97 q 42 514 42 332 q 95 814 42 696 q 245 986 149 931 q 474 1042 342 1042 q 702 986 606 1042 q 852 814 799 931 q 906 514 906 696 q 852 214 906 332 q 702 41 799 97 q 474 -14 606 -14 m 474 187 q 574 218 534 187 q 636 320 615 249 q 657 509 657 391 q 636 705 657 632 q 574 809 615 778 q 474 841 534 841 q 373 810 413 841 q 311 708 333 779 q 290 519 290 637 q 311 323 290 396 q 373 218 333 250 q 474 187 413 187 m 358 1369 l 213 1531 l 481 1531 l 590 1369 l 358 1369 m 226 1136 l 226 1289 l 722 1289 l 722 1136 l 226 1136 z "},"Ǫ":{"ha":947,"x_min":42,"x_max":906,"o":"m 474 1042 q 702 986 606 1042 q 852 814 799 931 q 906 514 906 696 q 834 178 906 299 q 644 13 763 58 q 504 -64 546 -24 q 462 -151 462 -103 q 552 -217 462 -217 q 644 -197 595 -217 l 644 -292 q 521 -314 585 -314 q 376 -275 424 -314 q 327 -165 327 -235 q 349 -81 327 -119 q 419 -12 371 -44 q 141 133 241 4 q 42 514 42 263 q 95 814 42 696 q 245 986 149 931 q 474 1042 342 1042 m 474 187 q 574 218 534 187 q 636 320 615 249 q 657 509 657 391 q 636 705 657 632 q 574 809 615 778 q 474 841 534 841 q 373 810 413 841 q 311 708 333 779 q 290 519 290 637 q 311 323 290 396 q 373 218 333 250 q 474 187 413 187 z "},"Ø":{"ha":947,"x_min":42,"x_max":906,"o":"m 802 898 q 906 514 906 764 q 852 214 906 332 q 702 41 799 97 q 474 -14 606 -14 q 242 43 337 -14 l 188 -39 l 81 33 l 145 130 q 42 514 42 264 q 95 814 42 696 q 245 986 149 931 q 474 1042 342 1042 q 705 985 610 1042 l 759 1067 l 866 995 l 802 898 m 290 519 q 301 368 290 428 l 585 801 q 474 841 544 841 q 373 810 413 841 q 311 708 333 779 q 290 519 290 637 m 474 187 q 574 218 534 187 q 636 320 615 249 q 657 509 657 391 q 646 660 657 599 l 363 227 q 474 187 403 187 z "},"Ǿ":{"ha":947,"x_min":42,"x_max":906,"o":"m 802 898 q 906 514 906 764 q 852 214 906 332 q 702 41 799 97 q 474 -14 606 -14 q 242 43 337 -14 l 188 -39 l 81 33 l 145 130 q 42 514 42 264 q 95 814 42 696 q 245 986 149 931 q 474 1042 342 1042 q 705 985 610 1042 l 759 1067 l 866 995 l 802 898 m 290 519 q 301 368 290 428 l 585 801 q 474 841 544 841 q 373 810 413 841 q 311 708 333 779 q 290 519 290 637 m 474 187 q 574 218 534 187 q 636 320 615 249 q 657 509 657 391 q 646 660 657 599 l 363 227 q 474 187 403 187 m 369 1104 l 479 1319 l 725 1319 l 581 1104 l 369 1104 z "},"Õ":{"ha":947,"x_min":42,"x_max":906,"o":"m 474 -14 q 245 41 342 -14 q 95 214 149 97 q 42 514 42 332 q 95 814 42 696 q 245 986 149 931 q 474 1042 342 1042 q 702 986 606 1042 q 852 814 799 931 q 906 514 906 696 q 852 214 906 332 q 702 41 799 97 q 474 -14 606 -14 m 474 187 q 574 218 534 187 q 636 320 615 249 q 657 509 657 391 q 636 705 657 632 q 574 809 615 778 q 474 841 534 841 q 373 810 413 841 q 311 708 333 779 q 290 519 290 637 q 311 323 290 396 q 373 218 333 250 q 474 187 413 187 m 588 1112 q 527 1119 556 1112 q 461 1142 499 1127 q 404 1161 426 1155 q 358 1167 382 1167 q 286 1155 317 1167 q 224 1115 256 1142 l 224 1261 q 283 1301 251 1288 q 360 1314 315 1314 q 420 1306 392 1314 q 486 1284 447 1299 q 542 1264 519 1271 q 590 1258 566 1258 q 661 1270 631 1258 q 724 1310 692 1283 l 724 1163 q 666 1124 698 1136 q 588 1112 633 1112 z "},"Ṍ":{"ha":947,"x_min":42,"x_max":906,"o":"m 474 -14 q 245 41 342 -14 q 95 214 149 97 q 42 514 42 332 q 95 814 42 696 q 245 986 149 931 q 474 1042 342 1042 q 702 986 606 1042 q 852 814 799 931 q 906 514 906 696 q 852 214 906 332 q 702 41 799 97 q 474 -14 606 -14 m 474 187 q 574 218 534 187 q 636 320 615 249 q 657 509 657 391 q 636 705 657 632 q 574 809 615 778 q 474 841 534 841 q 373 810 413 841 q 311 708 333 779 q 290 519 290 637 q 311 323 290 396 q 373 218 333 250 q 474 187 413 187 m 358 1369 l 467 1531 l 735 1531 l 590 1369 l 358 1369 m 588 1112 q 527 1119 556 1112 q 461 1142 499 1127 q 404 1161 426 1155 q 358 1167 382 1167 q 286 1155 317 1167 q 224 1115 256 1142 l 224 1261 q 283 1301 251 1288 q 360 1314 315 1314 q 420 1306 392 1314 q 486 1284 447 1299 q 542 1264 519 1271 q 590 1258 566 1258 q 661 1270 631 1258 q 724 1310 692 1283 l 724 1163 q 666 1124 698 1136 q 588 1112 633 1112 z "},"Ṏ":{"ha":947,"x_min":42,"x_max":906,"o":"m 474 -14 q 245 41 342 -14 q 95 214 149 97 q 42 514 42 332 q 95 814 42 696 q 245 986 149 931 q 474 1042 342 1042 q 702 986 606 1042 q 852 814 799 931 q 906 514 906 696 q 852 214 906 332 q 702 41 799 97 q 474 -14 606 -14 m 474 187 q 574 218 534 187 q 636 320 615 249 q 657 509 657 391 q 636 705 657 632 q 574 809 615 778 q 474 841 534 841 q 373 810 413 841 q 311 708 333 779 q 290 519 290 637 q 311 323 290 396 q 373 218 333 250 q 474 187 413 187 m 588 1112 q 527 1119 556 1112 q 461 1142 499 1127 q 404 1161 426 1155 q 358 1167 382 1167 q 286 1155 317 1167 q 224 1115 256 1142 l 224 1261 q 283 1301 251 1288 q 360 1314 315 1314 q 420 1306 392 1314 q 486 1284 447 1299 q 542 1264 519 1271 q 590 1258 566 1258 q 661 1270 631 1258 q 724 1310 692 1283 l 724 1163 q 666 1124 698 1136 q 588 1112 633 1112 m 307 1367 q 210 1397 244 1367 q 176 1481 176 1426 q 210 1565 176 1535 q 307 1594 244 1594 q 403 1565 369 1594 q 438 1481 438 1535 q 403 1397 438 1426 q 307 1367 369 1367 m 641 1367 q 544 1397 578 1367 q 510 1481 510 1426 q 544 1565 510 1535 q 641 1594 578 1594 q 737 1565 703 1594 q 771 1481 771 1535 q 737 1397 771 1426 q 641 1367 703 1367 z "},"Ȭ":{"ha":947,"x_min":42,"x_max":906,"o":"m 474 -14 q 245 41 342 -14 q 95 214 149 97 q 42 514 42 332 q 95 814 42 696 q 245 986 149 931 q 474 1042 342 1042 q 702 986 606 1042 q 852 814 799 931 q 906 514 906 696 q 852 214 906 332 q 702 41 799 97 q 474 -14 606 -14 m 474 187 q 574 218 534 187 q 636 320 615 249 q 657 509 657 391 q 636 705 657 632 q 574 809 615 778 q 474 841 534 841 q 373 810 413 841 q 311 708 333 779 q 290 519 290 637 q 311 323 290 396 q 373 218 333 250 q 474 187 413 187 m 588 1112 q 527 1119 556 1112 q 461 1142 499 1127 q 404 1161 426 1155 q 358 1167 382 1167 q 286 1155 317 1167 q 224 1115 256 1142 l 224 1261 q 283 1301 251 1288 q 360 1314 315 1314 q 420 1306 392 1314 q 486 1284 447 1299 q 542 1264 519 1271 q 590 1258 566 1258 q 661 1270 631 1258 q 724 1310 692 1283 l 724 1163 q 666 1124 698 1136 q 588 1112 633 1112 m 226 1401 l 226 1554 l 722 1554 l 722 1401 l 226 1401 z "},"Œ":{"ha":1274,"x_min":42,"x_max":1237,"o":"m 1237 206 l 1237 0 l 748 0 q 655 -3 710 0 q 608 -6 642 -4 q 550 -7 575 -7 q 169 121 297 -7 q 42 514 42 249 q 176 907 42 778 q 559 1035 310 1035 q 660 1031 594 1035 q 700 1029 672 1031 q 747 1028 728 1028 l 1230 1028 l 1230 822 l 831 822 l 831 628 l 1159 628 l 1159 422 l 831 422 l 831 206 l 1237 206 m 594 831 q 515 834 550 834 q 392 803 441 834 q 316 702 342 773 q 290 514 290 632 q 317 324 290 395 q 393 223 343 253 q 517 193 442 193 q 594 195 547 193 l 594 831 z "},"P":{"ha":830,"x_min":69,"x_max":794,"o":"m 69 1008 q 360 1041 219 1041 q 686 949 578 1041 q 794 663 794 857 q 688 382 794 478 q 383 285 583 285 q 335 287 365 285 l 310 288 l 310 0 l 69 0 l 69 1008 m 385 480 q 517 522 475 480 q 560 660 560 564 q 517 802 560 758 q 383 847 474 847 q 310 840 338 847 l 310 484 q 385 480 345 480 z "},"Þ":{"ha":837,"x_min":69,"x_max":794,"o":"m 69 1028 l 310 1028 l 310 903 q 326 905 314 903 q 363 906 350 906 q 686 814 579 906 q 794 528 794 722 q 689 246 794 342 q 385 151 585 151 q 335 152 365 151 l 310 153 l 310 0 l 69 0 l 69 1028 m 385 345 q 517 387 475 345 q 560 525 560 429 q 517 667 560 622 q 383 712 474 712 q 310 706 338 712 l 310 349 q 385 345 345 345 z "},"Q":{"ha":947,"x_min":42,"x_max":906,"o":"m 906 514 q 834 190 906 314 q 628 28 763 66 q 889 -33 760 -15 l 844 -229 q 369 -76 544 -174 q 117 166 193 22 q 42 514 42 310 q 95 814 42 696 q 245 986 149 931 q 474 1042 342 1042 q 702 986 606 1042 q 852 814 799 931 q 906 514 906 696 m 290 519 q 311 323 290 396 q 373 218 333 250 q 474 187 413 187 q 574 218 534 187 q 636 320 615 249 q 657 509 657 391 q 636 705 657 632 q 574 809 615 778 q 474 841 534 841 q 373 810 413 841 q 311 708 333 779 q 290 519 290 637 z "},"R":{"ha":869,"x_min":69,"x_max":866,"o":"m 610 0 l 388 363 l 341 364 q 306 365 329 365 l 306 0 l 69 0 l 69 1008 q 366 1041 219 1041 q 685 957 579 1041 q 791 702 791 872 q 745 522 792 597 q 612 407 698 447 l 866 0 l 610 0 m 306 556 q 388 552 348 552 q 520 587 476 552 q 563 702 563 622 q 399 854 563 854 q 306 847 348 854 l 306 556 z "},"Ŕ":{"ha":869,"x_min":69,"x_max":866,"o":"m 610 0 l 388 363 l 341 364 q 306 365 329 365 l 306 0 l 69 0 l 69 1008 q 366 1041 219 1041 q 685 957 579 1041 q 791 702 791 872 q 745 522 792 597 q 612 407 698 447 l 866 0 l 610 0 m 306 556 q 388 552 348 552 q 520 587 476 552 q 563 702 563 622 q 399 854 563 854 q 306 847 348 854 l 306 556 m 317 1104 l 427 1319 l 673 1319 l 528 1104 l 317 1104 z "},"Ř":{"ha":869,"x_min":69,"x_max":866,"o":"m 610 0 l 388 363 l 341 364 q 306 365 329 365 l 306 0 l 69 0 l 69 1008 q 366 1041 219 1041 q 685 957 579 1041 q 791 702 791 872 q 745 522 792 597 q 612 407 698 447 l 866 0 l 610 0 m 306 556 q 388 552 348 552 q 520 587 476 552 q 563 702 563 622 q 399 854 563 854 q 306 847 348 854 l 306 556 m 497 1319 l 658 1319 l 524 1104 l 322 1104 l 189 1319 l 349 1319 l 423 1190 l 497 1319 z "},"Ŗ":{"ha":869,"x_min":69,"x_max":866,"o":"m 610 0 l 388 363 l 341 364 q 306 365 329 365 l 306 0 l 69 0 l 69 1008 q 366 1041 219 1041 q 685 957 579 1041 q 791 702 791 872 q 745 522 792 597 q 612 407 698 447 l 866 0 l 610 0 m 306 556 q 388 552 348 552 q 520 587 476 552 q 563 702 563 622 q 399 854 563 854 q 306 847 348 854 l 306 556 m 465 -80 q 596 -192 596 -80 q 580 -275 596 -231 q 539 -352 563 -319 l 389 -352 q 430 -249 422 -290 q 359 -221 382 -243 q 335 -165 335 -199 q 367 -102 335 -124 q 465 -80 399 -80 z "},"Ȑ":{"ha":869,"x_min":69,"x_max":866,"o":"m 610 0 l 388 363 l 341 364 q 306 365 329 365 l 306 0 l 69 0 l 69 1008 q 366 1041 219 1041 q 685 957 579 1041 q 791 702 791 872 q 745 522 792 597 q 612 407 698 447 l 866 0 l 610 0 m 306 556 q 388 552 348 552 q 520 587 476 552 q 563 702 563 622 q 399 854 563 854 q 306 847 348 854 l 306 556 m 190 1104 l 100 1319 l 293 1319 l 373 1104 l 190 1104 m 474 1104 l 383 1319 l 576 1319 l 656 1104 l 474 1104 z "},"Ṛ":{"ha":869,"x_min":69,"x_max":866,"o":"m 610 0 l 388 363 l 341 364 q 306 365 329 365 l 306 0 l 69 0 l 69 1008 q 366 1041 219 1041 q 685 957 579 1041 q 791 702 791 872 q 745 522 792 597 q 612 407 698 447 l 866 0 l 610 0 m 306 556 q 388 552 348 552 q 520 587 476 552 q 563 702 563 622 q 399 854 563 854 q 306 847 348 854 l 306 556 m 465 -308 q 357 -279 396 -308 q 318 -194 318 -250 q 357 -109 318 -137 q 465 -80 396 -80 q 574 -109 535 -80 q 613 -194 613 -137 q 574 -279 613 -250 q 465 -308 535 -308 z "},"Ȓ":{"ha":869,"x_min":69,"x_max":866,"o":"m 610 0 l 388 363 l 341 364 q 306 365 329 365 l 306 0 l 69 0 l 69 1008 q 366 1041 219 1041 q 685 957 579 1041 q 791 702 791 872 q 745 522 792 597 q 612 407 698 447 l 866 0 l 610 0 m 306 556 q 388 552 348 552 q 520 587 476 552 q 563 702 563 622 q 399 854 563 854 q 306 847 348 854 l 306 556 m 181 1107 q 253 1264 190 1209 q 423 1318 316 1318 q 593 1264 530 1318 q 665 1107 656 1209 l 522 1107 q 491 1179 515 1157 q 423 1201 467 1201 q 355 1179 378 1201 q 325 1107 331 1157 l 181 1107 z "},"Ṟ":{"ha":869,"x_min":69,"x_max":866,"o":"m 610 0 l 388 363 l 341 364 q 306 365 329 365 l 306 0 l 69 0 l 69 1008 q 366 1041 219 1041 q 685 957 579 1041 q 791 702 791 872 q 745 522 792 597 q 612 407 698 447 l 866 0 l 610 0 m 306 556 q 388 552 348 552 q 520 587 476 552 q 563 702 563 622 q 399 854 563 854 q 306 847 348 854 l 306 556 m 217 -263 l 217 -110 l 714 -110 l 714 -263 l 217 -263 z "},"S":{"ha":712,"x_min":19,"x_max":693,"o":"m 302 -14 q 170 -3 240 -14 q 47 28 101 8 l 47 230 q 297 189 178 189 q 450 287 450 189 q 439 331 450 313 q 402 365 428 349 q 326 397 375 381 l 250 423 q 81 533 143 459 q 19 720 19 607 q 64 892 19 820 q 199 1003 108 965 q 422 1042 289 1042 q 539 1034 482 1042 q 639 1014 595 1027 l 639 813 q 547 832 597 825 q 446 839 497 839 q 303 812 346 839 q 261 739 261 785 q 270 698 261 715 q 303 667 280 681 q 369 638 326 653 l 447 612 q 630 500 566 572 q 693 309 693 427 q 647 138 693 210 q 513 25 601 65 q 302 -14 424 -14 z "},"Ś":{"ha":712,"x_min":19,"x_max":693,"o":"m 302 -14 q 170 -3 240 -14 q 47 28 101 8 l 47 230 q 297 189 178 189 q 450 287 450 189 q 439 331 450 313 q 402 365 428 349 q 326 397 375 381 l 250 423 q 81 533 143 459 q 19 720 19 607 q 64 892 19 820 q 199 1003 108 965 q 422 1042 289 1042 q 539 1034 482 1042 q 639 1014 595 1027 l 639 813 q 547 832 597 825 q 446 839 497 839 q 303 812 346 839 q 261 739 261 785 q 270 698 261 715 q 303 667 280 681 q 369 638 326 653 l 447 612 q 630 500 566 572 q 693 309 693 427 q 647 138 693 210 q 513 25 601 65 q 302 -14 424 -14 m 258 1104 l 367 1319 l 613 1319 l 469 1104 l 258 1104 z "},"Ṥ":{"ha":712,"x_min":19,"x_max":693,"o":"m 302 -14 q 170 -3 240 -14 q 47 28 101 8 l 47 230 q 297 189 178 189 q 450 287 450 189 q 439 331 450 313 q 402 365 428 349 q 326 397 375 381 l 250 423 q 81 533 143 459 q 19 720 19 607 q 64 892 19 820 q 199 1003 108 965 q 422 1042 289 1042 q 539 1034 482 1042 q 639 1014 595 1027 l 639 813 q 547 832 597 825 q 446 839 497 839 q 303 812 346 839 q 261 739 261 785 q 270 698 261 715 q 303 667 280 681 q 369 638 326 653 l 447 612 q 630 500 566 572 q 693 309 693 427 q 647 138 693 210 q 513 25 601 65 q 302 -14 424 -14 m 180 1292 q 93 1315 124 1292 q 62 1384 62 1338 q 93 1453 62 1430 q 180 1476 124 1476 q 267 1453 236 1476 q 299 1384 299 1429 q 267 1315 299 1338 q 180 1292 236 1292 m 258 1104 l 367 1319 l 613 1319 l 469 1104 l 258 1104 z "},"Š":{"ha":712,"x_min":19,"x_max":693,"o":"m 302 -14 q 170 -3 240 -14 q 47 28 101 8 l 47 230 q 297 189 178 189 q 450 287 450 189 q 439 331 450 313 q 402 365 428 349 q 326 397 375 381 l 250 423 q 81 533 143 459 q 19 720 19 607 q 64 892 19 820 q 199 1003 108 965 q 422 1042 289 1042 q 539 1034 482 1042 q 639 1014 595 1027 l 639 813 q 547 832 597 825 q 446 839 497 839 q 303 812 346 839 q 261 739 261 785 q 270 698 261 715 q 303 667 280 681 q 369 638 326 653 l 447 612 q 630 500 566 572 q 693 309 693 427 q 647 138 693 210 q 513 25 601 65 q 302 -14 424 -14 m 438 1319 l 598 1319 l 464 1104 l 263 1104 l 129 1319 l 289 1319 l 363 1190 l 438 1319 z "},"Ṧ":{"ha":712,"x_min":19,"x_max":693,"o":"m 302 -14 q 170 -3 240 -14 q 47 28 101 8 l 47 230 q 297 189 178 189 q 450 287 450 189 q 439 331 450 313 q 402 365 428 349 q 326 397 375 381 l 250 423 q 81 533 143 459 q 19 720 19 607 q 64 892 19 820 q 199 1003 108 965 q 422 1042 289 1042 q 539 1034 482 1042 q 639 1014 595 1027 l 639 813 q 547 832 597 825 q 446 839 497 839 q 303 812 346 839 q 261 739 261 785 q 270 698 261 715 q 303 667 280 681 q 369 638 326 653 l 447 612 q 630 500 566 572 q 693 309 693 427 q 647 138 693 210 q 513 25 601 65 q 302 -14 424 -14 m 363 1344 q 276 1367 307 1344 q 245 1435 245 1390 q 276 1505 245 1481 q 363 1528 307 1528 q 451 1505 419 1528 q 482 1435 482 1481 q 451 1367 482 1390 q 363 1344 419 1344 m 438 1319 l 598 1319 l 464 1104 l 263 1104 l 129 1319 l 289 1319 l 363 1190 l 438 1319 z "},"Ş":{"ha":712,"x_min":19,"x_max":693,"o":"m 693 309 q 618 100 693 182 q 406 -6 543 17 l 406 -58 q 496 -99 465 -68 q 528 -181 528 -130 q 333 -314 528 -314 q 203 -294 263 -314 l 203 -199 q 261 -214 230 -209 q 320 -219 293 -219 q 380 -208 361 -219 q 399 -172 399 -197 q 318 -122 399 -122 l 289 -122 l 289 -14 q 163 -2 228 -12 q 47 28 98 9 l 47 230 q 297 189 178 189 q 450 287 450 189 q 439 331 450 313 q 402 365 428 349 q 326 397 375 381 l 250 423 q 81 533 143 459 q 19 720 19 607 q 64 892 19 820 q 199 1003 108 965 q 422 1042 289 1042 q 539 1034 482 1042 q 639 1014 595 1027 l 639 813 q 547 832 597 825 q 446 839 497 839 q 303 812 346 839 q 261 739 261 785 q 270 698 261 715 q 303 667 280 681 q 369 638 326 653 l 447 612 q 630 500 566 572 q 693 309 693 427 z "},"Ŝ":{"ha":712,"x_min":19,"x_max":693,"o":"m 302 -14 q 170 -3 240 -14 q 47 28 101 8 l 47 230 q 297 189 178 189 q 450 287 450 189 q 439 331 450 313 q 402 365 428 349 q 326 397 375 381 l 250 423 q 81 533 143 459 q 19 720 19 607 q 64 892 19 820 q 199 1003 108 965 q 422 1042 289 1042 q 539 1034 482 1042 q 639 1014 595 1027 l 639 813 q 547 832 597 825 q 446 839 497 839 q 303 812 346 839 q 261 739 261 785 q 270 698 261 715 q 303 667 280 681 q 369 638 326 653 l 447 612 q 630 500 566 572 q 693 309 693 427 q 647 138 693 210 q 513 25 601 65 q 302 -14 424 -14 m 598 1104 l 438 1104 l 363 1233 l 289 1104 l 129 1104 l 263 1319 l 464 1319 l 598 1104 z "},"Ș":{"ha":712,"x_min":19,"x_max":693,"o":"m 302 -14 q 170 -3 240 -14 q 47 28 101 8 l 47 230 q 297 189 178 189 q 450 287 450 189 q 439 331 450 313 q 402 365 428 349 q 326 397 375 381 l 250 423 q 81 533 143 459 q 19 720 19 607 q 64 892 19 820 q 199 1003 108 965 q 422 1042 289 1042 q 539 1034 482 1042 q 639 1014 595 1027 l 639 813 q 547 832 597 825 q 446 839 497 839 q 303 812 346 839 q 261 739 261 785 q 270 698 261 715 q 303 667 280 681 q 369 638 326 653 l 447 612 q 630 500 566 572 q 693 309 693 427 q 647 138 693 210 q 513 25 601 65 q 302 -14 424 -14 m 363 -80 q 494 -192 494 -80 q 477 -275 494 -231 q 437 -352 461 -319 l 287 -352 q 328 -249 319 -290 q 257 -221 280 -243 q 233 -165 233 -199 q 265 -102 233 -124 q 363 -80 297 -80 z "},"Ṡ":{"ha":712,"x_min":19,"x_max":693,"o":"m 302 -14 q 170 -3 240 -14 q 47 28 101 8 l 47 230 q 297 189 178 189 q 450 287 450 189 q 439 331 450 313 q 402 365 428 349 q 326 397 375 381 l 250 423 q 81 533 143 459 q 19 720 19 607 q 64 892 19 820 q 199 1003 108 965 q 422 1042 289 1042 q 539 1034 482 1042 q 639 1014 595 1027 l 639 813 q 547 832 597 825 q 446 839 497 839 q 303 812 346 839 q 261 739 261 785 q 270 698 261 715 q 303 667 280 681 q 369 638 326 653 l 447 612 q 630 500 566 572 q 693 309 693 427 q 647 138 693 210 q 513 25 601 65 q 302 -14 424 -14 m 363 1102 q 255 1131 294 1102 q 216 1215 216 1159 q 255 1300 216 1272 q 363 1329 294 1329 q 472 1301 433 1329 q 510 1215 510 1272 q 472 1131 510 1159 q 363 1102 433 1102 z "},"Ṣ":{"ha":712,"x_min":19,"x_max":693,"o":"m 302 -14 q 170 -3 240 -14 q 47 28 101 8 l 47 230 q 297 189 178 189 q 450 287 450 189 q 439 331 450 313 q 402 365 428 349 q 326 397 375 381 l 250 423 q 81 533 143 459 q 19 720 19 607 q 64 892 19 820 q 199 1003 108 965 q 422 1042 289 1042 q 539 1034 482 1042 q 639 1014 595 1027 l 639 813 q 547 832 597 825 q 446 839 497 839 q 303 812 346 839 q 261 739 261 785 q 270 698 261 715 q 303 667 280 681 q 369 638 326 653 l 447 612 q 630 500 566 572 q 693 309 693 427 q 647 138 693 210 q 513 25 601 65 q 302 -14 424 -14 m 363 -308 q 255 -279 294 -308 q 216 -194 216 -250 q 255 -109 216 -137 q 363 -80 294 -80 q 472 -109 433 -80 q 510 -194 510 -137 q 472 -279 510 -250 q 363 -308 433 -308 z "},"Ṩ":{"ha":712,"x_min":19,"x_max":693,"o":"m 302 -14 q 170 -3 240 -14 q 47 28 101 8 l 47 230 q 297 189 178 189 q 450 287 450 189 q 439 331 450 313 q 402 365 428 349 q 326 397 375 381 l 250 423 q 81 533 143 459 q 19 720 19 607 q 64 892 19 820 q 199 1003 108 965 q 422 1042 289 1042 q 539 1034 482 1042 q 639 1014 595 1027 l 639 813 q 547 832 597 825 q 446 839 497 839 q 303 812 346 839 q 261 739 261 785 q 270 698 261 715 q 303 667 280 681 q 369 638 326 653 l 447 612 q 630 500 566 572 q 693 309 693 427 q 647 138 693 210 q 513 25 601 65 q 302 -14 424 -14 m 363 -308 q 255 -279 294 -308 q 216 -194 216 -250 q 255 -109 216 -137 q 363 -80 294 -80 q 472 -109 433 -80 q 510 -194 510 -137 q 472 -279 510 -250 q 363 -308 433 -308 m 363 1102 q 255 1131 294 1102 q 216 1215 216 1159 q 255 1300 216 1272 q 363 1329 294 1329 q 472 1301 433 1329 q 510 1215 510 1272 q 472 1131 510 1159 q 363 1102 433 1102 z "},"ẞ":{"ha":1128,"x_min":69,"x_max":1109,"o":"m 871 612 q 1048 500 987 572 q 1109 309 1109 427 q 1064 137 1109 210 q 933 25 1019 65 q 725 -14 847 -14 q 603 -3 669 -14 q 486 26 537 7 l 486 227 q 604 199 543 210 q 719 189 665 189 q 833 215 797 189 q 869 287 869 240 q 844 351 869 326 q 756 397 819 376 l 681 423 q 518 533 578 458 q 458 720 458 607 q 476 837 458 784 q 435 842 459 842 q 310 698 310 842 l 310 0 l 69 0 l 69 667 q 161 945 69 849 q 435 1042 253 1042 q 636 1003 553 1042 q 858 1042 726 1042 q 962 1035 910 1042 q 1057 1017 1014 1028 l 1057 816 q 969 833 1016 827 q 880 839 922 839 q 740 812 781 839 q 699 739 699 785 q 719 680 699 702 q 797 638 740 657 l 871 612 z "},"Ə":{"ha":932,"x_min":35,"x_max":890,"o":"m 365 1042 q 759 910 628 1042 q 890 502 890 778 q 836 215 890 331 q 686 42 781 99 q 467 -14 590 -14 q 241 40 338 -14 q 90 210 144 94 q 35 502 35 325 l 35 588 l 646 588 q 601 741 636 685 q 502 820 565 797 q 340 844 440 844 q 216 836 281 844 q 97 813 151 828 l 97 1013 q 227 1034 156 1026 q 365 1042 299 1042 m 468 182 q 561 202 524 182 q 619 272 597 223 q 647 406 640 321 l 287 406 q 314 274 293 323 q 373 203 335 225 q 468 182 410 182 z "},"T":{"ha":803,"x_min":3,"x_max":801,"o":"m 281 0 l 281 815 l 3 815 l 3 1028 l 801 1028 l 801 815 l 523 815 l 523 0 l 281 0 z "},"Ŧ":{"ha":803,"x_min":3,"x_max":801,"o":"m 801 815 l 523 815 l 523 576 l 698 576 l 698 415 l 523 415 l 523 0 l 281 0 l 281 415 l 108 415 l 108 576 l 281 576 l 281 815 l 3 815 l 3 1028 l 801 1028 l 801 815 z "},"Ť":{"ha":803,"x_min":3,"x_max":801,"o":"m 281 0 l 281 815 l 3 815 l 3 1028 l 801 1028 l 801 815 l 523 815 l 523 0 l 281 0 m 477 1319 l 638 1319 l 503 1104 l 302 1104 l 169 1319 l 328 1319 l 403 1190 l 477 1319 z "},"Ţ":{"ha":803,"x_min":3,"x_max":801,"o":"m 445 0 l 445 -58 q 536 -99 504 -68 q 567 -181 567 -130 q 373 -314 567 -314 q 243 -294 303 -314 l 243 -199 q 301 -214 269 -209 q 360 -219 333 -219 q 419 -208 401 -219 q 438 -172 438 -197 q 358 -122 438 -122 l 328 -122 l 328 0 l 281 0 l 281 815 l 3 815 l 3 1028 l 801 1028 l 801 815 l 523 815 l 523 0 l 445 0 z "},"Ț":{"ha":803,"x_min":3,"x_max":801,"o":"m 281 0 l 281 815 l 3 815 l 3 1028 l 801 1028 l 801 815 l 523 815 l 523 0 l 281 0 m 403 -80 q 533 -192 533 -80 q 517 -275 533 -231 q 476 -352 501 -319 l 326 -352 q 367 -249 359 -290 q 296 -221 319 -243 q 273 -165 273 -199 q 305 -102 273 -124 q 403 -80 337 -80 z "},"Ṭ":{"ha":803,"x_min":3,"x_max":801,"o":"m 281 0 l 281 815 l 3 815 l 3 1028 l 801 1028 l 801 815 l 523 815 l 523 0 l 281 0 m 403 -308 q 294 -279 333 -308 q 256 -194 256 -250 q 294 -109 256 -137 q 403 -80 333 -80 q 511 -109 472 -80 q 550 -194 550 -137 q 511 -279 550 -250 q 403 -308 472 -308 z "},"Ṯ":{"ha":803,"x_min":3,"x_max":801,"o":"m 281 0 l 281 815 l 3 815 l 3 1028 l 801 1028 l 801 815 l 523 815 l 523 0 l 281 0 m 155 -263 l 155 -110 l 651 -110 l 651 -263 l 155 -263 z "},"U":{"ha":916,"x_min":64,"x_max":851,"o":"m 461 -14 q 239 30 326 -14 q 108 166 151 73 q 64 409 64 260 l 64 1028 l 305 1028 l 305 381 q 344 234 305 278 q 461 189 383 189 q 577 234 539 189 q 615 381 615 278 l 615 1028 l 851 1028 l 851 409 q 809 166 851 259 q 681 30 767 73 q 461 -14 594 -14 z "},"Ú":{"ha":916,"x_min":64,"x_max":851,"o":"m 461 -14 q 239 30 326 -14 q 108 166 151 73 q 64 409 64 260 l 64 1028 l 305 1028 l 305 381 q 344 234 305 278 q 461 189 383 189 q 577 234 539 189 q 615 381 615 278 l 615 1028 l 851 1028 l 851 409 q 809 166 851 259 q 681 30 767 73 q 461 -14 594 -14 m 356 1104 l 465 1319 l 711 1319 l 567 1104 l 356 1104 z "},"Ŭ":{"ha":916,"x_min":64,"x_max":851,"o":"m 461 -14 q 239 30 326 -14 q 108 166 151 73 q 64 409 64 260 l 64 1028 l 305 1028 l 305 381 q 344 234 305 278 q 461 189 383 189 q 577 234 539 189 q 615 381 615 278 l 615 1028 l 851 1028 l 851 409 q 809 166 851 259 q 681 30 767 73 q 461 -14 594 -14 m 462 1106 q 292 1160 355 1106 q 219 1317 228 1215 l 363 1317 q 393 1244 369 1267 q 462 1222 417 1222 q 530 1244 506 1222 q 560 1317 553 1267 l 703 1317 q 632 1160 694 1215 q 462 1106 569 1106 z "},"Û":{"ha":916,"x_min":64,"x_max":851,"o":"m 461 -14 q 239 30 326 -14 q 108 166 151 73 q 64 409 64 260 l 64 1028 l 305 1028 l 305 381 q 344 234 305 278 q 461 189 383 189 q 577 234 539 189 q 615 381 615 278 l 615 1028 l 851 1028 l 851 409 q 809 166 851 259 q 681 30 767 73 q 461 -14 594 -14 m 696 1104 l 535 1104 l 461 1233 l 387 1104 l 227 1104 l 360 1319 l 562 1319 l 696 1104 z "},"Ȕ":{"ha":916,"x_min":64,"x_max":851,"o":"m 461 -14 q 239 30 326 -14 q 108 166 151 73 q 64 409 64 260 l 64 1028 l 305 1028 l 305 381 q 344 234 305 278 q 461 189 383 189 q 577 234 539 189 q 615 381 615 278 l 615 1028 l 851 1028 l 851 409 q 809 166 851 259 q 681 30 767 73 q 461 -14 594 -14 m 228 1104 l 138 1319 l 331 1319 l 411 1104 l 228 1104 m 512 1104 l 421 1319 l 614 1319 l 694 1104 l 512 1104 z "},"Ü":{"ha":916,"x_min":64,"x_max":851,"o":"m 461 -14 q 239 30 326 -14 q 108 166 151 73 q 64 409 64 260 l 64 1028 l 305 1028 l 305 381 q 344 234 305 278 q 461 189 383 189 q 577 234 539 189 q 615 381 615 278 l 615 1028 l 851 1028 l 851 409 q 809 166 851 259 q 681 30 767 73 q 461 -14 594 -14 m 294 1102 q 198 1132 232 1102 q 164 1215 164 1161 q 198 1300 164 1270 q 294 1329 232 1329 q 391 1300 357 1329 q 425 1215 425 1270 q 391 1132 425 1161 q 294 1102 357 1102 m 628 1102 q 532 1132 566 1102 q 498 1215 498 1161 q 532 1300 498 1270 q 628 1329 566 1329 q 724 1299 690 1329 q 758 1215 758 1269 q 724 1132 758 1161 q 628 1102 690 1102 z "},"Ụ":{"ha":916,"x_min":64,"x_max":851,"o":"m 461 -14 q 239 30 326 -14 q 108 166 151 73 q 64 409 64 260 l 64 1028 l 305 1028 l 305 381 q 344 234 305 278 q 461 189 383 189 q 577 234 539 189 q 615 381 615 278 l 615 1028 l 851 1028 l 851 409 q 809 166 851 259 q 681 30 767 73 q 461 -14 594 -14 m 461 -308 q 353 -279 392 -308 q 314 -194 314 -250 q 353 -109 314 -137 q 461 -80 392 -80 q 569 -109 531 -80 q 608 -194 608 -137 q 569 -279 608 -250 q 461 -308 531 -308 z "},"Ù":{"ha":916,"x_min":64,"x_max":851,"o":"m 461 -14 q 239 30 326 -14 q 108 166 151 73 q 64 409 64 260 l 64 1028 l 305 1028 l 305 381 q 344 234 305 278 q 461 189 383 189 q 577 234 539 189 q 615 381 615 278 l 615 1028 l 851 1028 l 851 409 q 809 166 851 259 q 681 30 767 73 q 461 -14 594 -14 m 356 1104 l 211 1319 l 458 1319 l 567 1104 l 356 1104 z "},"Ủ":{"ha":916,"x_min":64,"x_max":851,"o":"m 461 -14 q 239 30 326 -14 q 108 166 151 73 q 64 409 64 260 l 64 1028 l 305 1028 l 305 381 q 344 234 305 278 q 461 189 383 189 q 577 234 539 189 q 615 381 615 278 l 615 1028 l 851 1028 l 851 409 q 809 166 851 259 q 681 30 767 73 q 461 -14 594 -14 m 402 1104 q 424 1158 404 1140 q 476 1193 444 1177 q 498 1206 491 1201 q 506 1218 506 1212 q 490 1238 506 1231 q 438 1244 474 1244 q 376 1240 409 1244 q 316 1228 344 1235 l 316 1319 q 383 1332 342 1327 q 459 1336 424 1336 q 592 1313 550 1336 q 635 1239 635 1290 q 620 1198 635 1213 q 576 1165 605 1182 q 537 1136 550 1149 q 520 1104 524 1124 l 402 1104 z "},"Ư":{"ha":922,"x_min":64,"x_max":971,"o":"m 461 -14 q 239 30 326 -14 q 108 166 151 73 q 64 409 64 260 l 64 1028 l 305 1028 l 305 381 q 344 234 305 278 q 461 189 383 189 q 577 234 539 189 q 615 381 615 278 l 615 1028 l 699 1028 q 777 1053 751 1028 q 803 1136 803 1078 q 792 1233 803 1183 l 957 1233 q 971 1122 971 1191 q 940 998 971 1045 q 851 933 908 951 l 851 409 q 809 166 851 259 q 681 30 767 73 q 461 -14 594 -14 z "},"Ứ":{"ha":922,"x_min":64,"x_max":971,"o":"m 461 -14 q 239 30 326 -14 q 108 166 151 73 q 64 409 64 260 l 64 1028 l 305 1028 l 305 381 q 344 234 305 278 q 461 189 383 189 q 577 234 539 189 q 615 381 615 278 l 615 1028 l 699 1028 q 777 1053 751 1028 q 803 1136 803 1078 q 792 1233 803 1183 l 957 1233 q 971 1122 971 1191 q 940 998 971 1045 q 851 933 908 951 l 851 409 q 809 166 851 259 q 681 30 767 73 q 461 -14 594 -14 m 353 1104 l 463 1319 l 708 1319 l 564 1104 l 353 1104 z "},"Ự":{"ha":922,"x_min":64,"x_max":971,"o":"m 461 -14 q 239 30 326 -14 q 108 166 151 73 q 64 409 64 260 l 64 1028 l 305 1028 l 305 381 q 344 234 305 278 q 461 189 383 189 q 577 234 539 189 q 615 381 615 278 l 615 1028 l 699 1028 q 777 1053 751 1028 q 803 1136 803 1078 q 792 1233 803 1183 l 957 1233 q 971 1122 971 1191 q 940 998 971 1045 q 851 933 908 951 l 851 409 q 809 166 851 259 q 681 30 767 73 q 461 -14 594 -14 m 458 -308 q 350 -279 389 -308 q 311 -194 311 -250 q 350 -109 311 -137 q 458 -80 389 -80 q 567 -109 528 -80 q 606 -194 606 -137 q 567 -279 606 -250 q 458 -308 528 -308 z "},"Ừ":{"ha":922,"x_min":64,"x_max":971,"o":"m 461 -14 q 239 30 326 -14 q 108 166 151 73 q 64 409 64 260 l 64 1028 l 305 1028 l 305 381 q 344 234 305 278 q 461 189 383 189 q 577 234 539 189 q 615 381 615 278 l 615 1028 l 699 1028 q 777 1053 751 1028 q 803 1136 803 1078 q 792 1233 803 1183 l 957 1233 q 971 1122 971 1191 q 940 998 971 1045 q 851 933 908 951 l 851 409 q 809 166 851 259 q 681 30 767 73 q 461 -14 594 -14 m 353 1104 l 208 1319 l 455 1319 l 564 1104 l 353 1104 z "},"Ử":{"ha":922,"x_min":64,"x_max":971,"o":"m 461 -14 q 239 30 326 -14 q 108 166 151 73 q 64 409 64 260 l 64 1028 l 305 1028 l 305 381 q 344 234 305 278 q 461 189 383 189 q 577 234 539 189 q 615 381 615 278 l 615 1028 l 699 1028 q 777 1053 751 1028 q 803 1136 803 1078 q 792 1233 803 1183 l 957 1233 q 971 1122 971 1191 q 940 998 971 1045 q 851 933 908 951 l 851 409 q 809 166 851 259 q 681 30 767 73 q 461 -14 594 -14 m 399 1104 q 421 1158 401 1140 q 473 1193 441 1177 q 495 1206 488 1201 q 503 1218 503 1212 q 487 1238 503 1231 q 435 1244 471 1244 q 374 1240 406 1244 q 313 1228 341 1235 l 313 1319 q 380 1332 339 1327 q 456 1336 422 1336 q 590 1313 547 1336 q 632 1239 632 1290 q 617 1198 632 1213 q 573 1165 602 1182 q 534 1136 547 1149 q 517 1104 521 1124 l 399 1104 z "},"Ữ":{"ha":922,"x_min":64,"x_max":971,"o":"m 461 -14 q 239 30 326 -14 q 108 166 151 73 q 64 409 64 260 l 64 1028 l 305 1028 l 305 381 q 344 234 305 278 q 461 189 383 189 q 577 234 539 189 q 615 381 615 278 l 615 1028 l 699 1028 q 777 1053 751 1028 q 803 1136 803 1078 q 792 1233 803 1183 l 957 1233 q 971 1122 971 1191 q 940 998 971 1045 q 851 933 908 951 l 851 409 q 809 166 851 259 q 681 30 767 73 q 461 -14 594 -14 m 573 1112 q 512 1119 540 1112 q 446 1142 484 1127 q 389 1161 411 1155 q 342 1167 367 1167 q 271 1155 302 1167 q 208 1115 240 1142 l 208 1261 q 267 1301 235 1288 q 344 1314 299 1314 q 405 1306 377 1314 q 471 1284 432 1299 q 527 1264 503 1271 q 575 1258 551 1258 q 646 1270 615 1258 q 709 1310 677 1283 l 709 1163 q 650 1124 683 1136 q 573 1112 618 1112 z "},"Ű":{"ha":916,"x_min":64,"x_max":851,"o":"m 461 -14 q 239 30 326 -14 q 108 166 151 73 q 64 409 64 260 l 64 1028 l 305 1028 l 305 381 q 344 234 305 278 q 461 189 383 189 q 577 234 539 189 q 615 381 615 278 l 615 1028 l 851 1028 l 851 409 q 809 166 851 259 q 681 30 767 73 q 461 -14 594 -14 m 228 1104 l 309 1319 l 501 1319 l 411 1104 l 228 1104 m 512 1104 l 592 1319 l 785 1319 l 694 1104 l 512 1104 z "},"Ȗ":{"ha":916,"x_min":64,"x_max":851,"o":"m 461 -14 q 239 30 326 -14 q 108 166 151 73 q 64 409 64 260 l 64 1028 l 305 1028 l 305 381 q 344 234 305 278 q 461 189 383 189 q 577 234 539 189 q 615 381 615 278 l 615 1028 l 851 1028 l 851 409 q 809 166 851 259 q 681 30 767 73 q 461 -14 594 -14 m 219 1107 q 291 1264 228 1209 q 461 1318 354 1318 q 631 1264 568 1318 q 703 1107 694 1209 l 560 1107 q 529 1179 553 1157 q 461 1201 506 1201 q 393 1179 417 1201 q 363 1107 369 1157 l 219 1107 z "},"Ū":{"ha":916,"x_min":64,"x_max":851,"o":"m 461 -14 q 239 30 326 -14 q 108 166 151 73 q 64 409 64 260 l 64 1028 l 305 1028 l 305 381 q 344 234 305 278 q 461 189 383 189 q 577 234 539 189 q 615 381 615 278 l 615 1028 l 851 1028 l 851 409 q 809 166 851 259 q 681 30 767 73 q 461 -14 594 -14 m 213 1136 l 213 1289 l 710 1289 l 710 1136 l 213 1136 z "},"Ṻ":{"ha":916,"x_min":64,"x_max":851,"o":"m 461 -14 q 239 30 326 -14 q 108 166 151 73 q 64 409 64 260 l 64 1028 l 305 1028 l 305 381 q 344 234 305 278 q 461 189 383 189 q 577 234 539 189 q 615 381 615 278 l 615 1028 l 851 1028 l 851 409 q 809 166 851 259 q 681 30 767 73 q 461 -14 594 -14 m 213 1136 l 213 1289 l 710 1289 l 710 1136 l 213 1136 m 294 1367 q 198 1397 232 1367 q 164 1481 164 1426 q 198 1565 164 1535 q 294 1594 232 1594 q 391 1565 357 1594 q 425 1481 425 1535 q 391 1397 425 1426 q 294 1367 357 1367 m 628 1367 q 532 1397 566 1367 q 498 1481 498 1426 q 532 1565 498 1535 q 628 1594 566 1594 q 724 1565 690 1594 q 758 1481 758 1535 q 724 1397 758 1426 q 628 1367 690 1367 z "},"Ų":{"ha":916,"x_min":64,"x_max":851,"o":"m 851 1028 l 851 409 q 800 147 851 244 q 641 13 748 49 q 497 -65 535 -25 q 459 -151 459 -106 q 549 -217 459 -217 q 641 -197 592 -217 l 641 -292 q 518 -314 582 -314 q 373 -275 422 -314 q 324 -165 324 -235 q 346 -82 324 -119 q 416 -12 367 -45 q 219 41 297 -6 q 102 177 141 87 q 64 409 64 268 l 64 1028 l 305 1028 l 305 381 q 344 234 305 278 q 461 189 383 189 q 577 234 539 189 q 615 381 615 278 l 615 1028 l 851 1028 z "},"Ů":{"ha":916,"x_min":64,"x_max":851,"o":"m 461 -14 q 239 30 326 -14 q 108 166 151 73 q 64 409 64 260 l 64 1028 l 305 1028 l 305 381 q 344 234 305 278 q 461 189 383 189 q 577 234 539 189 q 615 381 615 278 l 615 1028 l 851 1028 l 851 409 q 809 166 851 259 q 681 30 767 73 q 461 -14 594 -14 m 461 1094 q 382 1114 417 1094 q 327 1167 347 1133 q 307 1244 307 1201 q 327 1321 307 1287 q 382 1374 347 1355 q 461 1393 417 1393 q 541 1374 506 1393 q 595 1321 576 1355 q 615 1244 615 1287 q 595 1167 615 1201 q 541 1114 576 1133 q 461 1094 506 1094 m 461 1182 q 504 1199 488 1182 q 521 1244 521 1215 q 504 1288 521 1272 q 461 1305 488 1305 q 418 1288 435 1305 q 402 1244 402 1272 q 418 1199 402 1215 q 461 1182 435 1182 z "},"Ũ":{"ha":916,"x_min":64,"x_max":851,"o":"m 461 -14 q 239 30 326 -14 q 108 166 151 73 q 64 409 64 260 l 64 1028 l 305 1028 l 305 381 q 344 234 305 278 q 461 189 383 189 q 577 234 539 189 q 615 381 615 278 l 615 1028 l 851 1028 l 851 409 q 809 166 851 259 q 681 30 767 73 q 461 -14 594 -14 m 576 1112 q 515 1119 543 1112 q 449 1142 487 1127 q 392 1161 414 1155 q 345 1167 369 1167 q 274 1155 305 1167 q 211 1115 243 1142 l 211 1261 q 270 1301 238 1288 q 347 1314 302 1314 q 407 1306 380 1314 q 474 1284 435 1299 q 530 1264 506 1271 q 578 1258 553 1258 q 649 1270 618 1258 q 712 1310 680 1283 l 712 1163 q 653 1124 685 1136 q 576 1112 621 1112 z "},"Ṹ":{"ha":916,"x_min":64,"x_max":851,"o":"m 461 -14 q 239 30 326 -14 q 108 166 151 73 q 64 409 64 260 l 64 1028 l 305 1028 l 305 381 q 344 234 305 278 q 461 189 383 189 q 577 234 539 189 q 615 381 615 278 l 615 1028 l 851 1028 l 851 409 q 809 166 851 259 q 681 30 767 73 q 461 -14 594 -14 m 345 1369 l 454 1531 l 722 1531 l 578 1369 l 345 1369 m 576 1112 q 515 1119 543 1112 q 449 1142 487 1127 q 392 1161 414 1155 q 345 1167 369 1167 q 274 1155 305 1167 q 211 1115 243 1142 l 211 1261 q 270 1301 238 1288 q 347 1314 302 1314 q 407 1306 380 1314 q 474 1284 435 1299 q 530 1264 506 1271 q 578 1258 553 1258 q 649 1270 618 1258 q 712 1310 680 1283 l 712 1163 q 653 1124 685 1136 q 576 1112 621 1112 z "},"V":{"ha":872,"x_min":-10,"x_max":881,"o":"m 651 1028 l 881 1028 l 619 0 l 251 0 l -10 1028 l 238 1028 l 442 190 l 651 1028 z "},"W":{"ha":1384,"x_min":8,"x_max":1376,"o":"m 1151 1028 l 1376 1028 l 1158 0 l 844 0 l 698 713 l 539 0 l 226 0 l 8 1028 l 251 1028 l 403 256 l 569 1028 l 832 1028 l 990 244 l 1151 1028 z "},"Ẃ":{"ha":1384,"x_min":8,"x_max":1376,"o":"m 1151 1028 l 1376 1028 l 1158 0 l 844 0 l 698 713 l 539 0 l 226 0 l 8 1028 l 251 1028 l 403 256 l 569 1028 l 832 1028 l 990 244 l 1151 1028 m 587 1104 l 697 1319 l 942 1319 l 798 1104 l 587 1104 z "},"Ŵ":{"ha":1384,"x_min":8,"x_max":1376,"o":"m 1151 1028 l 1376 1028 l 1158 0 l 844 0 l 698 713 l 539 0 l 226 0 l 8 1028 l 251 1028 l 403 256 l 569 1028 l 832 1028 l 990 244 l 1151 1028 m 927 1104 l 767 1104 l 692 1233 l 618 1104 l 458 1104 l 592 1319 l 793 1319 l 927 1104 z "},"Ẅ":{"ha":1384,"x_min":8,"x_max":1376,"o":"m 1151 1028 l 1376 1028 l 1158 0 l 844 0 l 698 713 l 539 0 l 226 0 l 8 1028 l 251 1028 l 403 256 l 569 1028 l 832 1028 l 990 244 l 1151 1028 m 526 1102 q 429 1132 463 1102 q 395 1215 395 1161 q 429 1300 395 1270 q 526 1329 463 1329 q 622 1300 588 1329 q 656 1215 656 1270 q 622 1132 656 1161 q 526 1102 588 1102 m 860 1102 q 763 1132 797 1102 q 729 1215 729 1161 q 763 1300 729 1270 q 860 1329 797 1329 q 956 1299 922 1329 q 990 1215 990 1269 q 956 1132 990 1161 q 860 1102 922 1102 z "},"Ẁ":{"ha":1384,"x_min":8,"x_max":1376,"o":"m 1151 1028 l 1376 1028 l 1158 0 l 844 0 l 698 713 l 539 0 l 226 0 l 8 1028 l 251 1028 l 403 256 l 569 1028 l 832 1028 l 990 244 l 1151 1028 m 587 1104 l 442 1319 l 689 1319 l 798 1104 l 587 1104 z "},"X":{"ha":875,"x_min":-28,"x_max":897,"o":"m 577 538 l 897 0 l 637 0 l 437 343 l 235 0 l -28 0 l 297 536 l 1 1028 l 264 1028 l 437 733 l 610 1028 l 869 1028 l 577 538 z "},"Y":{"ha":803,"x_min":-45,"x_max":844,"o":"m 844 1028 l 523 430 l 523 0 l 282 0 l 282 428 l -45 1028 l 208 1028 l 410 649 l 613 1028 l 844 1028 z "},"Ý":{"ha":803,"x_min":-45,"x_max":844,"o":"m 844 1028 l 523 430 l 523 0 l 282 0 l 282 428 l -45 1028 l 208 1028 l 410 649 l 613 1028 l 844 1028 m 298 1104 l 408 1319 l 653 1319 l 509 1104 l 298 1104 z "},"Ŷ":{"ha":803,"x_min":-45,"x_max":844,"o":"m 844 1028 l 523 430 l 523 0 l 282 0 l 282 428 l -45 1028 l 208 1028 l 410 649 l 613 1028 l 844 1028 m 638 1104 l 478 1104 l 403 1233 l 329 1104 l 169 1104 l 303 1319 l 504 1319 l 638 1104 z "},"Ÿ":{"ha":803,"x_min":-45,"x_max":844,"o":"m 844 1028 l 523 430 l 523 0 l 282 0 l 282 428 l -45 1028 l 208 1028 l 410 649 l 613 1028 l 844 1028 m 237 1102 q 140 1132 174 1102 q 106 1215 106 1161 q 140 1300 106 1270 q 237 1329 174 1329 q 333 1300 299 1329 q 367 1215 367 1270 q 333 1132 367 1161 q 237 1102 299 1102 m 571 1102 q 474 1132 508 1102 q 440 1215 440 1161 q 474 1300 440 1270 q 571 1329 508 1329 q 667 1299 633 1329 q 701 1215 701 1269 q 667 1132 701 1161 q 571 1102 633 1102 z "},"Ẏ":{"ha":803,"x_min":-45,"x_max":844,"o":"m 844 1028 l 523 430 l 523 0 l 282 0 l 282 428 l -45 1028 l 208 1028 l 410 649 l 613 1028 l 844 1028 m 403 1102 q 295 1131 334 1102 q 256 1215 256 1159 q 295 1300 256 1272 q 403 1329 334 1329 q 512 1301 474 1329 q 551 1215 551 1272 q 512 1131 551 1159 q 403 1102 474 1102 z "},"Ỵ":{"ha":803,"x_min":-45,"x_max":844,"o":"m 844 1028 l 523 430 l 523 0 l 282 0 l 282 428 l -45 1028 l 208 1028 l 410 649 l 613 1028 l 844 1028 m 403 -308 q 294 -279 333 -308 q 256 -194 256 -250 q 294 -109 256 -137 q 403 -80 333 -80 q 511 -109 472 -80 q 550 -194 550 -137 q 511 -279 550 -250 q 403 -308 472 -308 z "},"Ỳ":{"ha":803,"x_min":-45,"x_max":844,"o":"m 844 1028 l 523 430 l 523 0 l 282 0 l 282 428 l -45 1028 l 208 1028 l 410 649 l 613 1028 l 844 1028 m 298 1104 l 153 1319 l 400 1319 l 509 1104 l 298 1104 z "},"Ỷ":{"ha":803,"x_min":-45,"x_max":844,"o":"m 844 1028 l 523 430 l 523 0 l 282 0 l 282 428 l -45 1028 l 208 1028 l 410 649 l 613 1028 l 844 1028 m 344 1104 q 366 1158 347 1140 q 418 1193 386 1177 q 441 1206 433 1201 q 448 1218 448 1212 q 432 1238 448 1231 q 381 1244 416 1244 q 319 1240 351 1244 q 258 1228 286 1235 l 258 1319 q 325 1332 284 1327 q 401 1336 367 1336 q 535 1313 492 1336 q 577 1239 577 1290 q 562 1198 577 1213 q 518 1165 547 1182 q 479 1136 492 1149 q 463 1104 466 1124 l 344 1104 z "},"Ȳ":{"ha":803,"x_min":-45,"x_max":844,"o":"m 844 1028 l 523 430 l 523 0 l 282 0 l 282 428 l -45 1028 l 208 1028 l 410 649 l 613 1028 l 844 1028 m 156 1136 l 156 1289 l 652 1289 l 652 1136 l 156 1136 z "},"Ỹ":{"ha":803,"x_min":-45,"x_max":844,"o":"m 844 1028 l 523 430 l 523 0 l 282 0 l 282 428 l -45 1028 l 208 1028 l 410 649 l 613 1028 l 844 1028 m 518 1112 q 457 1119 485 1112 q 391 1142 429 1127 q 334 1161 356 1155 q 288 1167 312 1167 q 216 1155 247 1167 q 153 1115 185 1142 l 153 1261 q 213 1301 181 1288 q 290 1314 244 1314 q 350 1306 322 1314 q 416 1284 377 1299 q 472 1264 449 1271 q 520 1258 496 1258 q 591 1270 560 1258 q 654 1310 622 1283 l 654 1163 q 595 1124 628 1136 q 518 1112 563 1112 z "},"Z":{"ha":757,"x_min":24,"x_max":732,"o":"m 337 213 l 732 213 l 732 0 l 24 0 l 24 135 l 413 815 l 31 815 l 31 1028 l 725 1028 l 725 892 l 337 213 z "},"Ź":{"ha":757,"x_min":24,"x_max":732,"o":"m 337 213 l 732 213 l 732 0 l 24 0 l 24 135 l 413 815 l 31 815 l 31 1028 l 725 1028 l 725 892 l 337 213 m 274 1104 l 384 1319 l 630 1319 l 485 1104 l 274 1104 z "},"Ž":{"ha":757,"x_min":24,"x_max":732,"o":"m 337 213 l 732 213 l 732 0 l 24 0 l 24 135 l 413 815 l 31 815 l 31 1028 l 725 1028 l 725 892 l 337 213 m 454 1319 l 615 1319 l 481 1104 l 279 1104 l 146 1319 l 306 1319 l 380 1190 l 454 1319 z "},"Ż":{"ha":757,"x_min":24,"x_max":732,"o":"m 337 213 l 732 213 l 732 0 l 24 0 l 24 135 l 413 815 l 31 815 l 31 1028 l 725 1028 l 725 892 l 337 213 m 380 1102 q 272 1131 310 1102 q 233 1215 233 1159 q 272 1300 233 1272 q 380 1329 310 1329 q 489 1301 450 1329 q 527 1215 527 1272 q 489 1131 527 1159 q 380 1102 450 1102 z "},"Ẓ":{"ha":757,"x_min":24,"x_max":732,"o":"m 337 213 l 732 213 l 732 0 l 24 0 l 24 135 l 413 815 l 31 815 l 31 1028 l 725 1028 l 725 892 l 337 213 m 375 -308 q 267 -279 306 -308 q 228 -194 228 -250 q 267 -109 228 -137 q 375 -80 306 -80 q 483 -109 444 -80 q 522 -194 522 -137 q 483 -279 522 -250 q 375 -308 444 -308 z "},"a":{"ha":685,"x_min":26,"x_max":628,"o":"m 308 774 q 491 744 422 774 q 594 644 561 713 q 628 459 628 576 l 628 0 l 435 0 l 418 78 l 408 78 q 241 -15 360 -15 q 129 13 178 -15 q 53 91 80 40 q 26 208 26 141 q 95 384 26 322 q 318 456 165 446 l 397 462 l 397 470 q 385 539 397 514 q 343 574 372 563 q 261 585 313 585 q 173 578 219 585 q 83 559 126 572 l 83 747 q 192 767 132 760 q 308 774 253 774 m 326 160 q 397 191 369 160 l 397 326 l 347 322 q 280 297 302 319 q 257 235 257 275 q 276 180 257 199 q 326 160 294 160 z "},"á":{"ha":685,"x_min":26,"x_max":628,"o":"m 308 774 q 491 744 422 774 q 594 644 561 713 q 628 459 628 576 l 628 0 l 435 0 l 418 78 l 408 78 q 241 -15 360 -15 q 129 13 178 -15 q 53 91 80 40 q 26 208 26 141 q 95 384 26 322 q 318 456 165 446 l 397 462 l 397 470 q 385 539 397 514 q 343 574 372 563 q 261 585 313 585 q 173 578 219 585 q 83 559 126 572 l 83 747 q 192 767 132 760 q 308 774 253 774 m 326 160 q 397 191 369 160 l 397 326 l 347 322 q 280 297 302 319 q 257 235 257 275 q 276 180 257 199 q 326 160 294 160 m 238 851 l 376 1122 l 616 1122 l 444 851 l 238 851 z "},"ă":{"ha":685,"x_min":26,"x_max":628,"o":"m 308 774 q 491 744 422 774 q 594 644 561 713 q 628 459 628 576 l 628 0 l 435 0 l 418 78 l 408 78 q 241 -15 360 -15 q 129 13 178 -15 q 53 91 80 40 q 26 208 26 141 q 95 384 26 322 q 318 456 165 446 l 397 462 l 397 470 q 385 539 397 514 q 343 574 372 563 q 261 585 313 585 q 173 578 219 585 q 83 559 126 572 l 83 747 q 192 767 132 760 q 308 774 253 774 m 326 160 q 397 191 369 160 l 397 326 l 347 322 q 280 297 302 319 q 257 235 257 275 q 276 180 257 199 q 326 160 294 160 m 342 860 q 176 920 238 860 q 108 1108 115 981 l 252 1108 q 278 1012 256 1042 q 342 983 301 983 q 405 1012 382 983 q 430 1108 427 1042 l 574 1108 q 507 920 568 981 q 342 860 445 860 z "},"ắ":{"ha":685,"x_min":26,"x_max":628,"o":"m 308 774 q 491 744 422 774 q 594 644 561 713 q 628 459 628 576 l 628 0 l 435 0 l 418 78 l 408 78 q 241 -15 360 -15 q 129 13 178 -15 q 53 91 80 40 q 26 208 26 141 q 95 384 26 322 q 318 456 165 446 l 397 462 l 397 470 q 385 539 397 514 q 343 574 372 563 q 261 585 313 585 q 173 578 219 585 q 83 559 126 572 l 83 747 q 192 767 132 760 q 308 774 253 774 m 326 160 q 397 191 369 160 l 397 326 l 347 322 q 280 297 302 319 q 257 235 257 275 q 276 180 257 199 q 326 160 294 160 m 260 1110 l 370 1297 l 566 1297 l 422 1110 l 260 1110 m 342 860 q 173 916 235 860 q 101 1079 110 972 l 245 1079 q 275 1000 251 1024 q 342 976 299 976 q 408 1000 385 976 q 438 1079 432 1024 l 581 1079 q 510 916 572 972 q 342 860 447 860 z "},"ặ":{"ha":685,"x_min":26,"x_max":628,"o":"m 308 774 q 491 744 422 774 q 594 644 561 713 q 628 459 628 576 l 628 0 l 435 0 l 418 78 l 408 78 q 241 -15 360 -15 q 129 13 178 -15 q 53 91 80 40 q 26 208 26 141 q 95 384 26 322 q 318 456 165 446 l 397 462 l 397 470 q 385 539 397 514 q 343 574 372 563 q 261 585 313 585 q 173 578 219 585 q 83 559 126 572 l 83 747 q 192 767 132 760 q 308 774 253 774 m 326 160 q 397 191 369 160 l 397 326 l 347 322 q 280 297 302 319 q 257 235 257 275 q 276 180 257 199 q 326 160 294 160 m 341 -329 q 248 -296 283 -329 q 213 -205 213 -262 q 248 -113 213 -147 q 341 -80 283 -80 q 435 -113 400 -80 q 469 -205 469 -147 q 435 -296 469 -262 q 341 -329 400 -329 m 342 860 q 176 920 238 860 q 108 1108 115 981 l 252 1108 q 278 1012 256 1042 q 342 983 301 983 q 405 1012 382 983 q 430 1108 427 1042 l 574 1108 q 507 920 568 981 q 342 860 445 860 z "},"ằ":{"ha":685,"x_min":26,"x_max":628,"o":"m 308 774 q 491 744 422 774 q 594 644 561 713 q 628 459 628 576 l 628 0 l 435 0 l 418 78 l 408 78 q 241 -15 360 -15 q 129 13 178 -15 q 53 91 80 40 q 26 208 26 141 q 95 384 26 322 q 318 456 165 446 l 397 462 l 397 470 q 385 539 397 514 q 343 574 372 563 q 261 585 313 585 q 173 578 219 585 q 83 559 126 572 l 83 747 q 192 767 132 760 q 308 774 253 774 m 326 160 q 397 191 369 160 l 397 326 l 347 322 q 280 297 302 319 q 257 235 257 275 q 276 180 257 199 q 326 160 294 160 m 260 1110 l 117 1297 l 313 1297 l 422 1110 l 260 1110 m 342 860 q 173 916 235 860 q 101 1079 110 972 l 245 1079 q 275 1000 251 1024 q 342 976 299 976 q 408 1000 385 976 q 438 1079 432 1024 l 581 1079 q 510 916 572 972 q 342 860 447 860 z "},"ẳ":{"ha":685,"x_min":26,"x_max":628,"o":"m 308 774 q 491 744 422 774 q 594 644 561 713 q 628 459 628 576 l 628 0 l 435 0 l 418 78 l 408 78 q 241 -15 360 -15 q 129 13 178 -15 q 53 91 80 40 q 26 208 26 141 q 95 384 26 322 q 318 456 165 446 l 397 462 l 397 470 q 385 539 397 514 q 343 574 372 563 q 261 585 313 585 q 173 578 219 585 q 83 559 126 572 l 83 747 q 192 767 132 760 q 308 774 253 774 m 326 160 q 397 191 369 160 l 397 326 l 347 322 q 280 297 302 319 q 257 235 257 275 q 276 180 257 199 q 326 160 294 160 m 282 1110 q 303 1157 284 1140 q 355 1188 323 1173 q 378 1199 371 1194 q 385 1210 385 1204 q 369 1227 385 1222 q 318 1232 353 1232 q 196 1219 249 1232 l 196 1297 q 263 1308 221 1304 q 339 1313 304 1313 q 472 1292 430 1313 q 515 1227 515 1272 q 500 1191 515 1204 q 456 1163 485 1178 q 417 1138 430 1149 q 400 1110 403 1127 l 282 1110 m 342 860 q 173 916 235 860 q 101 1079 110 972 l 245 1079 q 275 1000 251 1024 q 342 976 299 976 q 408 1000 385 976 q 438 1079 432 1024 l 581 1079 q 510 916 572 972 q 342 860 447 860 z "},"ẵ":{"ha":685,"x_min":26,"x_max":628,"o":"m 308 774 q 491 744 422 774 q 594 644 561 713 q 628 459 628 576 l 628 0 l 435 0 l 418 78 l 408 78 q 241 -15 360 -15 q 129 13 178 -15 q 53 91 80 40 q 26 208 26 141 q 95 384 26 322 q 318 456 165 446 l 397 462 l 397 470 q 385 539 397 514 q 343 574 372 563 q 261 585 313 585 q 173 578 219 585 q 83 559 126 572 l 83 747 q 192 767 132 760 q 308 774 253 774 m 326 160 q 397 191 369 160 l 397 326 l 347 322 q 280 297 302 319 q 257 235 257 275 q 276 180 257 199 q 326 160 294 160 m 452 1116 q 394 1123 421 1116 q 330 1142 367 1129 q 273 1159 294 1153 q 228 1164 252 1164 q 159 1153 189 1164 q 98 1119 129 1142 l 98 1245 q 155 1281 124 1269 q 231 1292 187 1292 q 290 1285 262 1292 q 353 1265 317 1278 q 408 1248 386 1253 q 454 1242 431 1242 q 523 1253 493 1242 q 584 1288 553 1264 l 584 1162 q 527 1127 558 1138 q 452 1116 497 1116 m 342 860 q 173 916 235 860 q 101 1079 110 972 l 245 1079 q 275 1000 251 1024 q 342 976 299 976 q 408 1000 385 976 q 438 1079 432 1024 l 581 1079 q 510 916 572 972 q 342 860 447 860 z "},"â":{"ha":685,"x_min":26,"x_max":628,"o":"m 308 774 q 491 744 422 774 q 594 644 561 713 q 628 459 628 576 l 628 0 l 435 0 l 418 78 l 408 78 q 241 -15 360 -15 q 129 13 178 -15 q 53 91 80 40 q 26 208 26 141 q 95 384 26 322 q 318 456 165 446 l 397 462 l 397 470 q 385 539 397 514 q 343 574 372 563 q 261 585 313 585 q 173 578 219 585 q 83 559 126 572 l 83 747 q 192 767 132 760 q 308 774 253 774 m 326 160 q 397 191 369 160 l 397 326 l 347 322 q 280 297 302 319 q 257 235 257 275 q 276 180 257 199 q 326 160 294 160 m 574 851 l 415 851 l 341 1015 l 268 851 l 109 851 l 240 1122 l 442 1122 l 574 851 z "},"ấ":{"ha":685,"x_min":26,"x_max":801,"o":"m 308 774 q 491 744 422 774 q 594 644 561 713 q 628 459 628 576 l 628 0 l 435 0 l 418 78 l 408 78 q 241 -15 360 -15 q 129 13 178 -15 q 53 91 80 40 q 26 208 26 141 q 95 384 26 322 q 318 456 165 446 l 397 462 l 397 470 q 385 539 397 514 q 343 574 372 563 q 261 585 313 585 q 173 578 219 585 q 83 559 126 572 l 83 747 q 192 767 132 760 q 308 774 253 774 m 326 160 q 397 191 369 160 l 397 326 l 347 322 q 280 297 302 319 q 257 235 257 275 q 276 180 257 199 q 326 160 294 160 m 605 1297 l 801 1297 l 657 1110 l 496 1110 l 605 1297 m 240 1122 l 442 1122 l 574 851 l 415 851 l 341 1015 l 268 851 l 109 851 l 240 1122 z "},"ậ":{"ha":685,"x_min":26,"x_max":628,"o":"m 308 774 q 491 744 422 774 q 594 644 561 713 q 628 459 628 576 l 628 0 l 435 0 l 418 78 l 408 78 q 241 -15 360 -15 q 129 13 178 -15 q 53 91 80 40 q 26 208 26 141 q 95 384 26 322 q 318 456 165 446 l 397 462 l 397 470 q 385 539 397 514 q 343 574 372 563 q 261 585 313 585 q 173 578 219 585 q 83 559 126 572 l 83 747 q 192 767 132 760 q 308 774 253 774 m 326 160 q 397 191 369 160 l 397 326 l 347 322 q 280 297 302 319 q 257 235 257 275 q 276 180 257 199 q 326 160 294 160 m 341 -329 q 248 -296 283 -329 q 213 -205 213 -262 q 248 -113 213 -147 q 341 -80 283 -80 q 435 -113 400 -80 q 469 -205 469 -147 q 435 -296 469 -262 q 341 -329 400 -329 m 574 851 l 415 851 l 341 1015 l 268 851 l 109 851 l 240 1122 l 442 1122 l 574 851 z "},"ầ":{"ha":685,"x_min":26,"x_max":681,"o":"m 308 774 q 491 744 422 774 q 594 644 561 713 q 628 459 628 576 l 628 0 l 435 0 l 418 78 l 408 78 q 241 -15 360 -15 q 129 13 178 -15 q 53 91 80 40 q 26 208 26 141 q 95 384 26 322 q 318 456 165 446 l 397 462 l 397 470 q 385 539 397 514 q 343 574 372 563 q 261 585 313 585 q 173 578 219 585 q 83 559 126 572 l 83 747 q 192 767 132 760 q 308 774 253 774 m 326 160 q 397 191 369 160 l 397 326 l 347 322 q 280 297 302 319 q 257 235 257 275 q 276 180 257 199 q 326 160 294 160 m 681 1110 l 520 1110 l 376 1297 l 572 1297 l 681 1110 m 240 1122 l 442 1122 l 574 851 l 415 851 l 341 1015 l 268 851 l 109 851 l 240 1122 z "},"ẩ":{"ha":685,"x_min":26,"x_max":724,"o":"m 308 774 q 491 744 422 774 q 594 644 561 713 q 628 459 628 576 l 628 0 l 435 0 l 418 78 l 408 78 q 241 -15 360 -15 q 129 13 178 -15 q 53 91 80 40 q 26 208 26 141 q 95 384 26 322 q 318 456 165 446 l 397 462 l 397 470 q 385 539 397 514 q 343 574 372 563 q 261 585 313 585 q 173 578 219 585 q 83 559 126 572 l 83 747 q 192 767 132 760 q 308 774 253 774 m 326 160 q 397 191 369 160 l 397 326 l 347 322 q 280 297 302 319 q 257 235 257 275 q 276 180 257 199 q 326 160 294 160 m 549 1313 q 682 1292 640 1313 q 724 1227 724 1272 q 710 1191 724 1204 q 666 1163 695 1178 q 627 1138 640 1149 q 610 1110 614 1127 l 492 1110 q 514 1157 494 1140 q 565 1188 533 1173 q 589 1199 581 1194 q 596 1210 596 1204 q 580 1227 596 1222 q 528 1232 564 1232 q 406 1219 460 1232 l 406 1297 q 473 1308 431 1304 q 549 1313 514 1313 m 240 1122 l 442 1122 l 574 851 l 415 851 l 341 1015 l 268 851 l 109 851 l 240 1122 z "},"ẫ":{"ha":685,"x_min":26,"x_max":628,"o":"m 308 774 q 491 744 422 774 q 594 644 561 713 q 628 459 628 576 l 628 0 l 435 0 l 418 78 l 408 78 q 241 -15 360 -15 q 129 13 178 -15 q 53 91 80 40 q 26 208 26 141 q 95 384 26 322 q 318 456 165 446 l 397 462 l 397 470 q 385 539 397 514 q 343 574 372 563 q 261 585 313 585 q 173 578 219 585 q 83 559 126 572 l 83 747 q 192 767 132 760 q 308 774 253 774 m 326 160 q 397 191 369 160 l 397 326 l 347 322 q 280 297 302 319 q 257 235 257 275 q 276 180 257 199 q 326 160 294 160 m 457 1242 q 527 1253 497 1242 q 590 1288 558 1264 l 590 1161 q 531 1127 563 1138 q 454 1116 499 1116 q 394 1123 422 1116 q 328 1142 366 1129 q 272 1159 294 1153 q 226 1165 249 1165 q 155 1153 185 1165 q 92 1118 124 1142 l 92 1246 q 151 1281 119 1269 q 228 1292 183 1292 q 287 1285 260 1292 q 353 1265 313 1278 q 409 1248 386 1253 q 457 1242 433 1242 m 240 1076 l 442 1076 l 574 853 l 415 853 l 341 989 l 268 853 l 109 853 l 240 1076 z "},"ȁ":{"ha":685,"x_min":6,"x_max":628,"o":"m 308 774 q 491 744 422 774 q 594 644 561 713 q 628 459 628 576 l 628 0 l 435 0 l 418 78 l 408 78 q 241 -15 360 -15 q 129 13 178 -15 q 53 91 80 40 q 26 208 26 141 q 95 384 26 322 q 318 456 165 446 l 397 462 l 397 470 q 385 539 397 514 q 343 574 372 563 q 261 585 313 585 q 173 578 219 585 q 83 559 126 572 l 83 747 q 192 767 132 760 q 308 774 253 774 m 326 160 q 397 191 369 160 l 397 326 l 347 322 q 280 297 302 319 q 257 235 257 275 q 276 180 257 199 q 326 160 294 160 m 108 851 l 6 1122 l 199 1122 l 291 851 l 108 851 m 392 851 l 289 1122 l 482 1122 l 574 851 l 392 851 z "},"ä":{"ha":685,"x_min":26,"x_max":629,"o":"m 308 774 q 491 744 422 774 q 594 644 561 713 q 628 459 628 576 l 628 0 l 435 0 l 418 78 l 408 78 q 241 -15 360 -15 q 129 13 178 -15 q 53 91 80 40 q 26 208 26 141 q 95 384 26 322 q 318 456 165 446 l 397 462 l 397 470 q 385 539 397 514 q 343 574 372 563 q 261 585 313 585 q 173 578 219 585 q 83 559 126 572 l 83 747 q 192 767 132 760 q 308 774 253 774 m 326 160 q 397 191 369 160 l 397 326 l 347 322 q 280 297 302 319 q 257 235 257 275 q 276 180 257 199 q 326 160 294 160 m 181 860 q 88 894 122 860 q 53 985 53 927 q 88 1076 53 1043 q 181 1110 122 1110 q 274 1076 240 1110 q 309 985 309 1043 q 274 894 309 927 q 181 860 240 860 m 501 860 q 408 894 442 860 q 374 985 374 927 q 408 1076 374 1043 q 501 1110 442 1110 q 595 1076 560 1110 q 629 985 629 1043 q 595 894 629 927 q 501 860 560 860 z "},"ạ":{"ha":685,"x_min":26,"x_max":628,"o":"m 308 774 q 491 744 422 774 q 594 644 561 713 q 628 459 628 576 l 628 0 l 435 0 l 418 78 l 408 78 q 241 -15 360 -15 q 129 13 178 -15 q 53 91 80 40 q 26 208 26 141 q 95 384 26 322 q 318 456 165 446 l 397 462 l 397 470 q 385 539 397 514 q 343 574 372 563 q 261 585 313 585 q 173 578 219 585 q 83 559 126 572 l 83 747 q 192 767 132 760 q 308 774 253 774 m 326 160 q 397 191 369 160 l 397 326 l 347 322 q 280 297 302 319 q 257 235 257 275 q 276 180 257 199 q 326 160 294 160 m 341 -329 q 248 -296 283 -329 q 213 -205 213 -262 q 248 -113 213 -147 q 341 -80 283 -80 q 435 -113 400 -80 q 469 -205 469 -147 q 435 -296 469 -262 q 341 -329 400 -329 z "},"à":{"ha":685,"x_min":26,"x_max":628,"o":"m 308 774 q 491 744 422 774 q 594 644 561 713 q 628 459 628 576 l 628 0 l 435 0 l 418 78 l 408 78 q 241 -15 360 -15 q 129 13 178 -15 q 53 91 80 40 q 26 208 26 141 q 95 384 26 322 q 318 456 165 446 l 397 462 l 397 470 q 385 539 397 514 q 343 574 372 563 q 261 585 313 585 q 173 578 219 585 q 83 559 126 572 l 83 747 q 192 767 132 760 q 308 774 253 774 m 326 160 q 397 191 369 160 l 397 326 l 347 322 q 280 297 302 319 q 257 235 257 275 q 276 180 257 199 q 326 160 294 160 m 238 851 l 67 1122 l 306 1122 l 444 851 l 238 851 z "},"ả":{"ha":685,"x_min":26,"x_max":628,"o":"m 308 774 q 491 744 422 774 q 594 644 561 713 q 628 459 628 576 l 628 0 l 435 0 l 418 78 l 408 78 q 241 -15 360 -15 q 129 13 178 -15 q 53 91 80 40 q 26 208 26 141 q 95 384 26 322 q 318 456 165 446 l 397 462 l 397 470 q 385 539 397 514 q 343 574 372 563 q 261 585 313 585 q 173 578 219 585 q 83 559 126 572 l 83 747 q 192 767 132 760 q 308 774 253 774 m 326 160 q 397 191 369 160 l 397 326 l 347 322 q 280 297 302 319 q 257 235 257 275 q 276 180 257 199 q 326 160 294 160 m 282 851 q 300 915 284 892 q 342 961 315 939 q 365 984 358 976 q 372 1004 372 992 q 317 1035 372 1035 q 210 1019 263 1035 l 210 1113 q 271 1126 236 1121 q 338 1131 306 1131 q 461 1104 420 1131 q 501 1021 501 1077 q 494 978 501 996 q 476 949 486 960 q 447 922 465 938 q 414 889 425 903 q 400 851 403 874 l 282 851 z "},"ȃ":{"ha":685,"x_min":26,"x_max":628,"o":"m 308 774 q 491 744 422 774 q 594 644 561 713 q 628 459 628 576 l 628 0 l 435 0 l 418 78 l 408 78 q 241 -15 360 -15 q 129 13 178 -15 q 53 91 80 40 q 26 208 26 141 q 95 384 26 322 q 318 456 165 446 l 397 462 l 397 470 q 385 539 397 514 q 343 574 372 563 q 261 585 313 585 q 173 578 219 585 q 83 559 126 572 l 83 747 q 192 767 132 760 q 308 774 253 774 m 326 160 q 397 191 369 160 l 397 326 l 347 322 q 280 297 302 319 q 257 235 257 275 q 276 180 257 199 q 326 160 294 160 m 108 871 q 175 1059 115 999 q 341 1119 235 1119 q 506 1058 443 1119 q 574 871 568 997 l 430 871 q 341 999 424 999 q 276 970 298 999 q 252 871 255 940 l 108 871 z "},"ā":{"ha":685,"x_min":26,"x_max":628,"o":"m 308 774 q 491 744 422 774 q 594 644 561 713 q 628 459 628 576 l 628 0 l 435 0 l 418 78 l 408 78 q 241 -15 360 -15 q 129 13 178 -15 q 53 91 80 40 q 26 208 26 141 q 95 384 26 322 q 318 456 165 446 l 397 462 l 397 470 q 385 539 397 514 q 343 574 372 563 q 261 585 313 585 q 173 578 219 585 q 83 559 126 572 l 83 747 q 192 767 132 760 q 308 774 253 774 m 326 160 q 397 191 369 160 l 397 326 l 347 322 q 280 297 302 319 q 257 235 257 275 q 276 180 257 199 q 326 160 294 160 m 104 910 l 104 1063 l 578 1063 l 578 910 l 104 910 z "},"ą":{"ha":685,"x_min":26,"x_max":638,"o":"m 553 -217 q 638 -197 590 -217 l 638 -292 q 584 -308 611 -302 q 523 -314 557 -314 q 389 -274 435 -314 q 343 -165 343 -235 q 366 -75 343 -115 q 444 0 390 -35 l 435 0 l 418 78 l 408 78 q 241 -15 360 -15 q 129 13 178 -15 q 53 91 80 40 q 26 208 26 141 q 95 384 26 322 q 318 456 165 446 l 397 462 l 397 470 q 385 539 397 514 q 343 574 372 563 q 261 585 313 585 q 173 578 219 585 q 83 559 126 572 l 83 747 q 192 767 132 760 q 308 774 253 774 q 491 744 422 774 q 594 644 561 713 q 628 459 628 576 l 628 0 q 510 -72 542 -35 q 478 -151 478 -108 q 497 -200 478 -183 q 553 -217 517 -217 m 326 160 q 397 191 369 160 l 397 326 l 347 322 q 280 297 302 319 q 257 235 257 275 q 276 180 257 199 q 326 160 294 160 z "},"å":{"ha":685,"x_min":26,"x_max":628,"o":"m 308 774 q 491 744 422 774 q 594 644 561 713 q 628 459 628 576 l 628 0 l 435 0 l 418 78 l 408 78 q 241 -15 360 -15 q 129 13 178 -15 q 53 91 80 40 q 26 208 26 141 q 95 384 26 322 q 318 456 165 446 l 397 462 l 397 470 q 385 539 397 514 q 343 574 372 563 q 261 585 313 585 q 173 578 219 585 q 83 559 126 572 l 83 747 q 192 767 132 760 q 308 774 253 774 m 326 160 q 397 191 369 160 l 397 326 l 347 322 q 280 297 302 319 q 257 235 257 275 q 276 180 257 199 q 326 160 294 160 m 341 847 q 262 866 297 847 q 207 919 226 885 q 187 997 187 953 q 207 1074 187 1040 q 262 1127 226 1108 q 341 1146 297 1146 q 420 1127 385 1146 q 475 1074 456 1108 q 495 997 495 1040 q 475 919 495 953 q 420 866 456 885 q 341 847 385 847 m 341 935 q 384 952 367 935 q 401 997 401 969 q 384 1042 401 1025 q 341 1058 367 1058 q 298 1042 315 1058 q 282 997 282 1025 q 298 952 282 969 q 341 935 315 935 z "},"ǻ":{"ha":685,"x_min":26,"x_max":628,"o":"m 308 774 q 491 744 422 774 q 594 644 561 713 q 628 459 628 576 l 628 0 l 435 0 l 418 78 l 408 78 q 241 -15 360 -15 q 129 13 178 -15 q 53 91 80 40 q 26 208 26 141 q 95 384 26 322 q 318 456 165 446 l 397 462 l 397 470 q 385 539 397 514 q 343 574 372 563 q 261 585 313 585 q 173 578 219 585 q 83 559 126 572 l 83 747 q 192 767 132 760 q 308 774 253 774 m 326 160 q 397 191 369 160 l 397 326 l 347 322 q 280 297 302 319 q 257 235 257 275 q 276 180 257 199 q 326 160 294 160 m 476 1072 q 495 997 495 1038 q 475 919 495 953 q 420 866 456 885 q 341 847 385 847 q 262 866 297 847 q 207 919 226 885 q 187 997 187 953 q 207 1074 187 1040 q 262 1127 226 1108 q 341 1146 297 1146 q 364 1144 349 1146 l 434 1236 l 618 1236 l 476 1072 m 341 935 q 384 952 367 935 q 401 997 401 969 q 384 1042 401 1025 q 341 1058 367 1058 q 298 1042 315 1058 q 282 997 282 1025 q 298 952 282 969 q 341 935 315 935 z "},"ã":{"ha":685,"x_min":26,"x_max":628,"o":"m 308 774 q 491 744 422 774 q 594 644 561 713 q 628 459 628 576 l 628 0 l 435 0 l 418 78 l 408 78 q 241 -15 360 -15 q 129 13 178 -15 q 53 91 80 40 q 26 208 26 141 q 95 384 26 322 q 318 456 165 446 l 397 462 l 397 470 q 385 539 397 514 q 343 574 372 563 q 261 585 313 585 q 173 578 219 585 q 83 559 126 572 l 83 747 q 192 767 132 760 q 308 774 253 774 m 326 160 q 397 191 369 160 l 397 326 l 347 322 q 280 297 302 319 q 257 235 257 275 q 276 180 257 199 q 326 160 294 160 m 447 881 q 392 889 418 881 q 328 915 366 898 q 275 938 297 931 q 233 945 254 945 q 165 931 195 945 q 104 885 135 917 l 104 1041 q 162 1083 131 1069 q 235 1096 194 1096 q 292 1087 265 1096 q 353 1060 319 1078 q 407 1038 385 1045 q 449 1031 428 1031 q 517 1045 487 1031 q 578 1092 547 1060 l 578 935 q 520 894 552 907 q 447 881 489 881 z "},"æ":{"ha":1028,"x_min":26,"x_max":1003,"o":"m 1003 309 l 628 309 q 648 228 631 257 q 699 187 665 199 q 795 174 734 174 q 966 199 867 174 l 966 10 q 864 -9 911 -3 q 767 -15 817 -15 q 592 10 663 -15 q 478 89 522 35 q 384 9 437 32 q 265 -15 332 -15 q 136 13 190 -15 q 54 90 83 40 q 26 212 26 141 q 98 387 26 323 q 322 451 171 451 l 402 451 l 402 467 q 387 537 402 511 q 341 574 372 563 q 258 585 310 585 q 173 578 219 585 q 83 559 126 572 l 83 747 q 297 774 192 774 q 436 753 379 774 q 526 690 492 732 q 719 774 597 774 q 870 730 807 774 q 968 597 934 686 q 1003 377 1003 508 l 1003 309 m 706 619 q 663 605 680 619 q 638 555 647 591 q 628 451 628 518 l 782 451 q 773 555 781 519 q 749 606 765 592 q 706 619 733 619 m 331 162 q 379 172 357 162 q 422 206 401 181 q 404 317 408 260 l 351 317 q 280 295 303 317 q 257 233 257 272 q 276 180 257 198 q 331 162 296 162 z "},"ǽ":{"ha":1028,"x_min":26,"x_max":1003,"o":"m 1003 309 l 628 309 q 648 228 631 257 q 699 187 665 199 q 795 174 734 174 q 966 199 867 174 l 966 10 q 864 -9 911 -3 q 767 -15 817 -15 q 592 10 663 -15 q 478 89 522 35 q 384 9 437 32 q 265 -15 332 -15 q 136 13 190 -15 q 54 90 83 40 q 26 212 26 141 q 98 387 26 323 q 322 451 171 451 l 402 451 l 402 467 q 387 537 402 511 q 341 574 372 563 q 258 585 310 585 q 173 578 219 585 q 83 559 126 572 l 83 747 q 297 774 192 774 q 436 753 379 774 q 526 690 492 732 q 719 774 597 774 q 870 730 807 774 q 968 597 934 686 q 1003 377 1003 508 l 1003 309 m 706 619 q 663 605 680 619 q 638 555 647 591 q 628 451 628 518 l 782 451 q 773 555 781 519 q 749 606 765 592 q 706 619 733 619 m 331 162 q 379 172 357 162 q 422 206 401 181 q 404 317 408 260 l 351 317 q 280 295 303 317 q 257 233 257 272 q 276 180 257 198 q 331 162 296 162 m 413 851 l 551 1122 l 791 1122 l 619 851 l 413 851 z "},"b":{"ha":749,"x_min":60,"x_max":716,"o":"m 325 -14 q 187 -3 257 -14 q 60 29 117 8 l 60 1122 l 298 1122 l 298 685 l 309 685 q 372 751 332 728 q 464 774 412 774 q 591 734 534 774 q 682 607 648 693 q 716 392 716 522 q 621 89 716 191 q 325 -14 526 -14 m 342 167 q 416 186 387 167 q 459 249 444 205 q 474 372 474 294 q 460 497 474 452 q 423 558 447 541 q 361 574 399 574 q 327 568 344 574 q 298 552 310 563 l 298 173 q 342 167 319 167 z "},"c":{"ha":572,"x_min":33,"x_max":548,"o":"m 383 -15 q 33 380 33 -15 q 131 679 33 583 q 410 774 229 774 q 548 761 484 774 l 548 568 q 456 576 503 576 q 355 558 393 576 q 298 497 317 539 q 280 384 280 455 q 297 264 280 308 q 348 201 314 220 q 437 183 383 183 q 548 203 483 183 l 548 10 q 467 -8 510 -2 q 383 -15 424 -15 z "},"ć":{"ha":572,"x_min":33,"x_max":590,"o":"m 383 -15 q 33 380 33 -15 q 131 679 33 583 q 410 774 229 774 q 548 761 484 774 l 548 568 q 456 576 503 576 q 355 558 393 576 q 298 497 317 539 q 280 384 280 455 q 297 264 280 308 q 348 201 314 220 q 437 183 383 183 q 548 203 483 183 l 548 10 q 467 -8 510 -2 q 383 -15 424 -15 m 213 851 l 351 1122 l 590 1122 l 419 851 l 213 851 z "},"č":{"ha":572,"x_min":33,"x_max":548,"o":"m 383 -15 q 33 380 33 -15 q 131 679 33 583 q 410 774 229 774 q 548 761 484 774 l 548 568 q 456 576 503 576 q 355 558 393 576 q 298 497 317 539 q 280 384 280 455 q 297 264 280 308 q 348 201 314 220 q 437 183 383 183 q 548 203 483 183 l 548 10 q 467 -8 510 -2 q 383 -15 424 -15 m 389 1122 l 548 1122 l 416 851 l 215 851 l 83 1122 l 242 1122 l 315 959 l 389 1122 z "},"ç":{"ha":572,"x_min":33,"x_max":548,"o":"m 456 576 q 355 558 393 576 q 298 497 317 539 q 280 384 280 455 q 297 264 280 308 q 348 201 314 220 q 437 183 383 183 q 548 203 483 183 l 548 10 q 394 -15 476 -12 l 394 -60 q 473 -101 445 -70 q 501 -181 501 -133 q 456 -279 501 -244 q 319 -314 412 -314 q 204 -295 263 -314 l 204 -200 q 257 -214 230 -209 q 307 -219 285 -219 q 357 -208 341 -219 q 372 -172 372 -197 q 305 -122 372 -122 l 277 -122 l 277 -3 q 33 380 33 51 q 131 679 33 583 q 410 774 229 774 q 548 761 484 774 l 548 568 q 456 576 503 576 z "},"ḉ":{"ha":572,"x_min":33,"x_max":590,"o":"m 590 1122 l 419 851 l 213 851 l 351 1122 l 590 1122 m 33 380 q 131 679 33 583 q 410 774 229 774 q 548 761 484 774 l 548 568 q 456 576 503 576 q 355 558 393 576 q 298 497 317 539 q 280 384 280 455 q 297 264 280 308 q 348 201 314 220 q 437 183 383 183 q 548 203 483 183 l 548 10 q 394 -15 476 -12 l 394 -60 q 473 -101 445 -70 q 501 -181 501 -133 q 456 -279 501 -244 q 319 -314 412 -314 q 204 -295 263 -314 l 204 -200 q 257 -214 230 -209 q 307 -219 285 -219 q 357 -208 341 -219 q 372 -172 372 -197 q 305 -122 372 -122 l 277 -122 l 277 -3 q 33 380 33 51 z "},"ĉ":{"ha":572,"x_min":33,"x_max":548,"o":"m 383 -15 q 33 380 33 -15 q 131 679 33 583 q 410 774 229 774 q 548 761 484 774 l 548 568 q 456 576 503 576 q 355 558 393 576 q 298 497 317 539 q 280 384 280 455 q 297 264 280 308 q 348 201 314 220 q 437 183 383 183 q 548 203 483 183 l 548 10 q 467 -8 510 -2 q 383 -15 424 -15 m 548 851 l 389 851 l 315 1015 l 242 851 l 83 851 l 215 1122 l 416 1122 l 548 851 z "},"ċ":{"ha":572,"x_min":33,"x_max":548,"o":"m 383 -15 q 33 380 33 -15 q 131 679 33 583 q 410 774 229 774 q 548 761 484 774 l 548 568 q 456 576 503 576 q 355 558 393 576 q 298 497 317 539 q 280 384 280 455 q 297 264 280 308 q 348 201 314 220 q 437 183 383 183 q 548 203 483 183 l 548 10 q 467 -8 510 -2 q 383 -15 424 -15 m 315 855 q 206 889 242 855 q 169 985 169 922 q 206 1082 169 1048 q 315 1116 242 1116 q 425 1082 389 1116 q 462 985 462 1048 q 425 889 462 922 q 315 855 389 855 z "},"d":{"ha":749,"x_min":33,"x_max":688,"o":"m 300 -15 q 166 26 226 -15 q 69 152 106 67 q 33 366 33 238 q 128 670 33 568 q 426 773 224 773 q 451 772 442 773 l 451 1122 l 688 1122 l 688 0 l 487 0 l 471 82 l 460 82 q 398 11 438 36 q 300 -15 357 -15 m 381 184 q 419 191 401 184 q 451 212 438 199 l 451 588 q 407 592 423 592 q 333 574 362 592 q 290 510 304 555 q 275 387 275 465 q 288 262 275 307 q 324 201 301 217 q 381 184 347 184 z "},"ð":{"ha":726,"x_min":33,"x_max":694,"o":"m 551 917 q 656 678 618 806 q 694 426 694 550 q 610 88 694 193 q 363 -17 526 -17 q 117 80 202 -17 q 33 376 33 176 q 116 674 33 576 q 345 771 199 771 q 412 758 376 771 q 349 873 388 813 l 111 821 l 81 947 l 263 986 q 129 1122 206 1053 l 385 1122 q 472 1032 430 1084 l 647 1070 l 676 945 l 551 917 m 363 159 q 413 176 394 159 q 442 240 432 194 q 451 372 451 286 q 441 510 451 462 q 412 577 431 559 q 363 594 393 594 q 314 577 333 594 q 285 511 295 559 q 275 376 275 464 q 285 240 275 287 q 313 176 294 193 q 363 159 332 159 z "},"ď":{"ha":749,"x_min":33,"x_max":906,"o":"m 300 -15 q 166 26 226 -15 q 69 152 106 67 q 33 366 33 238 q 128 670 33 568 q 426 773 224 773 q 451 772 442 773 l 451 1122 l 688 1122 l 688 0 l 487 0 l 471 82 l 460 82 q 398 11 438 36 q 300 -15 357 -15 m 381 184 q 419 191 401 184 q 451 212 438 199 l 451 588 q 407 592 423 592 q 333 574 362 592 q 290 510 304 555 q 275 387 275 465 q 288 262 275 307 q 324 201 301 217 q 381 184 347 184 m 724 819 q 741 966 736 896 q 745 1122 745 1037 l 906 1122 q 892 958 906 1037 q 856 819 879 878 l 724 819 z "},"đ":{"ha":749,"x_min":33,"x_max":748,"o":"m 748 858 l 688 858 l 688 0 l 487 0 l 471 82 l 460 82 q 398 11 438 36 q 300 -15 357 -15 q 166 26 226 -15 q 69 152 106 67 q 33 366 33 238 q 128 670 33 568 q 426 773 224 773 q 451 772 442 773 l 451 858 l 284 858 l 284 1019 l 451 1019 l 451 1122 l 688 1122 l 688 1019 l 748 1019 l 748 858 m 451 588 q 407 592 423 592 q 333 574 362 592 q 290 510 304 555 q 275 387 275 465 q 288 262 275 307 q 324 201 301 217 q 381 184 347 184 q 419 191 401 184 q 451 212 438 199 l 451 588 z "},"ḍ":{"ha":749,"x_min":33,"x_max":688,"o":"m 300 -15 q 166 26 226 -15 q 69 152 106 67 q 33 366 33 238 q 128 670 33 568 q 426 773 224 773 q 451 772 442 773 l 451 1122 l 688 1122 l 688 0 l 487 0 l 471 82 l 460 82 q 398 11 438 36 q 300 -15 357 -15 m 381 184 q 419 191 401 184 q 451 212 438 199 l 451 588 q 407 592 423 592 q 333 574 362 592 q 290 510 304 555 q 275 387 275 465 q 288 262 275 307 q 324 201 301 217 q 381 184 347 184 m 380 -329 q 287 -296 322 -329 q 252 -205 252 -262 q 287 -113 252 -147 q 380 -80 322 -80 q 474 -113 439 -80 q 508 -205 508 -147 q 474 -296 508 -262 q 380 -329 439 -329 z "},"ḏ":{"ha":749,"x_min":33,"x_max":688,"o":"m 300 -15 q 166 26 226 -15 q 69 152 106 67 q 33 366 33 238 q 128 670 33 568 q 426 773 224 773 q 451 772 442 773 l 451 1122 l 688 1122 l 688 0 l 487 0 l 471 82 l 460 82 q 398 11 438 36 q 300 -15 357 -15 m 381 184 q 419 191 401 184 q 451 212 438 199 l 451 588 q 407 592 423 592 q 333 574 362 592 q 290 510 304 555 q 275 387 275 465 q 288 262 275 307 q 324 201 301 217 q 381 184 347 184 m 146 -278 l 146 -126 l 615 -126 l 615 -278 l 146 -278 z "},"ǳ":{"ha":1344,"x_min":33,"x_max":1324,"o":"m 300 -15 q 166 26 226 -15 q 69 152 106 67 q 33 366 33 238 q 128 670 33 568 q 426 773 224 773 q 451 772 442 773 l 451 1122 l 688 1122 l 688 0 l 487 0 l 471 82 l 460 82 q 398 11 438 36 q 300 -15 357 -15 m 381 184 q 419 191 401 184 q 451 212 438 199 l 451 588 q 407 592 423 592 q 333 574 362 592 q 290 510 304 555 q 275 387 275 465 q 288 262 275 307 q 324 201 301 217 q 381 184 347 184 m 1042 185 l 1324 185 l 1324 0 l 779 0 l 779 147 l 1053 576 l 786 576 l 786 762 l 1317 762 l 1317 615 l 1042 185 z "},"ǆ":{"ha":1344,"x_min":33,"x_max":1324,"o":"m 300 -15 q 166 26 226 -15 q 69 152 106 67 q 33 366 33 238 q 128 670 33 568 q 426 773 224 773 q 451 772 442 773 l 451 1122 l 688 1122 l 688 0 l 487 0 l 471 82 l 460 82 q 398 11 438 36 q 300 -15 357 -15 m 381 184 q 419 191 401 184 q 451 212 438 199 l 451 588 q 407 592 423 592 q 333 574 362 592 q 290 510 304 555 q 275 387 275 465 q 288 262 275 307 q 324 201 301 217 q 381 184 347 184 m 1042 185 l 1324 185 l 1324 0 l 779 0 l 779 147 l 1053 576 l 786 576 l 786 762 l 1317 762 l 1317 615 l 1042 185 m 1125 1122 l 1284 1122 l 1152 851 l 951 851 l 819 1122 l 978 1122 l 1051 959 l 1125 1122 z "},"e":{"ha":678,"x_min":33,"x_max":653,"o":"m 653 309 l 274 309 q 293 228 276 257 q 346 187 310 199 q 445 174 382 174 q 617 199 517 174 l 617 10 q 514 -9 562 -3 q 415 -15 467 -15 q 195 26 279 -15 q 72 155 112 67 q 33 385 33 242 q 116 674 33 573 q 356 774 199 774 q 578 673 503 774 q 653 377 653 572 l 653 309 m 354 619 q 309 606 326 619 q 283 555 292 592 q 273 451 274 518 l 432 451 q 423 555 431 519 q 398 606 415 592 q 354 619 382 619 z "},"é":{"ha":678,"x_min":33,"x_max":653,"o":"m 653 309 l 274 309 q 293 228 276 257 q 346 187 310 199 q 445 174 382 174 q 617 199 517 174 l 617 10 q 514 -9 562 -3 q 415 -15 467 -15 q 195 26 279 -15 q 72 155 112 67 q 33 385 33 242 q 116 674 33 573 q 356 774 199 774 q 578 673 503 774 q 653 377 653 572 l 653 309 m 354 619 q 309 606 326 619 q 283 555 292 592 q 273 451 274 518 l 432 451 q 423 555 431 519 q 398 606 415 592 q 354 619 382 619 m 247 851 l 385 1122 l 624 1122 l 453 851 l 247 851 z "},"ĕ":{"ha":678,"x_min":33,"x_max":653,"o":"m 653 309 l 274 309 q 293 228 276 257 q 346 187 310 199 q 445 174 382 174 q 617 199 517 174 l 617 10 q 514 -9 562 -3 q 415 -15 467 -15 q 195 26 279 -15 q 72 155 112 67 q 33 385 33 242 q 116 674 33 573 q 356 774 199 774 q 578 673 503 774 q 653 377 653 572 l 653 309 m 354 619 q 309 606 326 619 q 283 555 292 592 q 273 451 274 518 l 432 451 q 423 555 431 519 q 398 606 415 592 q 354 619 382 619 m 350 860 q 184 920 246 860 q 117 1108 123 981 l 260 1108 q 286 1012 264 1042 q 350 983 309 983 q 413 1012 390 983 q 438 1108 435 1042 l 583 1108 q 515 920 576 981 q 350 860 453 860 z "},"ě":{"ha":678,"x_min":33,"x_max":653,"o":"m 653 309 l 274 309 q 293 228 276 257 q 346 187 310 199 q 445 174 382 174 q 617 199 517 174 l 617 10 q 514 -9 562 -3 q 415 -15 467 -15 q 195 26 279 -15 q 72 155 112 67 q 33 385 33 242 q 116 674 33 573 q 356 774 199 774 q 578 673 503 774 q 653 377 653 572 l 653 309 m 354 619 q 309 606 326 619 q 283 555 292 592 q 273 451 274 518 l 432 451 q 423 555 431 519 q 398 606 415 592 q 354 619 382 619 m 423 1122 l 582 1122 l 450 851 l 249 851 l 117 1122 l 276 1122 l 349 959 l 423 1122 z "},"ḝ":{"ha":678,"x_min":33,"x_max":653,"o":"m 350 860 q 184 920 246 860 q 117 1108 123 981 l 260 1108 q 286 1012 264 1042 q 350 983 309 983 q 413 1012 390 983 q 438 1108 435 1042 l 583 1108 q 515 920 576 981 q 350 860 453 860 m 653 309 l 274 309 q 293 228 276 257 q 346 187 310 199 q 445 174 382 174 q 617 199 517 174 l 617 10 q 515 -9 562 -3 q 416 -15 467 -15 l 416 -60 q 495 -101 467 -70 q 523 -181 523 -133 q 478 -279 523 -244 q 342 -314 434 -314 q 226 -295 285 -314 l 226 -200 q 280 -214 252 -209 q 329 -219 307 -219 q 379 -208 363 -219 q 394 -172 394 -197 q 327 -122 394 -122 l 299 -122 l 299 -6 q 148 57 206 10 q 61 184 89 103 q 33 385 33 265 q 116 674 33 573 q 356 774 199 774 q 578 673 503 774 q 653 377 653 572 l 653 309 m 354 619 q 309 606 326 619 q 283 555 292 592 q 273 451 274 518 l 432 451 q 423 555 431 519 q 398 606 415 592 q 354 619 382 619 z "},"ê":{"ha":678,"x_min":33,"x_max":653,"o":"m 653 309 l 274 309 q 293 228 276 257 q 346 187 310 199 q 445 174 382 174 q 617 199 517 174 l 617 10 q 514 -9 562 -3 q 415 -15 467 -15 q 195 26 279 -15 q 72 155 112 67 q 33 385 33 242 q 116 674 33 573 q 356 774 199 774 q 578 673 503 774 q 653 377 653 572 l 653 309 m 354 619 q 309 606 326 619 q 283 555 292 592 q 273 451 274 518 l 432 451 q 423 555 431 519 q 398 606 415 592 q 354 619 382 619 m 582 851 l 423 851 l 349 1015 l 276 851 l 117 851 l 249 1122 l 450 1122 l 582 851 z "},"ế":{"ha":678,"x_min":33,"x_max":810,"o":"m 653 309 l 274 309 q 293 228 276 257 q 346 187 310 199 q 445 174 382 174 q 617 199 517 174 l 617 10 q 514 -9 562 -3 q 415 -15 467 -15 q 195 26 279 -15 q 72 155 112 67 q 33 385 33 242 q 116 674 33 573 q 356 774 199 774 q 578 673 503 774 q 653 377 653 572 l 653 309 m 354 619 q 309 606 326 619 q 283 555 292 592 q 273 451 274 518 l 432 451 q 423 555 431 519 q 398 606 415 592 q 354 619 382 619 m 613 1297 l 810 1297 l 665 1110 l 504 1110 l 613 1297 m 249 1122 l 450 1122 l 582 851 l 423 851 l 349 1015 l 276 851 l 117 851 l 249 1122 z "},"ệ":{"ha":678,"x_min":33,"x_max":653,"o":"m 653 309 l 274 309 q 293 228 276 257 q 346 187 310 199 q 445 174 382 174 q 617 199 517 174 l 617 10 q 514 -9 562 -3 q 415 -15 467 -15 q 195 26 279 -15 q 72 155 112 67 q 33 385 33 242 q 116 674 33 573 q 356 774 199 774 q 578 673 503 774 q 653 377 653 572 l 653 309 m 354 619 q 309 606 326 619 q 283 555 292 592 q 273 451 274 518 l 432 451 q 423 555 431 519 q 398 606 415 592 q 354 619 382 619 m 349 -329 q 256 -296 291 -329 q 222 -205 222 -262 q 256 -113 222 -147 q 349 -80 291 -80 q 443 -113 408 -80 q 478 -205 478 -147 q 443 -296 478 -262 q 349 -329 408 -329 m 582 851 l 423 851 l 349 1015 l 276 851 l 117 851 l 249 1122 l 450 1122 l 582 851 z "},"ề":{"ha":678,"x_min":33,"x_max":689,"o":"m 653 309 l 274 309 q 293 228 276 257 q 346 187 310 199 q 445 174 382 174 q 617 199 517 174 l 617 10 q 514 -9 562 -3 q 415 -15 467 -15 q 195 26 279 -15 q 72 155 112 67 q 33 385 33 242 q 116 674 33 573 q 356 774 199 774 q 578 673 503 774 q 653 377 653 572 l 653 309 m 354 619 q 309 606 326 619 q 283 555 292 592 q 273 451 274 518 l 432 451 q 423 555 431 519 q 398 606 415 592 q 354 619 382 619 m 689 1110 l 528 1110 l 384 1297 l 580 1297 l 689 1110 m 249 1122 l 450 1122 l 582 851 l 423 851 l 349 1015 l 276 851 l 117 851 l 249 1122 z "},"ể":{"ha":678,"x_min":33,"x_max":733,"o":"m 653 309 l 274 309 q 293 228 276 257 q 346 187 310 199 q 445 174 382 174 q 617 199 517 174 l 617 10 q 514 -9 562 -3 q 415 -15 467 -15 q 195 26 279 -15 q 72 155 112 67 q 33 385 33 242 q 116 674 33 573 q 356 774 199 774 q 578 673 503 774 q 653 377 653 572 l 653 309 m 354 619 q 309 606 326 619 q 283 555 292 592 q 273 451 274 518 l 432 451 q 423 555 431 519 q 398 606 415 592 q 354 619 382 619 m 557 1313 q 691 1292 649 1313 q 733 1227 733 1272 q 718 1191 733 1204 q 674 1163 703 1178 q 635 1138 649 1149 q 619 1110 622 1127 l 501 1110 q 522 1157 503 1140 q 574 1188 542 1173 q 597 1199 590 1194 q 604 1210 604 1204 q 588 1227 604 1222 q 537 1232 572 1232 q 415 1219 468 1232 l 415 1297 q 481 1308 440 1304 q 557 1313 522 1313 m 249 1122 l 450 1122 l 582 851 l 423 851 l 349 1015 l 276 851 l 117 851 l 249 1122 z "},"ễ":{"ha":678,"x_min":33,"x_max":653,"o":"m 653 309 l 274 309 q 293 228 276 257 q 346 187 310 199 q 445 174 382 174 q 617 199 517 174 l 617 10 q 514 -9 562 -3 q 415 -15 467 -15 q 195 26 279 -15 q 72 155 112 67 q 33 385 33 242 q 116 674 33 573 q 356 774 199 774 q 578 673 503 774 q 653 377 653 572 l 653 309 m 354 619 q 309 606 326 619 q 283 555 292 592 q 273 451 274 518 l 432 451 q 423 555 431 519 q 398 606 415 592 q 354 619 382 619 m 465 1242 q 536 1253 505 1242 q 599 1288 567 1264 l 599 1161 q 540 1127 572 1138 q 463 1116 508 1116 q 402 1123 431 1116 q 337 1142 374 1129 q 280 1159 302 1153 q 234 1165 258 1165 q 163 1153 194 1165 q 101 1118 133 1142 l 101 1246 q 159 1281 127 1269 q 237 1292 192 1292 q 295 1285 269 1292 q 362 1265 322 1278 q 418 1248 394 1253 q 465 1242 441 1242 m 249 1076 l 450 1076 l 582 853 l 423 853 l 349 989 l 276 853 l 117 853 l 249 1076 z "},"ȅ":{"ha":678,"x_min":15,"x_max":653,"o":"m 653 309 l 274 309 q 293 228 276 257 q 346 187 310 199 q 445 174 382 174 q 617 199 517 174 l 617 10 q 514 -9 562 -3 q 415 -15 467 -15 q 195 26 279 -15 q 72 155 112 67 q 33 385 33 242 q 116 674 33 573 q 356 774 199 774 q 578 673 503 774 q 653 377 653 572 l 653 309 m 354 619 q 309 606 326 619 q 283 555 292 592 q 273 451 274 518 l 432 451 q 423 555 431 519 q 398 606 415 592 q 354 619 382 619 m 117 851 l 15 1122 l 208 1122 l 299 851 l 117 851 m 400 851 l 297 1122 l 490 1122 l 582 851 l 400 851 z "},"ë":{"ha":678,"x_min":33,"x_max":653,"o":"m 653 309 l 274 309 q 293 228 276 257 q 346 187 310 199 q 445 174 382 174 q 617 199 517 174 l 617 10 q 514 -9 562 -3 q 415 -15 467 -15 q 195 26 279 -15 q 72 155 112 67 q 33 385 33 242 q 116 674 33 573 q 356 774 199 774 q 578 673 503 774 q 653 377 653 572 l 653 309 m 354 619 q 309 606 326 619 q 283 555 292 592 q 273 451 274 518 l 432 451 q 423 555 431 519 q 398 606 415 592 q 354 619 382 619 m 190 860 q 96 894 131 860 q 61 985 61 927 q 96 1076 61 1043 q 190 1110 131 1110 q 283 1076 248 1110 q 317 985 317 1043 q 283 894 317 927 q 190 860 248 860 m 510 860 q 416 894 451 860 q 382 985 382 927 q 416 1076 382 1043 q 510 1110 451 1110 q 603 1076 569 1110 q 638 985 638 1043 q 603 894 638 927 q 510 860 569 860 z "},"ė":{"ha":678,"x_min":33,"x_max":653,"o":"m 653 309 l 274 309 q 293 228 276 257 q 346 187 310 199 q 445 174 382 174 q 617 199 517 174 l 617 10 q 514 -9 562 -3 q 415 -15 467 -15 q 195 26 279 -15 q 72 155 112 67 q 33 385 33 242 q 116 674 33 573 q 356 774 199 774 q 578 673 503 774 q 653 377 653 572 l 653 309 m 354 619 q 309 606 326 619 q 283 555 292 592 q 273 451 274 518 l 432 451 q 423 555 431 519 q 398 606 415 592 q 354 619 382 619 m 349 855 q 240 889 276 855 q 203 985 203 922 q 240 1082 203 1048 q 349 1116 276 1116 q 459 1082 423 1116 q 496 985 496 1048 q 459 889 496 922 q 349 855 423 855 z "},"ẹ":{"ha":678,"x_min":33,"x_max":653,"o":"m 653 309 l 274 309 q 293 228 276 257 q 346 187 310 199 q 445 174 382 174 q 617 199 517 174 l 617 10 q 514 -9 562 -3 q 415 -15 467 -15 q 195 26 279 -15 q 72 155 112 67 q 33 385 33 242 q 116 674 33 573 q 356 774 199 774 q 578 673 503 774 q 653 377 653 572 l 653 309 m 354 619 q 309 606 326 619 q 283 555 292 592 q 273 451 274 518 l 432 451 q 423 555 431 519 q 398 606 415 592 q 354 619 382 619 m 349 -329 q 256 -296 291 -329 q 222 -205 222 -262 q 256 -113 222 -147 q 349 -80 291 -80 q 443 -113 408 -80 q 478 -205 478 -147 q 443 -296 478 -262 q 349 -329 408 -329 z "},"è":{"ha":678,"x_min":33,"x_max":653,"o":"m 653 309 l 274 309 q 293 228 276 257 q 346 187 310 199 q 445 174 382 174 q 617 199 517 174 l 617 10 q 514 -9 562 -3 q 415 -15 467 -15 q 195 26 279 -15 q 72 155 112 67 q 33 385 33 242 q 116 674 33 573 q 356 774 199 774 q 578 673 503 774 q 653 377 653 572 l 653 309 m 354 619 q 309 606 326 619 q 283 555 292 592 q 273 451 274 518 l 432 451 q 423 555 431 519 q 398 606 415 592 q 354 619 382 619 m 247 851 l 75 1122 l 314 1122 l 453 851 l 247 851 z "},"ẻ":{"ha":678,"x_min":33,"x_max":653,"o":"m 653 309 l 274 309 q 293 228 276 257 q 346 187 310 199 q 445 174 382 174 q 617 199 517 174 l 617 10 q 514 -9 562 -3 q 415 -15 467 -15 q 195 26 279 -15 q 72 155 112 67 q 33 385 33 242 q 116 674 33 573 q 356 774 199 774 q 578 673 503 774 q 653 377 653 572 l 653 309 m 354 619 q 309 606 326 619 q 283 555 292 592 q 273 451 274 518 l 432 451 q 423 555 431 519 q 398 606 415 592 q 354 619 382 619 m 290 851 q 308 915 292 892 q 350 961 324 939 q 374 984 367 976 q 381 1004 381 992 q 326 1035 381 1035 q 219 1019 272 1035 l 219 1113 q 280 1126 244 1121 q 346 1131 315 1131 q 469 1104 428 1131 q 510 1021 510 1077 q 502 978 510 996 q 484 949 494 960 q 456 922 474 938 q 422 889 433 903 q 408 851 411 874 l 290 851 z "},"ȇ":{"ha":678,"x_min":33,"x_max":653,"o":"m 653 309 l 274 309 q 293 228 276 257 q 346 187 310 199 q 445 174 382 174 q 617 199 517 174 l 617 10 q 514 -9 562 -3 q 415 -15 467 -15 q 195 26 279 -15 q 72 155 112 67 q 33 385 33 242 q 116 674 33 573 q 356 774 199 774 q 578 673 503 774 q 653 377 653 572 l 653 309 m 354 619 q 309 606 326 619 q 283 555 292 592 q 273 451 274 518 l 432 451 q 423 555 431 519 q 398 606 415 592 q 354 619 382 619 m 117 871 q 183 1059 123 999 q 349 1119 244 1119 q 514 1058 451 1119 q 583 871 576 997 l 438 871 q 349 999 433 999 q 285 970 306 999 q 260 871 263 940 l 117 871 z "},"ē":{"ha":678,"x_min":33,"x_max":653,"o":"m 653 309 l 274 309 q 293 228 276 257 q 346 187 310 199 q 445 174 382 174 q 617 199 517 174 l 617 10 q 514 -9 562 -3 q 415 -15 467 -15 q 195 26 279 -15 q 72 155 112 67 q 33 385 33 242 q 116 674 33 573 q 356 774 199 774 q 578 673 503 774 q 653 377 653 572 l 653 309 m 354 619 q 309 606 326 619 q 283 555 292 592 q 273 451 274 518 l 432 451 q 423 555 431 519 q 398 606 415 592 q 354 619 382 619 m 113 910 l 113 1063 l 587 1063 l 587 910 l 113 910 z "},"ḗ":{"ha":678,"x_min":33,"x_max":653,"o":"m 653 309 l 274 309 q 293 228 276 257 q 346 187 310 199 q 445 174 382 174 q 617 199 517 174 l 617 10 q 514 -9 562 -3 q 415 -15 467 -15 q 195 26 279 -15 q 72 155 112 67 q 33 385 33 242 q 116 674 33 573 q 356 774 199 774 q 578 673 503 774 q 653 377 653 572 l 653 309 m 354 619 q 309 606 326 619 q 283 555 292 592 q 273 451 274 518 l 432 451 q 423 555 431 519 q 398 606 415 592 q 354 619 382 619 m 113 910 l 113 1063 l 587 1063 l 587 910 l 113 910 m 244 1165 l 353 1381 l 599 1381 l 455 1165 l 244 1165 z "},"ḕ":{"ha":678,"x_min":33,"x_max":653,"o":"m 653 309 l 274 309 q 293 228 276 257 q 346 187 310 199 q 445 174 382 174 q 617 199 517 174 l 617 10 q 514 -9 562 -3 q 415 -15 467 -15 q 195 26 279 -15 q 72 155 112 67 q 33 385 33 242 q 116 674 33 573 q 356 774 199 774 q 578 673 503 774 q 653 377 653 572 l 653 309 m 354 619 q 309 606 326 619 q 283 555 292 592 q 273 451 274 518 l 432 451 q 423 555 431 519 q 398 606 415 592 q 354 619 382 619 m 113 910 l 113 1063 l 587 1063 l 587 910 l 113 910 m 244 1165 l 99 1381 l 346 1381 l 455 1165 l 244 1165 z "},"ę":{"ha":678,"x_min":33,"x_max":653,"o":"m 653 309 l 274 309 q 293 228 276 257 q 346 187 310 199 q 445 174 382 174 q 617 199 517 174 l 617 10 q 491 -67 525 -27 q 457 -151 457 -107 q 476 -200 457 -183 q 533 -217 496 -217 q 617 -197 569 -217 l 617 -292 q 563 -308 590 -302 q 502 -314 536 -314 q 368 -274 415 -314 q 322 -165 322 -235 q 341 -82 322 -119 q 403 -15 360 -46 q 190 29 272 -12 q 71 158 109 71 q 33 385 33 244 q 116 674 33 573 q 356 774 199 774 q 578 673 503 774 q 653 377 653 572 l 653 309 m 354 614 q 309 600 326 614 q 283 549 292 585 q 273 445 274 512 l 432 445 q 423 549 431 513 q 398 600 415 585 q 354 614 382 614 z "},"ẽ":{"ha":678,"x_min":33,"x_max":653,"o":"m 653 309 l 274 309 q 293 228 276 257 q 346 187 310 199 q 445 174 382 174 q 617 199 517 174 l 617 10 q 514 -9 562 -3 q 415 -15 467 -15 q 195 26 279 -15 q 72 155 112 67 q 33 385 33 242 q 116 674 33 573 q 356 774 199 774 q 578 673 503 774 q 653 377 653 572 l 653 309 m 354 619 q 309 606 326 619 q 283 555 292 592 q 273 451 274 518 l 432 451 q 423 555 431 519 q 398 606 415 592 q 354 619 382 619 m 456 881 q 400 889 426 881 q 337 915 374 898 q 284 938 305 931 q 241 945 263 945 q 174 931 203 945 q 113 885 144 917 l 113 1041 q 170 1083 139 1069 q 244 1096 202 1096 q 300 1087 274 1096 q 362 1060 327 1078 q 415 1038 394 1045 q 458 1031 436 1031 q 525 1045 495 1031 q 587 1092 556 1060 l 587 935 q 529 894 560 907 q 456 881 497 881 z "},"ə":{"ha":678,"x_min":25,"x_max":646,"o":"m 263 776 q 483 735 399 776 q 606 607 567 694 q 646 377 646 519 q 563 88 646 189 q 323 -12 479 -12 q 100 89 176 -12 q 25 385 25 190 l 25 453 l 405 453 q 385 534 402 505 q 333 575 369 563 q 233 588 297 588 q 62 563 161 588 l 62 751 q 164 770 117 765 q 263 776 212 776 m 324 142 q 369 156 352 142 q 396 207 387 170 q 406 310 405 244 l 247 310 q 256 207 247 243 q 280 156 264 170 q 324 142 297 142 z "},"f":{"ha":497,"x_min":6,"x_max":538,"o":"m 475 944 q 373 917 404 944 q 342 828 342 889 l 342 762 l 509 762 l 509 576 l 342 576 l 342 0 l 108 0 l 108 576 l 6 576 l 6 762 l 108 762 l 108 813 q 192 1052 108 969 q 438 1136 275 1136 q 538 1128 492 1136 l 538 940 q 475 944 496 944 z "},"g":{"ha":749,"x_min":33,"x_max":688,"o":"m 300 -319 q 192 -313 249 -319 q 86 -295 134 -307 l 86 -106 q 278 -133 184 -133 q 409 -94 367 -133 q 451 35 451 -56 l 451 81 l 439 81 q 376 16 416 39 q 284 -8 337 -8 q 160 32 217 -8 q 68 156 103 72 q 33 367 33 240 q 128 671 33 568 q 426 774 224 774 q 563 763 493 774 q 688 731 633 752 l 688 77 q 592 -225 688 -131 q 300 -319 497 -319 m 388 189 q 422 195 405 189 q 451 211 439 201 l 451 589 q 405 593 423 593 q 333 575 362 593 q 290 511 305 556 q 275 388 275 466 q 288 266 275 309 q 324 206 300 222 q 388 189 349 189 z "},"ǵ":{"ha":749,"x_min":33,"x_max":688,"o":"m 300 -319 q 192 -313 249 -319 q 86 -295 134 -307 l 86 -106 q 278 -133 184 -133 q 409 -94 367 -133 q 451 35 451 -56 l 451 81 l 439 81 q 376 16 416 39 q 284 -8 337 -8 q 160 32 217 -8 q 68 156 103 72 q 33 367 33 240 q 128 671 33 568 q 426 774 224 774 q 563 763 493 774 q 688 731 633 752 l 688 77 q 592 -225 688 -131 q 300 -319 497 -319 m 388 189 q 422 195 405 189 q 451 211 439 201 l 451 589 q 405 593 423 593 q 333 575 362 593 q 290 511 305 556 q 275 388 275 466 q 288 266 275 309 q 324 206 300 222 q 388 189 349 189 m 285 851 l 424 1122 l 663 1122 l 492 851 l 285 851 z "},"ğ":{"ha":749,"x_min":33,"x_max":688,"o":"m 300 -319 q 192 -313 249 -319 q 86 -295 134 -307 l 86 -106 q 278 -133 184 -133 q 409 -94 367 -133 q 451 35 451 -56 l 451 81 l 439 81 q 376 16 416 39 q 284 -8 337 -8 q 160 32 217 -8 q 68 156 103 72 q 33 367 33 240 q 128 671 33 568 q 426 774 224 774 q 563 763 493 774 q 688 731 633 752 l 688 77 q 592 -225 688 -131 q 300 -319 497 -319 m 388 189 q 422 195 405 189 q 451 211 439 201 l 451 589 q 405 593 423 593 q 333 575 362 593 q 290 511 305 556 q 275 388 275 466 q 288 266 275 309 q 324 206 300 222 q 388 189 349 189 m 389 860 q 223 920 285 860 q 156 1108 162 981 l 299 1108 q 325 1012 303 1042 q 389 983 348 983 q 452 1012 429 983 q 477 1108 474 1042 l 622 1108 q 554 920 615 981 q 389 860 492 860 z "},"ǧ":{"ha":749,"x_min":33,"x_max":688,"o":"m 300 -319 q 192 -313 249 -319 q 86 -295 134 -307 l 86 -106 q 278 -133 184 -133 q 409 -94 367 -133 q 451 35 451 -56 l 451 81 l 439 81 q 376 16 416 39 q 284 -8 337 -8 q 160 32 217 -8 q 68 156 103 72 q 33 367 33 240 q 128 671 33 568 q 426 774 224 774 q 563 763 493 774 q 688 731 633 752 l 688 77 q 592 -225 688 -131 q 300 -319 497 -319 m 388 189 q 422 195 405 189 q 451 211 439 201 l 451 589 q 405 593 423 593 q 333 575 362 593 q 290 511 305 556 q 275 388 275 466 q 288 266 275 309 q 324 206 300 222 q 388 189 349 189 m 462 1122 l 621 1122 l 489 851 l 288 851 l 156 1122 l 315 1122 l 388 959 l 462 1122 z "},"ĝ":{"ha":749,"x_min":33,"x_max":688,"o":"m 300 -319 q 192 -313 249 -319 q 86 -295 134 -307 l 86 -106 q 278 -133 184 -133 q 409 -94 367 -133 q 451 35 451 -56 l 451 81 l 439 81 q 376 16 416 39 q 284 -8 337 -8 q 160 32 217 -8 q 68 156 103 72 q 33 367 33 240 q 128 671 33 568 q 426 774 224 774 q 563 763 493 774 q 688 731 633 752 l 688 77 q 592 -225 688 -131 q 300 -319 497 -319 m 388 189 q 422 195 405 189 q 451 211 439 201 l 451 589 q 405 593 423 593 q 333 575 362 593 q 290 511 305 556 q 275 388 275 466 q 288 266 275 309 q 324 206 300 222 q 388 189 349 189 m 621 851 l 462 851 l 388 1015 l 315 851 l 156 851 l 288 1122 l 489 1122 l 621 851 z "},"ģ":{"ha":749,"x_min":33,"x_max":688,"o":"m 300 -319 q 192 -313 249 -319 q 86 -295 134 -307 l 86 -106 q 278 -133 184 -133 q 409 -94 367 -133 q 451 35 451 -56 l 451 81 l 439 81 q 376 16 416 39 q 284 -8 337 -8 q 160 32 217 -8 q 68 156 103 72 q 33 367 33 240 q 128 671 33 568 q 426 774 224 774 q 563 763 493 774 q 688 731 633 752 l 688 77 q 592 -225 688 -131 q 300 -319 497 -319 m 388 189 q 422 195 405 189 q 451 211 439 201 l 451 589 q 405 593 423 593 q 333 575 362 593 q 290 511 305 556 q 275 388 275 466 q 288 266 275 309 q 324 206 300 222 q 388 189 349 189 m 424 1025 q 495 998 472 1019 q 519 941 519 976 q 487 878 519 900 q 389 856 455 856 q 258 968 258 856 q 274 1051 258 1007 q 315 1128 290 1096 l 465 1128 q 424 1025 433 1066 z "},"ġ":{"ha":749,"x_min":33,"x_max":688,"o":"m 300 -319 q 192 -313 249 -319 q 86 -295 134 -307 l 86 -106 q 278 -133 184 -133 q 409 -94 367 -133 q 451 35 451 -56 l 451 81 l 439 81 q 376 16 416 39 q 284 -8 337 -8 q 160 32 217 -8 q 68 156 103 72 q 33 367 33 240 q 128 671 33 568 q 426 774 224 774 q 563 763 493 774 q 688 731 633 752 l 688 77 q 592 -225 688 -131 q 300 -319 497 -319 m 388 189 q 422 195 405 189 q 451 211 439 201 l 451 589 q 405 593 423 593 q 333 575 362 593 q 290 511 305 556 q 275 388 275 466 q 288 266 275 309 q 324 206 300 222 q 388 189 349 189 m 388 855 q 278 889 315 855 q 242 985 242 922 q 278 1082 242 1048 q 388 1116 315 1116 q 498 1082 462 1116 q 535 985 535 1048 q 498 889 535 922 q 388 855 462 855 z "},"ḡ":{"ha":749,"x_min":33,"x_max":688,"o":"m 300 -319 q 192 -313 249 -319 q 86 -295 134 -307 l 86 -106 q 278 -133 184 -133 q 409 -94 367 -133 q 451 35 451 -56 l 451 81 l 439 81 q 376 16 416 39 q 284 -8 337 -8 q 160 32 217 -8 q 68 156 103 72 q 33 367 33 240 q 128 671 33 568 q 426 774 224 774 q 563 763 493 774 q 688 731 633 752 l 688 77 q 592 -225 688 -131 q 300 -319 497 -319 m 388 189 q 422 195 405 189 q 451 211 439 201 l 451 589 q 405 593 423 593 q 333 575 362 593 q 290 511 305 556 q 275 388 275 466 q 288 266 275 309 q 324 206 300 222 q 388 189 349 189 m 151 910 l 151 1063 l 626 1063 l 626 910 l 151 910 z "},"h":{"ha":747,"x_min":60,"x_max":689,"o":"m 60 1122 l 298 1122 l 298 683 l 309 683 q 380 751 338 728 q 485 774 423 774 q 632 708 576 774 q 689 498 689 642 l 689 0 l 451 0 l 451 476 q 434 543 451 524 q 384 563 417 563 q 336 552 360 563 q 298 522 313 542 l 298 0 l 60 0 l 60 1122 z "},"ħ":{"ha":747,"x_min":1,"x_max":689,"o":"m 485 774 q 632 708 576 774 q 689 498 689 642 l 689 0 l 451 0 l 451 476 q 434 543 451 524 q 384 563 417 563 q 336 552 360 563 q 298 522 313 542 l 298 0 l 60 0 l 60 858 l 1 858 l 1 1019 l 60 1019 l 60 1122 l 298 1122 l 298 1019 l 465 1019 l 465 858 l 298 858 l 298 683 l 309 683 q 380 751 338 728 q 485 774 423 774 z "},"ḫ":{"ha":747,"x_min":60,"x_max":689,"o":"m 60 1122 l 298 1122 l 298 683 l 309 683 q 380 751 338 728 q 485 774 423 774 q 632 708 576 774 q 689 498 689 642 l 689 0 l 451 0 l 451 476 q 434 543 451 524 q 384 563 417 563 q 336 552 360 563 q 298 522 313 542 l 298 0 l 60 0 l 60 1122 m 376 -326 q 208 -266 269 -326 q 143 -99 147 -207 l 287 -99 q 310 -180 288 -154 q 376 -206 332 -206 q 441 -180 419 -206 q 465 -99 463 -153 l 609 -99 q 544 -267 606 -208 q 376 -326 483 -326 z "},"ĥ":{"ha":747,"x_min":60,"x_max":689,"o":"m 60 1122 l 298 1122 l 298 683 l 309 683 q 380 751 338 728 q 485 774 423 774 q 632 708 576 774 q 689 498 689 642 l 689 0 l 451 0 l 451 476 q 434 543 451 524 q 384 563 417 563 q 336 552 360 563 q 298 522 313 542 l 298 0 l 60 0 l 60 1122 m 610 1171 l 450 1171 l 376 1300 l 301 1171 l 142 1171 l 275 1386 l 476 1386 l 610 1171 z "},"ḥ":{"ha":747,"x_min":60,"x_max":689,"o":"m 60 1122 l 298 1122 l 298 683 l 309 683 q 380 751 338 728 q 485 774 423 774 q 632 708 576 774 q 689 498 689 642 l 689 0 l 451 0 l 451 476 q 434 543 451 524 q 384 563 417 563 q 336 552 360 563 q 298 522 313 542 l 298 0 l 60 0 l 60 1122 m 376 -329 q 283 -296 317 -329 q 248 -205 248 -262 q 283 -113 248 -147 q 376 -80 317 -80 q 469 -113 435 -80 q 504 -205 504 -147 q 469 -296 504 -262 q 376 -329 435 -329 z "},"i":{"ha":360,"x_min":34,"x_max":326,"o":"m 60 0 l 60 762 l 299 762 l 299 0 l 60 0 m 180 855 q 70 889 106 855 q 34 985 34 922 q 70 1082 34 1048 q 180 1116 106 1116 q 290 1082 253 1116 q 326 985 326 1048 q 290 889 326 922 q 180 855 253 855 z "},"ı":{"ha":360,"x_min":60,"x_max":299,"o":"m 60 0 l 60 762 l 299 762 l 299 0 l 60 0 z "},"í":{"ha":360,"x_min":60,"x_max":455,"o":"m 60 0 l 60 762 l 299 762 l 299 0 l 60 0 m 77 851 l 215 1122 l 455 1122 l 283 851 l 77 851 z "},"ĭ":{"ha":360,"x_min":-53,"x_max":413,"o":"m 60 0 l 60 762 l 299 762 l 299 0 l 60 0 m 181 860 q 15 920 76 860 q -53 1108 -47 981 l 91 1108 q 117 1012 94 1042 q 181 983 140 983 q 243 1012 221 983 q 269 1108 266 1042 l 413 1108 q 345 920 407 981 q 181 860 284 860 z "},"î":{"ha":360,"x_min":-52,"x_max":413,"o":"m 60 0 l 60 762 l 299 762 l 299 0 l 60 0 m 413 851 l 253 851 l 180 1015 l 107 851 l -52 851 l 79 1122 l 281 1122 l 413 851 z "},"ȉ":{"ha":360,"x_min":-155,"x_max":413,"o":"m 60 0 l 60 762 l 299 762 l 299 0 l 60 0 m -53 851 l -155 1122 l 38 1122 l 130 851 l -53 851 m 231 851 l 128 1122 l 321 1122 l 413 851 l 231 851 z "},"ï":{"ha":360,"x_min":-108,"x_max":468,"o":"m 60 0 l 60 762 l 299 762 l 299 0 l 60 0 m 20 860 q -74 894 -39 860 q -108 985 -108 927 q -74 1076 -108 1043 q 20 1110 -39 1110 q 113 1076 78 1110 q 148 985 148 1043 q 113 894 148 927 q 20 860 78 860 m 340 860 q 247 894 281 860 q 213 985 213 927 q 247 1076 213 1043 q 340 1110 281 1110 q 434 1076 399 1110 q 468 985 468 1043 q 434 894 468 927 q 340 860 399 860 z "},"ḯ":{"ha":360,"x_min":-108,"x_max":468,"o":"m 60 0 l 60 762 l 299 762 l 299 0 l 60 0 m 20 860 q -74 894 -39 860 q -108 985 -108 927 q -74 1076 -108 1043 q 20 1110 -39 1110 q 113 1076 78 1110 q 148 985 148 1043 q 113 894 148 927 q 20 860 78 860 m 340 860 q 247 894 281 860 q 213 985 213 927 q 247 1076 213 1043 q 340 1110 281 1110 q 434 1076 399 1110 q 468 985 468 1043 q 434 894 468 927 q 340 860 399 860 m 74 1165 l 184 1381 l 430 1381 l 285 1165 l 74 1165 z "},"ị":{"ha":360,"x_min":34,"x_max":326,"o":"m 60 0 l 60 762 l 299 762 l 299 0 l 60 0 m 180 855 q 70 889 106 855 q 34 985 34 922 q 70 1082 34 1048 q 180 1116 106 1116 q 290 1082 253 1116 q 326 985 326 1048 q 290 889 326 922 q 180 855 253 855 m 180 -329 q 87 -296 122 -329 q 52 -205 52 -262 q 87 -113 52 -147 q 180 -80 122 -80 q 274 -113 239 -80 q 308 -205 308 -147 q 274 -296 308 -262 q 180 -329 239 -329 z "},"ì":{"ha":360,"x_min":-94,"x_max":299,"o":"m 60 0 l 60 762 l 299 762 l 299 0 l 60 0 m 77 851 l -94 1122 l 144 1122 l 283 851 l 77 851 z "},"ỉ":{"ha":360,"x_min":49,"x_max":340,"o":"m 60 0 l 60 762 l 299 762 l 299 0 l 60 0 m 121 851 q 139 915 123 892 q 181 961 154 939 q 204 984 197 976 q 211 1004 211 992 q 156 1035 211 1035 q 49 1019 102 1035 l 49 1113 q 110 1126 75 1121 q 176 1131 145 1131 q 300 1104 259 1131 q 340 1021 340 1077 q 333 978 340 996 q 315 949 325 960 q 286 922 304 938 q 253 889 264 903 q 239 851 242 874 l 121 851 z "},"ȋ":{"ha":360,"x_min":-53,"x_max":413,"o":"m 60 0 l 60 762 l 299 762 l 299 0 l 60 0 m -53 871 q 14 1059 -47 999 q 180 1119 74 1119 q 344 1058 282 1119 q 413 871 407 997 l 269 871 q 180 999 263 999 q 115 970 137 999 q 91 871 94 940 l -53 871 z "},"ī":{"ha":360,"x_min":-57,"x_max":417,"o":"m 60 0 l 60 762 l 299 762 l 299 0 l 60 0 m -57 910 l -57 1063 l 417 1063 l 417 910 l -57 910 z "},"į":{"ha":360,"x_min":15,"x_max":326,"o":"m 180 855 q 70 889 106 855 q 34 985 34 922 q 70 1082 34 1048 q 180 1116 106 1116 q 290 1082 253 1116 q 326 985 326 1048 q 290 889 326 922 q 180 855 253 855 m 149 -151 q 169 -200 149 -183 q 225 -217 188 -217 q 309 -197 262 -217 l 309 -292 q 256 -308 283 -302 q 194 -314 228 -314 q 61 -274 107 -314 q 15 -165 15 -235 q 38 -75 15 -115 q 116 0 61 -35 l 60 0 l 60 762 l 299 762 l 299 0 q 182 -72 214 -35 q 149 -151 149 -108 z "},"ĩ":{"ha":360,"x_min":-57,"x_max":417,"o":"m 60 0 l 60 762 l 299 762 l 299 0 l 60 0 m 286 881 q 231 889 257 881 q 167 915 205 898 q 114 938 135 931 q 72 945 93 945 q 4 931 34 945 q -57 885 -26 917 l -57 1041 q 1 1083 -31 1069 q 74 1096 33 1096 q 131 1087 104 1096 q 192 1060 158 1078 q 245 1038 224 1045 q 288 1031 267 1031 q 356 1045 326 1031 q 417 1092 386 1060 l 417 935 q 359 894 391 907 q 286 881 328 881 z "},"j":{"ha":360,"x_min":-38,"x_max":326,"o":"m -38 -225 q 39 -66 17 -143 q 60 124 60 11 l 60 762 l 299 762 l 299 134 q 258 -110 299 -1 q 119 -329 217 -219 l -38 -225 m 180 855 q 70 889 106 855 q 34 985 34 922 q 70 1082 34 1048 q 180 1116 106 1116 q 290 1082 253 1116 q 326 985 326 1048 q 290 889 326 922 q 180 855 253 855 z "},"ȷ":{"ha":360,"x_min":-38,"x_max":299,"o":"m -38 -225 q 39 -66 17 -143 q 60 124 60 11 l 60 762 l 299 762 l 299 134 q 258 -110 299 -1 q 119 -329 217 -219 l -38 -225 z "},"ĵ":{"ha":360,"x_min":-52,"x_max":413,"o":"m -38 -225 q 39 -66 17 -143 q 60 124 60 11 l 60 762 l 299 762 l 299 134 q 258 -110 299 -1 q 119 -329 217 -219 l -38 -225 m 413 851 l 253 851 l 180 1015 l 107 851 l -52 851 l 79 1122 l 281 1122 l 413 851 z "},"k":{"ha":732,"x_min":60,"x_max":761,"o":"m 506 0 l 338 299 l 298 299 l 298 0 l 60 0 l 60 1122 l 298 1122 l 298 485 l 335 485 l 488 762 l 736 762 l 537 397 l 761 0 l 506 0 z "},"ķ":{"ha":732,"x_min":60,"x_max":761,"o":"m 506 0 l 338 299 l 298 299 l 298 0 l 60 0 l 60 1122 l 298 1122 l 298 485 l 335 485 l 488 762 l 736 762 l 537 397 l 761 0 l 506 0 m 395 -80 q 526 -192 526 -80 q 509 -275 526 -231 q 469 -352 493 -319 l 319 -352 q 360 -249 351 -290 q 289 -221 312 -243 q 265 -165 265 -199 q 297 -102 265 -124 q 395 -80 329 -80 z "},"ĸ":{"ha":732,"x_min":60,"x_max":761,"o":"m 506 0 l 338 299 l 298 299 l 298 0 l 60 0 l 60 762 l 298 762 l 298 485 l 335 485 l 488 762 l 736 762 l 537 397 l 761 0 l 506 0 z "},"l":{"ha":358,"x_min":60,"x_max":298,"o":"m 60 0 l 60 1122 l 298 1122 l 298 0 l 60 0 z "},"ĺ":{"ha":358,"x_min":60,"x_max":430,"o":"m 60 0 l 60 1122 l 298 1122 l 298 0 l 60 0 m 74 1171 l 184 1386 l 430 1386 l 285 1171 l 74 1171 z "},"ľ":{"ha":358,"x_min":60,"x_max":516,"o":"m 60 0 l 60 1122 l 298 1122 l 298 0 l 60 0 m 335 819 q 351 966 347 896 q 356 1122 356 1037 l 516 1122 q 503 958 516 1037 q 466 819 490 878 l 335 819 z "},"ļ":{"ha":358,"x_min":50,"x_max":310,"o":"m 60 0 l 60 1122 l 298 1122 l 298 0 l 60 0 m 180 -80 q 310 -192 310 -80 q 294 -275 310 -231 q 253 -352 278 -319 l 103 -352 q 144 -249 136 -290 q 73 -221 97 -243 q 50 -165 50 -199 q 82 -102 50 -124 q 180 -80 114 -80 z "},"ŀ":{"ha":613,"x_min":60,"x_max":631,"o":"m 60 0 l 60 1122 l 298 1122 l 298 0 l 60 0 m 485 421 q 375 455 411 421 q 339 551 339 488 q 375 648 339 614 q 485 682 411 682 q 594 648 558 682 q 631 551 631 614 q 594 455 631 488 q 485 421 558 421 z "},"ḷ":{"ha":358,"x_min":52,"x_max":308,"o":"m 60 0 l 60 1122 l 298 1122 l 298 0 l 60 0 m 180 -329 q 87 -296 122 -329 q 52 -205 52 -262 q 87 -113 52 -147 q 180 -80 122 -80 q 274 -113 239 -80 q 308 -205 308 -147 q 274 -296 308 -262 q 180 -329 239 -329 z "},"ǉ":{"ha":718,"x_min":60,"x_max":685,"o":"m 60 0 l 60 1122 l 298 1122 l 298 0 l 60 0 m 320 -225 q 397 -66 376 -143 q 419 124 419 11 l 419 762 l 658 762 l 658 134 q 617 -110 658 -1 q 478 -329 576 -219 l 320 -225 m 538 855 q 428 889 465 855 q 392 985 392 922 q 428 1082 392 1048 q 538 1116 465 1116 q 648 1082 612 1116 q 685 985 685 1048 q 648 889 685 922 q 538 855 612 855 z "},"ḻ":{"ha":358,"x_min":-54,"x_max":415,"o":"m 60 0 l 60 1122 l 298 1122 l 298 0 l 60 0 m -54 -278 l -54 -126 l 415 -126 l 415 -278 l -54 -278 z "},"ł":{"ha":418,"x_min":-26,"x_max":445,"o":"m 445 531 l 328 471 l 328 0 l 90 0 l 90 348 l 44 324 l -26 460 l 90 520 l 90 1122 l 328 1122 l 328 643 l 376 668 l 445 531 z "},"m":{"ha":1113,"x_min":60,"x_max":1056,"o":"m 835 774 q 997 708 937 774 q 1056 495 1056 642 l 1056 0 l 819 0 l 819 482 q 752 563 819 563 q 712 555 733 563 q 675 531 691 547 q 676 510 676 524 l 676 0 l 443 0 l 443 482 q 426 545 443 526 q 379 563 410 563 q 334 552 358 563 q 298 522 311 541 l 298 0 l 60 0 l 60 762 l 258 762 l 275 683 l 285 683 q 367 752 321 729 q 473 774 413 774 q 571 751 528 774 q 640 680 614 728 q 727 750 676 726 q 835 774 778 774 z "},"ṃ":{"ha":1113,"x_min":60,"x_max":1056,"o":"m 835 774 q 997 708 937 774 q 1056 495 1056 642 l 1056 0 l 819 0 l 819 482 q 752 563 819 563 q 712 555 733 563 q 675 531 691 547 q 676 510 676 524 l 676 0 l 443 0 l 443 482 q 426 545 443 526 q 379 563 410 563 q 334 552 358 563 q 298 522 311 541 l 298 0 l 60 0 l 60 762 l 258 762 l 275 683 l 285 683 q 367 752 321 729 q 473 774 413 774 q 571 751 528 774 q 640 680 614 728 q 727 750 676 726 q 835 774 778 774 m 560 -329 q 467 -296 501 -329 q 432 -205 432 -262 q 467 -113 432 -147 q 560 -80 501 -80 q 653 -113 619 -80 q 688 -205 688 -147 q 653 -296 688 -262 q 560 -329 619 -329 z "},"n":{"ha":747,"x_min":60,"x_max":689,"o":"m 60 762 l 258 762 l 275 683 l 285 683 q 366 751 319 728 q 472 774 413 774 q 630 708 572 774 q 689 498 689 642 l 689 0 l 451 0 l 451 480 q 434 544 451 526 q 384 563 417 563 q 336 552 360 563 q 298 522 313 542 l 298 0 l 60 0 l 60 762 z "},"ń":{"ha":747,"x_min":60,"x_max":689,"o":"m 60 762 l 258 762 l 275 683 l 285 683 q 366 751 319 728 q 472 774 413 774 q 630 708 572 774 q 689 498 689 642 l 689 0 l 451 0 l 451 480 q 434 544 451 526 q 384 563 417 563 q 336 552 360 563 q 298 522 313 542 l 298 0 l 60 0 l 60 762 m 273 851 l 411 1122 l 651 1122 l 479 851 l 273 851 z "},"ŉ":{"ha":747,"x_min":7,"x_max":689,"o":"m 60 762 l 258 762 l 275 683 l 285 683 q 366 751 319 728 q 472 774 413 774 q 630 708 572 774 q 689 498 689 642 l 689 0 l 451 0 l 451 480 q 434 544 451 526 q 384 563 417 563 q 336 552 360 563 q 298 522 313 542 l 298 0 l 60 0 l 60 762 m 138 1128 q 268 1015 268 1128 q 252 933 268 977 q 211 856 235 888 l 61 856 q 88 913 78 890 q 101 958 97 937 q 30 986 53 965 q 7 1043 7 1008 q 39 1106 7 1083 q 138 1128 72 1128 z "},"ň":{"ha":747,"x_min":60,"x_max":689,"o":"m 60 762 l 258 762 l 275 683 l 285 683 q 366 751 319 728 q 472 774 413 774 q 630 708 572 774 q 689 498 689 642 l 689 0 l 451 0 l 451 480 q 434 544 451 526 q 384 563 417 563 q 336 552 360 563 q 298 522 313 542 l 298 0 l 60 0 l 60 762 m 449 1122 l 608 1122 l 476 851 l 275 851 l 144 1122 l 303 1122 l 376 959 l 449 1122 z "},"ņ":{"ha":747,"x_min":60,"x_max":689,"o":"m 60 762 l 258 762 l 275 683 l 285 683 q 366 751 319 728 q 472 774 413 774 q 630 708 572 774 q 689 498 689 642 l 689 0 l 451 0 l 451 480 q 434 544 451 526 q 384 563 417 563 q 336 552 360 563 q 298 522 313 542 l 298 0 l 60 0 l 60 762 m 376 -80 q 506 -192 506 -80 q 490 -275 506 -231 q 449 -352 474 -319 l 299 -352 q 340 -249 332 -290 q 269 -221 292 -243 q 246 -165 246 -199 q 278 -102 246 -124 q 376 -80 310 -80 z "},"ṅ":{"ha":747,"x_min":60,"x_max":689,"o":"m 60 762 l 258 762 l 275 683 l 285 683 q 366 751 319 728 q 472 774 413 774 q 630 708 572 774 q 689 498 689 642 l 689 0 l 451 0 l 451 480 q 434 544 451 526 q 384 563 417 563 q 336 552 360 563 q 298 522 313 542 l 298 0 l 60 0 l 60 762 m 376 855 q 266 889 302 855 q 230 985 230 922 q 266 1082 230 1048 q 376 1116 302 1116 q 486 1082 449 1116 q 522 985 522 1048 q 486 889 522 922 q 376 855 449 855 z "},"ṇ":{"ha":747,"x_min":60,"x_max":689,"o":"m 60 762 l 258 762 l 275 683 l 285 683 q 366 751 319 728 q 472 774 413 774 q 630 708 572 774 q 689 498 689 642 l 689 0 l 451 0 l 451 480 q 434 544 451 526 q 384 563 417 563 q 336 552 360 563 q 298 522 313 542 l 298 0 l 60 0 l 60 762 m 376 -329 q 283 -296 317 -329 q 248 -205 248 -262 q 283 -113 248 -147 q 376 -80 317 -80 q 469 -113 435 -80 q 504 -205 504 -147 q 469 -296 504 -262 q 376 -329 435 -329 z "},"ŋ":{"ha":747,"x_min":60,"x_max":689,"o":"m 353 -225 q 430 -66 409 -143 q 451 124 451 11 l 451 483 q 434 550 451 530 q 384 569 417 569 q 336 559 360 569 q 298 528 313 548 l 298 0 l 60 0 l 60 762 l 258 762 l 275 683 l 285 683 q 472 774 358 774 q 630 709 572 774 q 689 498 689 643 l 689 131 q 648 -112 688 -3 q 511 -329 608 -220 l 353 -225 z "},"ǌ":{"ha":1106,"x_min":60,"x_max":1073,"o":"m 60 762 l 258 762 l 275 683 l 285 683 q 366 751 319 728 q 472 774 413 774 q 630 708 572 774 q 689 498 689 642 l 689 0 l 451 0 l 451 480 q 434 544 451 526 q 384 563 417 563 q 336 552 360 563 q 298 522 313 542 l 298 0 l 60 0 l 60 762 m 708 -225 q 785 -66 764 -143 q 807 124 807 11 l 807 762 l 1046 762 l 1046 134 q 1005 -110 1046 -1 q 866 -329 964 -219 l 708 -225 m 926 855 q 817 889 853 855 q 781 985 781 922 q 817 1082 781 1048 q 926 1116 853 1116 q 1036 1082 1000 1116 q 1073 985 1073 1048 q 1036 889 1073 922 q 926 855 1000 855 z "},"ṉ":{"ha":747,"x_min":60,"x_max":689,"o":"m 60 762 l 258 762 l 275 683 l 285 683 q 366 751 319 728 q 472 774 413 774 q 630 708 572 774 q 689 498 689 642 l 689 0 l 451 0 l 451 480 q 434 544 451 526 q 384 563 417 563 q 336 552 360 563 q 298 522 313 542 l 298 0 l 60 0 l 60 762 m 142 -278 l 142 -126 l 610 -126 l 610 -278 l 142 -278 z "},"ñ":{"ha":747,"x_min":60,"x_max":689,"o":"m 60 762 l 258 762 l 275 683 l 285 683 q 366 751 319 728 q 472 774 413 774 q 630 708 572 774 q 689 498 689 642 l 689 0 l 451 0 l 451 480 q 434 544 451 526 q 384 563 417 563 q 336 552 360 563 q 298 522 313 542 l 298 0 l 60 0 l 60 762 m 482 881 q 427 889 453 881 q 363 915 401 898 q 310 938 331 931 q 267 945 289 945 q 200 931 230 945 q 139 885 170 917 l 139 1041 q 197 1083 165 1069 q 270 1096 228 1096 q 327 1087 300 1096 q 388 1060 353 1078 q 441 1038 420 1045 q 484 1031 463 1031 q 552 1045 522 1031 q 613 1092 582 1060 l 613 935 q 555 894 587 907 q 482 881 524 881 z "},"o":{"ha":726,"x_min":33,"x_max":694,"o":"m 363 -15 q 117 82 202 -15 q 33 376 33 178 q 117 676 33 578 q 363 774 202 774 q 609 675 524 774 q 694 378 694 576 q 609 82 694 179 q 363 -15 524 -15 m 363 161 q 413 178 394 161 q 442 242 432 195 q 451 376 451 288 q 441 514 451 465 q 412 580 431 563 q 363 598 393 598 q 314 580 333 598 q 285 515 295 563 q 275 379 275 467 q 285 242 275 290 q 313 178 294 195 q 363 161 332 161 z "},"ó":{"ha":726,"x_min":33,"x_max":694,"o":"m 363 -15 q 117 82 202 -15 q 33 376 33 178 q 117 676 33 578 q 363 774 202 774 q 609 675 524 774 q 694 378 694 576 q 609 82 694 179 q 363 -15 524 -15 m 363 161 q 413 178 394 161 q 442 242 432 195 q 451 376 451 288 q 441 514 451 465 q 412 580 431 563 q 363 598 393 598 q 314 580 333 598 q 285 515 295 563 q 275 379 275 467 q 285 242 275 290 q 313 178 294 195 q 363 161 332 161 m 260 851 l 399 1122 l 638 1122 l 467 851 l 260 851 z "},"ŏ":{"ha":726,"x_min":33,"x_max":694,"o":"m 363 -15 q 117 82 202 -15 q 33 376 33 178 q 117 676 33 578 q 363 774 202 774 q 609 675 524 774 q 694 378 694 576 q 609 82 694 179 q 363 -15 524 -15 m 363 161 q 413 178 394 161 q 442 242 432 195 q 451 376 451 288 q 441 514 451 465 q 412 580 431 563 q 363 598 393 598 q 314 580 333 598 q 285 515 295 563 q 275 379 275 467 q 285 242 275 290 q 313 178 294 195 q 363 161 332 161 m 364 860 q 198 920 260 860 q 131 1108 137 981 l 274 1108 q 300 1012 278 1042 q 364 983 323 983 q 427 1012 404 983 q 452 1108 449 1042 l 597 1108 q 529 920 590 981 q 364 860 467 860 z "},"ô":{"ha":726,"x_min":33,"x_max":694,"o":"m 363 -15 q 117 82 202 -15 q 33 376 33 178 q 117 676 33 578 q 363 774 202 774 q 609 675 524 774 q 694 378 694 576 q 609 82 694 179 q 363 -15 524 -15 m 363 161 q 413 178 394 161 q 442 242 432 195 q 451 376 451 288 q 441 514 451 465 q 412 580 431 563 q 363 598 393 598 q 314 580 333 598 q 285 515 295 563 q 275 379 275 467 q 285 242 275 290 q 313 178 294 195 q 363 161 332 161 m 596 851 l 437 851 l 363 1015 l 290 851 l 131 851 l 263 1122 l 464 1122 l 596 851 z "},"ố":{"ha":726,"x_min":33,"x_max":824,"o":"m 363 -15 q 117 82 202 -15 q 33 376 33 178 q 117 676 33 578 q 363 774 202 774 q 609 675 524 774 q 694 378 694 576 q 609 82 694 179 q 363 -15 524 -15 m 363 161 q 413 178 394 161 q 442 242 432 195 q 451 376 451 288 q 441 514 451 465 q 412 580 431 563 q 363 598 393 598 q 314 580 333 598 q 285 515 295 563 q 275 379 275 467 q 285 242 275 290 q 313 178 294 195 q 363 161 332 161 m 627 1297 l 824 1297 l 679 1110 l 518 1110 l 627 1297 m 263 1122 l 464 1122 l 596 851 l 437 851 l 363 1015 l 290 851 l 131 851 l 263 1122 z "},"ộ":{"ha":726,"x_min":33,"x_max":694,"o":"m 363 -15 q 117 82 202 -15 q 33 376 33 178 q 117 676 33 578 q 363 774 202 774 q 609 675 524 774 q 694 378 694 576 q 609 82 694 179 q 363 -15 524 -15 m 363 161 q 413 178 394 161 q 442 242 432 195 q 451 376 451 288 q 441 514 451 465 q 412 580 431 563 q 363 598 393 598 q 314 580 333 598 q 285 515 295 563 q 275 379 275 467 q 285 242 275 290 q 313 178 294 195 q 363 161 332 161 m 363 -329 q 270 -296 305 -329 q 235 -205 235 -262 q 270 -113 235 -147 q 363 -80 305 -80 q 457 -113 422 -80 q 492 -205 492 -147 q 457 -296 492 -262 q 363 -329 422 -329 m 596 851 l 437 851 l 363 1015 l 290 851 l 131 851 l 263 1122 l 464 1122 l 596 851 z "},"ồ":{"ha":726,"x_min":33,"x_max":703,"o":"m 363 -15 q 117 82 202 -15 q 33 376 33 178 q 117 676 33 578 q 363 774 202 774 q 609 675 524 774 q 694 378 694 576 q 609 82 694 179 q 363 -15 524 -15 m 363 161 q 413 178 394 161 q 442 242 432 195 q 451 376 451 288 q 441 514 451 465 q 412 580 431 563 q 363 598 393 598 q 314 580 333 598 q 285 515 295 563 q 275 379 275 467 q 285 242 275 290 q 313 178 294 195 q 363 161 332 161 m 703 1110 l 542 1110 l 398 1297 l 594 1297 l 703 1110 m 263 1122 l 464 1122 l 596 851 l 437 851 l 363 1015 l 290 851 l 131 851 l 263 1122 z "},"ổ":{"ha":726,"x_min":33,"x_max":747,"o":"m 363 -15 q 117 82 202 -15 q 33 376 33 178 q 117 676 33 578 q 363 774 202 774 q 609 675 524 774 q 694 378 694 576 q 609 82 694 179 q 363 -15 524 -15 m 363 161 q 413 178 394 161 q 442 242 432 195 q 451 376 451 288 q 441 514 451 465 q 412 580 431 563 q 363 598 393 598 q 314 580 333 598 q 285 515 295 563 q 275 379 275 467 q 285 242 275 290 q 313 178 294 195 q 363 161 332 161 m 571 1313 q 705 1292 663 1313 q 747 1227 747 1272 q 732 1191 747 1204 q 688 1163 717 1178 q 649 1138 663 1149 q 633 1110 636 1127 l 515 1110 q 536 1157 517 1140 q 588 1188 556 1173 q 611 1199 603 1194 q 618 1210 618 1204 q 602 1227 618 1222 q 551 1232 586 1232 q 428 1219 482 1232 l 428 1297 q 495 1308 453 1304 q 571 1313 536 1313 m 263 1122 l 464 1122 l 596 851 l 437 851 l 363 1015 l 290 851 l 131 851 l 263 1122 z "},"ỗ":{"ha":726,"x_min":33,"x_max":694,"o":"m 363 -15 q 117 82 202 -15 q 33 376 33 178 q 117 676 33 578 q 363 774 202 774 q 609 675 524 774 q 694 378 694 576 q 609 82 694 179 q 363 -15 524 -15 m 363 161 q 413 178 394 161 q 442 242 432 195 q 451 376 451 288 q 441 514 451 465 q 412 580 431 563 q 363 598 393 598 q 314 580 333 598 q 285 515 295 563 q 275 379 275 467 q 285 242 275 290 q 313 178 294 195 q 363 161 332 161 m 479 1242 q 550 1253 519 1242 q 613 1288 581 1264 l 613 1161 q 553 1127 585 1138 q 476 1116 522 1116 q 416 1123 444 1116 q 351 1142 388 1129 q 294 1159 316 1153 q 248 1165 272 1165 q 177 1153 208 1165 q 115 1118 147 1142 l 115 1246 q 173 1281 141 1269 q 251 1292 206 1292 q 309 1285 283 1292 q 376 1265 335 1278 q 432 1248 408 1253 q 479 1242 455 1242 m 263 1076 l 464 1076 l 596 853 l 437 853 l 363 989 l 290 853 l 131 853 l 263 1076 z "},"ȍ":{"ha":726,"x_min":28,"x_max":694,"o":"m 363 -15 q 117 82 202 -15 q 33 376 33 178 q 117 676 33 578 q 363 774 202 774 q 609 675 524 774 q 694 378 694 576 q 609 82 694 179 q 363 -15 524 -15 m 363 161 q 413 178 394 161 q 442 242 432 195 q 451 376 451 288 q 441 514 451 465 q 412 580 431 563 q 363 598 393 598 q 314 580 333 598 q 285 515 295 563 q 275 379 275 467 q 285 242 275 290 q 313 178 294 195 q 363 161 332 161 m 131 851 l 28 1122 l 222 1122 l 313 851 l 131 851 m 414 851 l 311 1122 l 504 1122 l 596 851 l 414 851 z "},"ö":{"ha":726,"x_min":33,"x_max":694,"o":"m 363 -15 q 117 82 202 -15 q 33 376 33 178 q 117 676 33 578 q 363 774 202 774 q 609 675 524 774 q 694 378 694 576 q 609 82 694 179 q 363 -15 524 -15 m 363 161 q 413 178 394 161 q 442 242 432 195 q 451 376 451 288 q 441 514 451 465 q 412 580 431 563 q 363 598 393 598 q 314 580 333 598 q 285 515 295 563 q 275 379 275 467 q 285 242 275 290 q 313 178 294 195 q 363 161 332 161 m 203 860 q 110 894 144 860 q 75 985 75 927 q 110 1076 75 1043 q 203 1110 144 1110 q 297 1076 262 1110 q 331 985 331 1043 q 297 894 331 927 q 203 860 262 860 m 524 860 q 430 894 465 860 q 396 985 396 927 q 430 1076 396 1043 q 524 1110 465 1110 q 617 1076 583 1110 q 651 985 651 1043 q 617 894 651 927 q 524 860 583 860 z "},"ȫ":{"ha":726,"x_min":33,"x_max":694,"o":"m 363 -15 q 117 82 202 -15 q 33 376 33 178 q 117 676 33 578 q 363 774 202 774 q 609 675 524 774 q 694 378 694 576 q 609 82 694 179 q 363 -15 524 -15 m 363 161 q 413 178 394 161 q 442 242 432 195 q 451 376 451 288 q 441 514 451 465 q 412 580 431 563 q 363 598 393 598 q 314 580 333 598 q 285 515 295 563 q 275 379 275 467 q 285 242 275 290 q 313 178 294 195 q 363 161 332 161 m 203 860 q 110 894 144 860 q 75 985 75 927 q 110 1076 75 1043 q 203 1110 144 1110 q 297 1076 262 1110 q 331 985 331 1043 q 297 894 331 927 q 203 860 262 860 m 524 860 q 430 894 465 860 q 396 985 396 927 q 430 1076 396 1043 q 524 1110 465 1110 q 617 1076 583 1110 q 651 985 651 1043 q 617 894 651 927 q 524 860 583 860 m 126 1193 l 126 1346 l 601 1346 l 601 1193 l 126 1193 z "},"ȱ":{"ha":726,"x_min":33,"x_max":694,"o":"m 363 -15 q 117 82 202 -15 q 33 376 33 178 q 117 676 33 578 q 363 774 202 774 q 609 675 524 774 q 694 378 694 576 q 609 82 694 179 q 363 -15 524 -15 m 363 161 q 413 178 394 161 q 442 242 432 195 q 451 376 451 288 q 441 514 451 465 q 412 580 431 563 q 363 598 393 598 q 314 580 333 598 q 285 515 295 563 q 275 379 275 467 q 285 242 275 290 q 313 178 294 195 q 363 161 332 161 m 363 855 q 253 889 290 855 q 217 985 217 922 q 253 1082 217 1048 q 363 1116 290 1116 q 473 1082 437 1116 q 510 985 510 1048 q 473 889 510 922 q 363 855 437 855 m 126 1186 l 126 1339 l 601 1339 l 601 1186 l 126 1186 z "},"ọ":{"ha":726,"x_min":33,"x_max":694,"o":"m 363 -15 q 117 82 202 -15 q 33 376 33 178 q 117 676 33 578 q 363 774 202 774 q 609 675 524 774 q 694 378 694 576 q 609 82 694 179 q 363 -15 524 -15 m 363 161 q 413 178 394 161 q 442 242 432 195 q 451 376 451 288 q 441 514 451 465 q 412 580 431 563 q 363 598 393 598 q 314 580 333 598 q 285 515 295 563 q 275 379 275 467 q 285 242 275 290 q 313 178 294 195 q 363 161 332 161 m 363 -329 q 270 -296 305 -329 q 235 -205 235 -262 q 270 -113 235 -147 q 363 -80 305 -80 q 457 -113 422 -80 q 492 -205 492 -147 q 457 -296 492 -262 q 363 -329 422 -329 z "},"ò":{"ha":726,"x_min":33,"x_max":694,"o":"m 363 -15 q 117 82 202 -15 q 33 376 33 178 q 117 676 33 578 q 363 774 202 774 q 609 675 524 774 q 694 378 694 576 q 609 82 694 179 q 363 -15 524 -15 m 363 161 q 413 178 394 161 q 442 242 432 195 q 451 376 451 288 q 441 514 451 465 q 412 580 431 563 q 363 598 393 598 q 314 580 333 598 q 285 515 295 563 q 275 379 275 467 q 285 242 275 290 q 313 178 294 195 q 363 161 332 161 m 260 851 l 89 1122 l 328 1122 l 467 851 l 260 851 z "},"ỏ":{"ha":726,"x_min":33,"x_max":694,"o":"m 363 -15 q 117 82 202 -15 q 33 376 33 178 q 117 676 33 578 q 363 774 202 774 q 609 675 524 774 q 694 378 694 576 q 609 82 694 179 q 363 -15 524 -15 m 363 161 q 413 178 394 161 q 442 242 432 195 q 451 376 451 288 q 441 514 451 465 q 412 580 431 563 q 363 598 393 598 q 314 580 333 598 q 285 515 295 563 q 275 379 275 467 q 285 242 275 290 q 313 178 294 195 q 363 161 332 161 m 304 851 q 322 915 306 892 q 364 961 338 939 q 388 984 381 976 q 394 1004 394 992 q 340 1035 394 1035 q 233 1019 285 1035 l 233 1113 q 293 1126 258 1121 q 360 1131 328 1131 q 483 1104 442 1131 q 524 1021 524 1077 q 516 978 524 996 q 498 949 508 960 q 469 922 488 938 q 436 889 447 903 q 422 851 425 874 l 304 851 z "},"ơ":{"ha":726,"x_min":33,"x_max":724,"o":"m 724 860 q 693 739 724 785 q 609 673 663 693 q 694 378 694 574 q 609 82 694 179 q 363 -15 524 -15 q 117 82 202 -15 q 33 376 33 178 q 117 676 33 578 q 363 774 202 774 q 428 770 390 774 q 446 769 437 769 q 463 768 455 768 q 542 793 515 768 q 568 874 568 817 q 556 969 568 919 l 710 969 q 724 860 724 927 m 363 161 q 413 178 394 161 q 442 242 432 195 q 451 376 451 288 q 441 514 451 465 q 412 580 431 563 q 363 598 393 598 q 314 580 333 598 q 285 515 295 563 q 275 379 275 467 q 285 242 275 290 q 313 178 294 195 q 363 161 332 161 z "},"ớ":{"ha":726,"x_min":33,"x_max":724,"o":"m 591 1122 l 442 851 l 262 851 l 382 1122 l 591 1122 m 724 860 q 693 739 724 785 q 609 673 663 693 q 694 378 694 574 q 609 82 694 179 q 363 -15 524 -15 q 117 82 202 -15 q 33 376 33 178 q 117 676 33 578 q 363 774 202 774 q 428 770 390 774 q 446 769 437 769 q 463 768 455 768 q 542 793 515 768 q 568 874 568 817 q 556 969 568 919 l 710 969 q 724 860 724 927 m 363 161 q 413 178 394 161 q 442 242 432 195 q 451 376 451 288 q 441 514 451 465 q 412 580 431 563 q 363 598 393 598 q 314 580 333 598 q 285 515 295 563 q 275 379 275 467 q 285 242 275 290 q 313 178 294 195 q 363 161 332 161 z "},"ợ":{"ha":726,"x_min":33,"x_max":724,"o":"m 724 860 q 693 739 724 785 q 609 673 663 693 q 694 378 694 574 q 609 82 694 179 q 363 -15 524 -15 q 117 82 202 -15 q 33 376 33 178 q 117 676 33 578 q 363 774 202 774 q 428 770 390 774 q 446 769 437 769 q 463 768 455 768 q 542 793 515 768 q 568 874 568 817 q 556 969 568 919 l 710 969 q 724 860 724 927 m 363 161 q 413 178 394 161 q 442 242 432 195 q 451 376 451 288 q 441 514 451 465 q 412 580 431 563 q 363 598 393 598 q 314 580 333 598 q 285 515 295 563 q 275 379 275 467 q 285 242 275 290 q 313 178 294 195 q 363 161 332 161 m 363 -329 q 270 -296 305 -329 q 235 -205 235 -262 q 270 -113 235 -147 q 363 -80 305 -80 q 457 -113 422 -80 q 492 -205 492 -147 q 457 -296 492 -262 q 363 -329 422 -329 z "},"ờ":{"ha":726,"x_min":33,"x_max":724,"o":"m 724 860 q 693 739 724 785 q 609 673 663 693 q 694 378 694 574 q 609 82 694 179 q 363 -15 524 -15 q 117 82 202 -15 q 33 376 33 178 q 117 676 33 578 q 363 774 202 774 q 428 770 390 774 q 446 769 437 769 q 463 768 455 768 q 542 793 515 768 q 568 874 568 817 q 556 969 568 919 l 710 969 q 724 860 724 927 m 363 161 q 413 178 394 161 q 442 242 432 195 q 451 376 451 288 q 441 514 451 465 q 412 580 431 563 q 363 598 393 598 q 314 580 333 598 q 285 515 295 563 q 275 379 275 467 q 285 242 275 290 q 313 178 294 195 q 363 161 332 161 m 249 851 l 77 1122 l 316 1122 l 455 851 l 249 851 z "},"ở":{"ha":726,"x_min":33,"x_max":724,"o":"m 724 860 q 693 739 724 785 q 609 673 663 693 q 694 378 694 574 q 609 82 694 179 q 363 -15 524 -15 q 117 82 202 -15 q 33 376 33 178 q 117 676 33 578 q 363 774 202 774 q 428 770 390 774 q 446 769 437 769 q 463 768 455 768 q 542 793 515 768 q 568 874 568 817 q 556 969 568 919 l 710 969 q 724 860 724 927 m 363 161 q 413 178 394 161 q 442 242 432 195 q 451 376 451 288 q 441 514 451 465 q 412 580 431 563 q 363 598 393 598 q 314 580 333 598 q 285 515 295 563 q 275 379 275 467 q 285 242 275 290 q 313 178 294 195 q 363 161 332 161 m 292 851 q 310 915 294 892 q 352 961 326 939 q 376 984 369 976 q 383 1004 383 992 q 328 1035 383 1035 q 221 1019 274 1035 l 221 1113 q 282 1126 247 1121 q 348 1131 317 1131 q 471 1104 431 1131 q 512 1021 512 1077 q 504 978 512 996 q 486 949 497 960 q 458 922 476 938 q 424 889 435 903 q 410 851 413 874 l 292 851 z "},"ỡ":{"ha":726,"x_min":33,"x_max":724,"o":"m 231 945 q 115 885 173 945 l 115 1041 q 233 1096 165 1096 q 286 1087 263 1096 q 339 1060 309 1078 q 384 1038 366 1045 q 424 1031 402 1031 q 540 1092 481 1031 l 540 935 q 422 881 490 881 q 370 889 392 881 q 316 915 347 898 q 271 938 289 931 q 231 945 253 945 m 724 860 q 693 739 724 785 q 609 673 663 693 q 694 378 694 574 q 609 82 694 179 q 363 -15 524 -15 q 117 82 202 -15 q 33 376 33 178 q 117 676 33 578 q 363 774 202 774 q 428 770 390 774 q 446 769 437 769 q 463 768 455 768 q 542 793 515 768 q 568 874 568 817 q 556 969 568 919 l 710 969 q 724 860 724 927 m 363 161 q 413 178 394 161 q 442 242 432 195 q 451 376 451 288 q 441 514 451 465 q 412 580 431 563 q 363 598 393 598 q 314 580 333 598 q 285 515 295 563 q 275 379 275 467 q 285 242 275 290 q 313 178 294 195 q 363 161 332 161 z "},"ő":{"ha":726,"x_min":33,"x_max":699,"o":"m 363 -15 q 117 82 202 -15 q 33 376 33 178 q 117 676 33 578 q 363 774 202 774 q 609 675 524 774 q 694 378 694 576 q 609 82 694 179 q 363 -15 524 -15 m 363 161 q 413 178 394 161 q 442 242 432 195 q 451 376 451 288 q 441 514 451 465 q 412 580 431 563 q 363 598 393 598 q 314 580 333 598 q 285 515 295 563 q 275 379 275 467 q 285 242 275 290 q 313 178 294 195 q 363 161 332 161 m 131 851 l 223 1122 l 416 1122 l 313 851 l 131 851 m 414 851 l 506 1122 l 699 1122 l 596 851 l 414 851 z "},"ȏ":{"ha":726,"x_min":33,"x_max":694,"o":"m 363 -15 q 117 82 202 -15 q 33 376 33 178 q 117 676 33 578 q 363 774 202 774 q 609 675 524 774 q 694 378 694 576 q 609 82 694 179 q 363 -15 524 -15 m 363 161 q 413 178 394 161 q 442 242 432 195 q 451 376 451 288 q 441 514 451 465 q 412 580 431 563 q 363 598 393 598 q 314 580 333 598 q 285 515 295 563 q 275 379 275 467 q 285 242 275 290 q 313 178 294 195 q 363 161 332 161 m 131 871 q 197 1059 137 999 q 363 1119 258 1119 q 528 1058 465 1119 q 597 871 590 997 l 452 871 q 363 999 447 999 q 299 970 320 999 q 274 871 277 940 l 131 871 z "},"ō":{"ha":726,"x_min":33,"x_max":694,"o":"m 363 -15 q 117 82 202 -15 q 33 376 33 178 q 117 676 33 578 q 363 774 202 774 q 609 675 524 774 q 694 378 694 576 q 609 82 694 179 q 363 -15 524 -15 m 363 161 q 413 178 394 161 q 442 242 432 195 q 451 376 451 288 q 441 514 451 465 q 412 580 431 563 q 363 598 393 598 q 314 580 333 598 q 285 515 295 563 q 275 379 275 467 q 285 242 275 290 q 313 178 294 195 q 363 161 332 161 m 126 910 l 126 1063 l 601 1063 l 601 910 l 126 910 z "},"ṓ":{"ha":726,"x_min":33,"x_max":694,"o":"m 363 -15 q 117 82 202 -15 q 33 376 33 178 q 117 676 33 578 q 363 774 202 774 q 609 675 524 774 q 694 378 694 576 q 609 82 694 179 q 363 -15 524 -15 m 363 161 q 413 178 394 161 q 442 242 432 195 q 451 376 451 288 q 441 514 451 465 q 412 580 431 563 q 363 598 393 598 q 314 580 333 598 q 285 515 295 563 q 275 379 275 467 q 285 242 275 290 q 313 178 294 195 q 363 161 332 161 m 126 910 l 126 1063 l 601 1063 l 601 910 l 126 910 m 258 1165 l 367 1381 l 613 1381 l 469 1165 l 258 1165 z "},"ṑ":{"ha":726,"x_min":33,"x_max":694,"o":"m 363 -15 q 117 82 202 -15 q 33 376 33 178 q 117 676 33 578 q 363 774 202 774 q 609 675 524 774 q 694 378 694 576 q 609 82 694 179 q 363 -15 524 -15 m 363 161 q 413 178 394 161 q 442 242 432 195 q 451 376 451 288 q 441 514 451 465 q 412 580 431 563 q 363 598 393 598 q 314 580 333 598 q 285 515 295 563 q 275 379 275 467 q 285 242 275 290 q 313 178 294 195 q 363 161 332 161 m 126 910 l 126 1063 l 601 1063 l 601 910 l 126 910 m 258 1165 l 113 1381 l 360 1381 l 469 1165 l 258 1165 z "},"ǫ":{"ha":726,"x_min":33,"x_max":694,"o":"m 508 10 q 387 -65 419 -28 q 354 -147 354 -103 q 374 -198 354 -179 q 431 -217 394 -217 q 512 -198 467 -217 l 514 -292 q 460 -308 487 -303 q 399 -314 433 -314 q 266 -274 312 -314 q 219 -165 219 -235 q 240 -80 219 -117 q 306 -11 260 -43 q 33 376 33 22 q 117 676 33 578 q 363 774 202 774 q 609 675 524 774 q 694 378 694 576 q 648 139 694 228 q 508 10 602 49 m 363 598 q 314 580 333 598 q 285 515 295 563 q 275 379 275 467 q 285 242 275 290 q 313 178 294 195 q 363 161 332 161 q 413 178 394 161 q 442 242 432 195 q 451 376 451 288 q 441 514 451 465 q 412 580 431 563 q 363 598 393 598 z "},"ø":{"ha":726,"x_min":33,"x_max":694,"o":"m 619 661 q 694 378 694 562 q 609 82 694 179 q 363 -15 524 -15 q 199 19 268 -15 l 161 -39 l 55 33 l 101 103 q 33 376 33 199 q 117 676 33 578 q 363 774 202 774 q 520 743 453 774 l 558 801 l 665 729 l 619 661 m 363 603 q 307 584 329 603 q 274 517 285 566 q 262 379 262 468 q 263 322 262 357 l 428 575 q 400 597 416 590 q 363 603 384 603 m 363 156 q 420 174 399 156 q 453 240 442 192 q 465 376 465 288 q 463 449 465 417 l 293 190 q 323 164 306 172 q 363 156 340 156 z "},"ǿ":{"ha":726,"x_min":33,"x_max":694,"o":"m 619 661 q 694 378 694 562 q 609 82 694 179 q 363 -15 524 -15 q 199 19 268 -15 l 161 -39 l 55 33 l 101 103 q 33 376 33 199 q 117 676 33 578 q 363 774 202 774 q 520 743 453 774 l 558 801 l 665 729 l 619 661 m 363 603 q 307 584 329 603 q 274 517 285 566 q 262 379 262 468 q 263 322 262 357 l 428 575 q 400 597 416 590 q 363 603 384 603 m 363 156 q 420 174 399 156 q 453 240 442 192 q 465 376 465 288 q 463 449 465 417 l 293 190 q 323 164 306 172 q 363 156 340 156 m 260 851 l 399 1122 l 638 1122 l 467 851 l 260 851 z "},"õ":{"ha":726,"x_min":33,"x_max":694,"o":"m 363 -15 q 117 82 202 -15 q 33 376 33 178 q 117 676 33 578 q 363 774 202 774 q 609 675 524 774 q 694 378 694 576 q 609 82 694 179 q 363 -15 524 -15 m 363 161 q 413 178 394 161 q 442 242 432 195 q 451 376 451 288 q 441 514 451 465 q 412 580 431 563 q 363 598 393 598 q 314 580 333 598 q 285 515 295 563 q 275 379 275 467 q 285 242 275 290 q 313 178 294 195 q 363 161 332 161 m 469 881 q 414 889 440 881 q 351 915 388 898 q 298 938 319 931 q 255 945 276 945 q 188 931 217 945 q 126 885 158 917 l 126 1041 q 184 1083 153 1069 q 258 1096 216 1096 q 314 1087 288 1096 q 376 1060 341 1078 q 429 1038 408 1045 q 472 1031 450 1031 q 539 1045 509 1031 q 601 1092 569 1060 l 601 935 q 543 894 574 907 q 469 881 511 881 z "},"ṍ":{"ha":726,"x_min":33,"x_max":694,"o":"m 363 -15 q 117 82 202 -15 q 33 376 33 178 q 117 676 33 578 q 363 774 202 774 q 609 675 524 774 q 694 378 694 576 q 609 82 694 179 q 363 -15 524 -15 m 363 161 q 413 178 394 161 q 442 242 432 195 q 451 376 451 288 q 441 514 451 465 q 412 580 431 563 q 363 598 393 598 q 314 580 333 598 q 285 515 295 563 q 275 379 275 467 q 285 242 275 290 q 313 178 294 195 q 363 161 332 161 m 469 881 q 414 889 440 881 q 351 915 388 898 q 298 938 319 931 q 255 945 276 945 q 188 931 217 945 q 126 885 158 917 l 126 1041 q 184 1083 153 1069 q 258 1096 216 1096 q 314 1087 288 1096 q 376 1060 341 1078 q 429 1038 408 1045 q 472 1031 450 1031 q 539 1045 509 1031 q 601 1092 569 1060 l 601 935 q 543 894 574 907 q 469 881 511 881 m 258 1165 l 367 1381 l 613 1381 l 469 1165 l 258 1165 z "},"ṏ":{"ha":726,"x_min":33,"x_max":694,"o":"m 363 -15 q 117 82 202 -15 q 33 376 33 178 q 117 676 33 578 q 363 774 202 774 q 609 675 524 774 q 694 378 694 576 q 609 82 694 179 q 363 -15 524 -15 m 363 161 q 413 178 394 161 q 442 242 432 195 q 451 376 451 288 q 441 514 451 465 q 412 580 431 563 q 363 598 393 598 q 314 580 333 598 q 285 515 295 563 q 275 379 275 467 q 285 242 275 290 q 313 178 294 195 q 363 161 332 161 m 469 881 q 414 889 440 881 q 351 915 388 898 q 298 938 319 931 q 255 945 276 945 q 188 931 217 945 q 126 885 158 917 l 126 1041 q 184 1083 153 1069 q 258 1096 216 1096 q 314 1087 288 1096 q 376 1060 341 1078 q 429 1038 408 1045 q 472 1031 450 1031 q 539 1045 509 1031 q 601 1092 569 1060 l 601 935 q 543 894 574 907 q 469 881 511 881 m 203 1144 q 110 1177 144 1144 q 75 1269 75 1210 q 110 1360 75 1326 q 203 1393 144 1393 q 297 1360 262 1393 q 331 1269 331 1326 q 297 1177 331 1210 q 203 1144 262 1144 m 524 1144 q 430 1177 465 1144 q 396 1269 396 1210 q 430 1360 396 1326 q 524 1393 465 1393 q 617 1360 583 1393 q 651 1269 651 1326 q 617 1177 651 1210 q 524 1144 583 1144 z "},"ȭ":{"ha":726,"x_min":33,"x_max":694,"o":"m 363 -15 q 117 82 202 -15 q 33 376 33 178 q 117 676 33 578 q 363 774 202 774 q 609 675 524 774 q 694 378 694 576 q 609 82 694 179 q 363 -15 524 -15 m 363 161 q 413 178 394 161 q 442 242 432 195 q 451 376 451 288 q 441 514 451 465 q 412 580 431 563 q 363 598 393 598 q 314 580 333 598 q 285 515 295 563 q 275 379 275 467 q 285 242 275 290 q 313 178 294 195 q 363 161 332 161 m 469 881 q 414 889 440 881 q 351 915 388 898 q 298 938 319 931 q 255 945 276 945 q 188 931 217 945 q 126 885 158 917 l 126 1041 q 184 1083 153 1069 q 258 1096 216 1096 q 314 1087 288 1096 q 376 1060 341 1078 q 429 1038 408 1045 q 472 1031 450 1031 q 539 1045 509 1031 q 601 1092 569 1060 l 601 935 q 543 894 574 907 q 469 881 511 881 m 126 1193 l 126 1346 l 601 1346 l 601 1193 l 126 1193 z "},"œ":{"ha":1094,"x_min":33,"x_max":1069,"o":"m 1069 309 l 694 309 q 714 228 697 257 q 765 187 730 199 q 861 174 800 174 q 1032 199 933 174 l 1032 10 q 930 -9 977 -3 q 833 -15 883 -15 q 670 7 737 -15 q 562 75 603 29 q 351 -15 488 -15 q 115 82 198 -15 q 33 376 33 179 q 115 676 33 578 q 351 774 198 774 q 481 746 424 774 q 574 665 537 718 q 662 746 608 718 q 785 774 715 774 q 936 730 873 774 q 1034 597 1000 686 q 1069 377 1069 508 l 1069 309 m 772 619 q 728 606 745 619 q 703 555 712 592 q 694 451 694 518 l 847 451 q 838 555 847 519 q 814 606 830 592 q 772 619 799 619 m 363 161 q 413 178 394 161 q 441 242 431 195 q 451 376 451 288 q 441 514 451 465 q 412 580 431 563 q 363 598 393 598 q 314 580 333 598 q 285 515 295 563 q 275 379 275 467 q 285 242 275 290 q 313 178 294 195 q 363 161 332 161 z "},"p":{"ha":749,"x_min":60,"x_max":716,"o":"m 60 762 l 261 762 l 278 677 l 288 677 q 351 749 310 723 q 448 774 391 774 q 582 734 522 774 q 680 608 643 693 q 716 394 716 522 q 620 89 716 192 q 322 -14 525 -14 q 298 -12 315 -14 l 298 -306 l 60 -306 l 60 762 m 342 167 q 416 186 387 167 q 459 250 444 205 q 474 372 474 294 q 461 497 474 453 q 425 558 448 542 q 368 575 403 575 q 330 568 348 575 q 298 548 311 561 l 298 171 q 342 167 331 167 z "},"þ":{"ha":749,"x_min":60,"x_max":716,"o":"m 60 1122 l 298 1122 l 298 685 l 309 685 q 372 751 332 728 q 465 774 412 774 q 591 734 535 774 q 682 608 648 693 q 716 394 716 522 q 620 89 716 192 q 322 -14 525 -14 q 298 -12 315 -14 l 298 -306 l 60 -306 l 60 1122 m 342 167 q 416 186 387 167 q 459 250 444 205 q 474 372 474 294 q 460 497 474 453 q 423 558 447 541 q 361 574 399 574 q 327 568 344 574 q 298 552 310 563 l 298 171 q 342 167 331 167 z "},"q":{"ha":749,"x_min":33,"x_max":688,"o":"m 451 76 l 439 76 q 376 9 416 33 q 284 -14 337 -14 q 157 27 214 -14 q 67 153 101 67 q 33 368 33 239 q 128 672 33 569 q 426 774 224 774 q 563 763 493 774 q 688 731 632 752 l 688 -306 l 451 -306 l 451 76 m 388 187 q 422 192 406 187 q 451 209 439 198 l 451 589 q 405 593 423 593 q 333 575 362 593 q 290 511 305 556 q 275 389 275 467 q 288 264 275 308 q 325 203 301 220 q 388 187 349 187 z "},"r":{"ha":520,"x_min":60,"x_max":513,"o":"m 60 762 l 256 762 l 274 656 l 284 656 q 459 774 329 774 q 513 768 484 774 l 513 548 q 443 553 488 553 q 358 537 398 553 q 298 492 318 520 l 298 0 l 60 0 l 60 762 z "},"ŕ":{"ha":520,"x_min":60,"x_max":560,"o":"m 60 762 l 256 762 l 274 656 l 284 656 q 459 774 329 774 q 513 768 484 774 l 513 548 q 443 553 488 553 q 358 537 398 553 q 298 492 318 520 l 298 0 l 60 0 l 60 762 m 182 851 l 320 1122 l 560 1122 l 388 851 l 182 851 z "},"ř":{"ha":520,"x_min":53,"x_max":517,"o":"m 60 762 l 256 762 l 274 656 l 284 656 q 459 774 329 774 q 513 768 484 774 l 513 548 q 443 553 488 553 q 358 537 398 553 q 298 492 318 520 l 298 0 l 60 0 l 60 762 m 358 1122 l 517 1122 l 385 851 l 184 851 l 53 1122 l 212 1122 l 285 959 l 358 1122 z "},"ŗ":{"ha":520,"x_min":50,"x_max":513,"o":"m 60 762 l 256 762 l 274 656 l 284 656 q 459 774 329 774 q 513 768 484 774 l 513 548 q 443 553 488 553 q 358 537 398 553 q 298 492 318 520 l 298 0 l 60 0 l 60 762 m 180 -80 q 310 -192 310 -80 q 294 -275 310 -231 q 253 -352 278 -319 l 103 -352 q 144 -249 136 -290 q 73 -221 97 -243 q 50 -165 50 -199 q 82 -102 50 -124 q 180 -80 114 -80 z "},"ȑ":{"ha":520,"x_min":-50,"x_max":517,"o":"m 60 762 l 256 762 l 274 656 l 284 656 q 459 774 329 774 q 513 768 484 774 l 513 548 q 443 553 488 553 q 358 537 398 553 q 298 492 318 520 l 298 0 l 60 0 l 60 762 m 52 851 l -50 1122 l 143 1122 l 235 851 l 52 851 m 335 851 l 233 1122 l 426 1122 l 517 851 l 335 851 z "},"ṛ":{"ha":520,"x_min":52,"x_max":513,"o":"m 60 762 l 256 762 l 274 656 l 284 656 q 459 774 329 774 q 513 768 484 774 l 513 548 q 443 553 488 553 q 358 537 398 553 q 298 492 318 520 l 298 0 l 60 0 l 60 762 m 180 -329 q 87 -296 122 -329 q 52 -205 52 -262 q 87 -113 52 -147 q 180 -80 122 -80 q 274 -113 239 -80 q 308 -205 308 -147 q 274 -296 308 -262 q 180 -329 239 -329 z "},"ȓ":{"ha":520,"x_min":52,"x_max":518,"o":"m 60 762 l 256 762 l 274 656 l 284 656 q 459 774 329 774 q 513 768 484 774 l 513 548 q 443 553 488 553 q 358 537 398 553 q 298 492 318 520 l 298 0 l 60 0 l 60 762 m 52 871 q 119 1059 58 999 q 285 1119 179 1119 q 449 1058 387 1119 q 518 871 512 997 l 374 871 q 285 999 368 999 q 220 970 242 999 q 196 871 199 940 l 52 871 z "},"ṟ":{"ha":520,"x_min":-54,"x_max":513,"o":"m 60 762 l 256 762 l 274 656 l 284 656 q 459 774 329 774 q 513 768 484 774 l 513 548 q 443 553 488 553 q 358 537 398 553 q 298 492 318 520 l 298 0 l 60 0 l 60 762 m -54 -278 l -54 -126 l 415 -126 l 415 -278 l -54 -278 z "},"s":{"ha":579,"x_min":23,"x_max":563,"o":"m 253 -15 q 47 17 140 -15 l 47 205 q 249 172 141 172 q 324 188 301 172 q 347 231 347 203 q 336 263 347 251 q 303 280 326 274 l 198 306 q 23 527 23 347 q 60 658 23 602 q 170 744 97 714 q 347 774 242 774 q 521 754 440 774 l 521 567 q 360 588 444 588 q 266 570 294 588 q 238 526 238 553 q 249 498 238 508 q 283 481 260 487 l 388 456 q 519 382 476 434 q 563 236 563 330 q 525 102 563 159 q 418 16 488 46 q 253 -15 348 -15 z "},"ś":{"ha":579,"x_min":23,"x_max":563,"o":"m 253 -15 q 47 17 140 -15 l 47 205 q 249 172 141 172 q 324 188 301 172 q 347 231 347 203 q 336 263 347 251 q 303 280 326 274 l 198 306 q 23 527 23 347 q 60 658 23 602 q 170 744 97 714 q 347 774 242 774 q 521 754 440 774 l 521 567 q 360 588 444 588 q 266 570 294 588 q 238 526 238 553 q 249 498 238 508 q 283 481 260 487 l 388 456 q 519 382 476 434 q 563 236 563 330 q 525 102 563 159 q 418 16 488 46 q 253 -15 348 -15 m 184 851 l 322 1122 l 562 1122 l 390 851 l 184 851 z "}}}
